<svg width="175" height="175" viewBox="0 0 175 175" fill="none" xmlns="http://www.w3.org/2000/svg">
<path d="M56.7002 18.6042C56.7002 18.6042 52.8205 21.28 50.71 20.7777L51.3662 22.9197C51.3662 22.9197 55.8095 22.6712 57.4335 20.8022L56.7002 18.6042Z" fill="#FF8128"/>
<path d="M30.0703 68.4722C30.0703 68.4722 31.6471 65.8472 33.6753 64.8025L34.8041 66.031C34.8041 66.031 32.1406 67.5692 31.4861 69.6202L30.0703 68.4722Z" fill="#FF8128"/>
<path d="M47.103 118.667C47.103 118.667 48.671 123.112 47.6333 125.018L49.8733 124.946C49.8733 124.946 50.7955 120.594 49.4183 118.538L47.103 118.667Z" fill="#FF8128"/>
<path d="M122.02 40.299C122.02 40.299 119.002 40.8082 116.888 39.949L117.087 38.2935C117.087 38.2935 119.989 39.3155 121.971 38.479L122.02 40.299Z" fill="#FF8128"/>
<path d="M92.9565 67.2648C92.9565 67.2648 92.3965 67.7285 92.0098 67.6323L92.2145 68.0173C92.2145 68.0173 92.9758 67.9893 93.177 67.6603L92.9565 67.2648Z" fill="#009BF1"/>
<path d="M115.379 64.4981C115.379 64.4981 114.977 63.4376 115.323 62.9668L114.424 62.7218C114.424 62.7218 114.133 63.2276 114.48 64.2531L115.379 64.4981Z" fill="#00B5AF"/>
<path d="M99.6992 72.6478C99.6992 72.6478 99.3107 72.499 99.106 71.6013L99.617 71.4525C99.617 71.4525 99.6275 71.9723 100.235 72.4693L99.6992 72.6478Z" fill="#009BF1"/>
<path d="M100.254 63.784C100.254 63.784 99.381 64.6502 98.3835 64.7552L97.9268 64.0272C97.9268 64.0272 99.2463 63.819 99.661 63.042L100.254 63.784Z" fill="#992182"/>
<path d="M104.046 76.573L105.224 77.0735C105.224 77.0735 106.071 78.2687 105.102 80.1832L103.978 79.7895C103.976 79.7895 105.068 77.6002 104.046 76.573Z" fill="#F04163"/>
<path d="M109.379 65.5182C109.379 65.5182 108.836 66.0012 108.448 65.9119L108.661 66.2934C108.661 66.2934 109.416 66.2444 109.608 65.9084L109.379 65.5182Z" fill="#FCC900"/>
<path d="M115.141 78.8235L115.434 79.2382C115.434 79.2382 115.497 79.8297 114.842 80.311L114.546 79.9452C114.548 79.9452 115.29 79.3922 115.141 78.8235Z" fill="#00B5AF"/>
<path d="M102.578 59.4038C102.578 59.4038 102.989 59.1605 103.39 59.1973L103.516 59.4913C103.516 59.4913 102.979 59.4668 102.757 59.7135L102.578 59.4038Z" fill="#992182"/>
<path d="M95.8911 78.2128C95.8911 78.2128 96.4284 79.2435 96.1659 79.7773L97.0566 79.8998C97.0566 79.8998 97.2596 79.338 96.7819 78.3353L95.8911 78.2128Z" fill="#53237D"/>
<path d="M111.515 84.1837C111.515 84.1837 113.676 84.98 114.257 85.918L114.681 85.1165C114.681 85.1165 113.06 83.4803 111.928 83.3385L111.515 84.1837Z" fill="#53237D"/>
<path d="M88.9016 64.7832C88.9016 64.7832 88.0529 65.1927 87.4019 64.8497L87.6259 65.7475C87.6259 65.7475 88.2839 66.0327 89.1256 65.681L88.9016 64.7832Z" fill="#F04163"/>
<path d="M103.182 66.3529C103.182 66.3529 104.275 66.3722 104.739 67.5674L105.32 66.8412C105.32 66.8412 104.76 65.6109 103.677 65.5024L103.182 66.3529Z" fill="#00B5AF"/>
<path d="M96.6646 86.219L95.9174 86.9067C95.9174 86.9067 94.4351 86.9575 92.4121 85.1497L93.0299 84.448C93.0299 84.448 95.3451 86.5007 96.6646 86.219Z" fill="#009BF1"/>
<path d="M80.2638 75.5213L79.534 75.7138C79.534 75.7138 78.9285 75.0068 78.9618 74.487L79.5918 74.1913C79.5918 74.1913 79.9558 75.1223 80.2638 75.5213Z" fill="#F16301"/>
<path d="M93.5972 58.2032C93.5972 58.2032 94.5089 60.4205 93.8177 61.4407L95.7059 61.8992C95.7059 61.8992 96.2764 60.809 95.4837 58.6617L93.5972 58.2032Z" fill="#F16301"/>
<path d="M88.3608 61.8538C88.3608 61.8538 88.7773 61.6175 89.1798 61.6613L89.3023 61.9553C89.3023 61.9553 88.7633 61.922 88.5358 62.1635L88.3608 61.8538Z" fill="#F04163"/>
<path d="M116.379 74.2368C116.379 74.2368 117.13 74.0618 117.492 74.2893L117.427 73.8903C117.427 73.8903 116.634 73.6261 116.302 73.8238L116.379 74.2368Z" fill="#53237D"/>
<path d="M87.4438 72.2645C87.4438 72.2645 87.8306 73.0153 87.7413 73.36L88.1771 73.416C88.1771 73.416 88.1421 72.7195 87.8376 72.3188L87.4438 72.2645Z" fill="#F04163"/>
<path d="M92.1618 59.1062L92.0638 60.2157C92.0638 60.2157 91.096 61.1345 88.6758 60.557L88.6775 59.5105C88.6775 59.5105 91.4408 60.1545 92.1618 59.1062Z" fill="#53237D"/>
<path d="M111.286 73.353C111.286 73.353 111.937 73.1115 112.322 73.276L112.238 72.8367C112.238 72.8367 111.529 72.7265 111.214 72.9575L111.286 73.353Z" fill="#009BF1"/>
<path d="M111.673 70.455C111.673 70.455 111.093 70.1662 110.943 68.817L111.765 68.6945C111.765 68.6945 111.687 69.4557 112.539 70.2957L111.673 70.455Z" fill="#FCC900"/>
<path d="M85.2865 83.2177L84.2942 82.348C84.2942 82.348 83.6765 80.8167 84.765 79.0107L85.724 79.7492C85.7222 79.7492 84.492 81.8195 85.2865 83.2177Z" fill="#FCC900"/>
<path d="M90.4683 117.644C90.5873 117.33 90.7501 117.038 90.9513 116.777C90.6538 116.55 90.3896 116.28 90.1761 115.967C90.0501 115.783 89.9451 115.587 89.8611 115.381C89.8488 115.428 89.8366 115.474 89.8278 115.521C89.8121 115.607 89.8033 115.691 89.7981 115.776C89.7946 115.834 89.7823 115.901 89.8016 116.069C89.8576 116.608 90.0536 117.098 90.3756 117.53C90.4053 117.57 90.4386 117.605 90.4683 117.644Z" fill="#F84D00"/>
<path d="M92.2653 122.566C92.0325 122.414 91.8103 122.244 91.6055 122.055C91.1348 121.623 90.755 121.096 90.5188 120.501C90.4593 120.353 90.412 120.2 90.3735 120.048C90.37 120.078 90.3665 120.108 90.363 120.139C90.3578 120.214 90.3525 120.288 90.3525 120.363C90.3525 120.41 90.3525 120.458 90.3525 120.507C90.3595 120.795 90.3928 121.21 90.5468 121.695C90.741 122.306 91.0823 122.846 91.5198 123.303C91.7438 123.037 91.994 122.79 92.2653 122.566Z" fill="#F84D00"/>
<path d="M95.2368 117.378C95.0181 117.547 94.7521 117.652 94.4826 117.698C93.8893 117.799 93.2453 117.721 92.6696 117.579C92.4561 117.526 92.2461 117.458 92.0413 117.378C91.6686 117.602 91.3448 117.894 91.0806 118.235C91.5828 118.618 92.1761 118.884 92.7921 119.037C93.2926 119.161 93.8228 119.222 94.3408 119.187C94.8116 119.156 95.4083 118.981 95.6411 118.522C95.7338 118.338 95.7076 118.123 95.7076 118.123C95.6708 117.827 95.4766 117.572 95.2368 117.378Z" fill="#F84D00"/>
<path d="M89.8627 115.381C89.9607 115.022 90.1654 114.697 90.4349 114.438C90.9039 113.986 91.5567 113.717 92.2357 113.638C92.1517 113.321 92.0782 113.001 92.0152 112.679C91.9872 112.534 91.9539 112.374 91.9294 112.215C91.0212 112.36 90.1724 112.842 89.8154 113.701C89.7139 113.946 89.6702 114.207 89.6719 114.471C89.6737 114.637 89.6894 114.749 89.7017 114.816C89.7332 115.194 89.7647 115.572 89.7962 115.95C89.7962 115.804 89.8032 115.663 89.8312 115.519C89.8382 115.474 89.8487 115.426 89.8627 115.381Z" fill="#FB8A00"/>
<path d="M92.2529 115.741C91.7349 115.979 91.2904 116.336 90.9527 116.776C90.7514 117.038 90.5887 117.33 90.4697 117.642C90.4399 117.721 90.4119 117.799 90.3892 117.88C90.2667 118.295 90.2264 118.718 90.2369 119.145C90.2387 119.229 90.2544 119.423 90.2649 119.492C90.2439 119.339 90.3437 120.685 90.3612 120.645C90.3629 120.64 90.3577 120.58 90.3559 120.505C90.3559 120.458 90.3559 120.41 90.3559 120.361C90.3577 120.286 90.3612 120.213 90.3664 120.137C90.3682 120.108 90.3734 120.078 90.3769 120.046C90.3909 119.91 90.4084 119.772 90.4382 119.637C90.5467 119.119 90.7707 118.641 91.0839 118.235C91.3464 117.894 91.6719 117.602 92.0447 117.378C92.3352 117.203 92.6554 117.068 92.9984 116.984C93.5777 116.844 94.2287 116.849 94.7747 117.092C94.9304 117.162 95.0949 117.259 95.2419 117.378C95.4817 117.572 95.6759 117.827 95.7109 118.123C95.6759 117.717 95.6409 117.311 95.6059 116.905C95.6007 116.84 95.5919 116.786 95.5884 116.776C95.5884 116.774 95.5884 116.776 95.5884 116.774C95.5884 116.697 95.5814 116.609 95.5674 116.555C95.4712 116.209 95.1754 115.932 94.8762 115.752C94.0957 115.283 93.0579 115.374 92.2529 115.741Z" fill="#FB8A00"/>
<path d="M106.621 32.2998C106.801 32.2805 106.997 32.2368 107.182 32.165C107.205 32.2 107.231 32.2315 107.252 32.2683C107.308 32.368 107.349 32.4765 107.364 32.5903C107.371 32.641 107.373 32.69 107.37 32.7408C107.364 32.8108 107.3 33.0085 107.242 33.096C107.032 33.4128 106.645 33.593 106.286 33.6788C105.355 33.8975 104.342 33.4688 103.653 32.837C103.21 32.4293 102.879 31.927 102.683 31.374C103.096 31.2288 103.534 31.15 103.973 31.1238C104.209 31.395 104.486 31.6348 104.802 31.829C105.336 32.1598 105.992 32.3663 106.621 32.2998ZM100.872 32.7845C100.854 32.8125 100.839 32.8405 100.823 32.8685C100.807 32.8983 100.73 33.0138 100.644 33.271C100.557 33.5353 100.517 33.8118 100.538 34.0918C100.669 35.735 102.534 36.7675 104.034 36.6993C104.405 36.6818 104.767 36.596 105.098 36.4298C105.123 36.4175 105.193 36.2198 105.191 36.2233C105.263 36.057 105.334 35.889 105.404 35.721C105.474 35.553 105.544 35.385 105.614 35.217C105.628 35.1803 105.669 35.021 105.697 35.007C104.258 35.7298 102.158 34.9773 101.399 33.5545C101.213 33.2063 101.113 32.8125 101.131 32.4205C101.091 32.4678 101.052 32.5168 101.015 32.5675C100.965 32.6375 100.917 32.711 100.872 32.7845ZM102.734 28.7613C102.583 29.1865 102.485 29.624 102.475 30.0808C102.473 30.17 102.475 30.2575 102.48 30.3468C102.734 30.1823 103.005 30.051 103.289 29.9513C103.107 29.4403 103.035 28.8873 103.096 28.3325C103.112 28.1873 103.138 28.0438 103.168 27.902C103.061 28.07 102.963 28.2433 102.876 28.4235C102.842 28.4883 102.764 28.6773 102.734 28.7613ZM105.389 21.5145C105.362 21.567 105.277 21.7193 105.177 22.0255C104.914 22.834 104.951 23.7073 105.201 24.5193C105.252 24.6838 105.313 24.8465 105.378 25.0075C105.681 24.8448 105.999 24.71 106.332 24.6103C106.381 24.5963 106.43 24.584 106.479 24.57C105.863 23.618 105.508 22.5225 105.607 21.4183C105.618 21.2975 105.637 21.1803 105.66 21.0613C105.6 21.1453 105.544 21.231 105.494 21.3203C105.457 21.385 105.422 21.448 105.389 21.5145ZM111.977 27.7375C111.984 27.7043 111.993 27.6728 112 27.6413C112.033 27.4593 112.021 27.2948 111.976 27.146C111.696 27.3368 111.351 27.419 111.013 27.4313C110.367 27.454 109.715 27.2423 109.139 26.957C108.54 26.6613 107.965 26.2483 107.457 25.7548C106.927 25.7758 106.4 25.8493 105.891 25.9893C106.549 27.02 107.508 27.881 108.582 28.4008C109.431 28.812 110.654 29.148 111.465 28.5075C111.64 28.3693 111.767 28.1838 111.881 27.993C111.918 27.93 111.969 27.7778 111.977 27.7375Z" fill="#FF8128"/>
<path d="M106.871 30.058C107.334 30.2435 107.875 30.6128 107.959 31.1483C107.992 31.3635 107.896 31.57 107.896 31.57C107.728 31.9655 107.562 32.3628 107.394 32.7583C107.368 32.823 107.341 32.872 107.334 32.8825C107.32 32.907 107.364 32.7915 107.368 32.7408C107.371 32.69 107.369 32.641 107.362 32.5903C107.348 32.4765 107.306 32.368 107.25 32.2683C107.231 32.2315 107.203 32.2 107.18 32.165C107.016 31.9235 106.783 31.731 106.526 31.5963C105.964 31.3023 105.292 31.171 104.666 31.1255C104.435 31.108 104.2 31.1098 103.967 31.1238C103.528 31.1483 103.091 31.227 102.678 31.374C102.305 31.5053 101.951 31.6908 101.635 31.934C101.449 32.0775 101.278 32.2403 101.127 32.4205C101.087 32.4678 101.048 32.5168 101.012 32.5675C100.959 32.6375 100.912 32.711 100.866 32.7845C100.849 32.8125 100.833 32.8405 100.817 32.8685C100.802 32.8983 100.786 32.9298 100.77 32.9595C100.926 32.5868 101.083 32.214 101.239 31.8413C101.251 31.8045 101.269 31.7625 101.293 31.7083C101.524 31.1868 101.88 30.758 102.345 30.429C102.387 30.3993 102.433 30.3748 102.476 30.3468C102.73 30.1823 103.001 30.051 103.285 29.9513C103.913 29.7308 104.597 29.6555 105.264 29.7045C105.81 29.743 106.363 29.855 106.871 30.058ZM109.293 24.367C108.351 24.2813 107.389 24.3215 106.479 24.57C106.43 24.584 106.381 24.5945 106.332 24.6103C105.999 24.71 105.681 24.8448 105.378 25.0075C104.79 25.3243 104.272 25.7565 103.878 26.306C103.612 26.677 103.451 27.0253 103.346 27.2983C103.343 27.251 102.804 28.5705 102.874 28.4253C102.961 28.245 103.059 28.0718 103.166 27.9038C103.257 27.762 103.353 27.6255 103.462 27.496C103.892 26.9745 104.445 26.5685 105.059 26.2885C105.327 26.166 105.605 26.068 105.889 25.991C106.396 25.851 106.923 25.7775 107.455 25.7565C107.952 25.7373 108.453 25.7618 108.943 25.8178C109.588 25.893 110.25 26.0103 110.871 26.2168C111.354 26.3778 111.832 26.6823 111.975 27.1478C112.021 27.2965 112.033 27.461 112 27.643C111.993 27.6763 111.984 27.7078 111.977 27.7393C111.968 27.7795 111.928 27.881 111.923 27.902C112.121 27.4925 112.343 26.9553 112.499 26.5283C112.49 26.5388 112.474 26.5773 112.457 26.607C112.451 26.6158 112.448 26.6228 112.443 26.6315C112.49 26.5493 112.528 26.467 112.555 26.376C112.577 26.2955 112.595 26.2133 112.602 26.1293C112.616 25.97 112.6 25.8055 112.546 25.6533C112.49 25.4958 112.395 25.3558 112.278 25.2385C112.257 25.2193 112.236 25.2 112.215 25.1808C111.814 24.8413 111.265 24.7188 110.768 24.605C110.281 24.493 109.788 24.4125 109.293 24.367ZM107.067 18.8073C106.659 19.103 106.328 19.4828 106.078 19.9203C105.915 20.2038 105.891 20.2965 105.828 20.4505C105.787 20.5485 105.712 20.7323 105.579 21.049C105.432 21.4008 105.353 21.5845 105.317 21.6685C105.336 21.6265 105.362 21.567 105.388 21.5163C105.422 21.4515 105.457 21.3868 105.492 21.3238C105.544 21.2345 105.6 21.1488 105.658 21.0648C105.693 21.0158 105.724 20.9668 105.761 20.9213C106.181 20.37 106.773 19.971 107.418 19.7295C108.901 19.1748 110.518 19.4688 111.961 20.0463C112.359 20.2055 112.745 20.3858 113.129 20.5765C113.115 20.5695 113.762 19.1713 113.725 19.152C111.687 18.1353 109.074 17.3513 107.067 18.8073Z" fill="#FC9F00"/>
<path d="M160.228 77.6895C160.211 77.6825 160.193 77.6755 160.176 77.6685C160.165 77.665 160.153 77.6598 160.143 77.6562C160.171 77.6668 160.199 77.679 160.228 77.6895Z" fill="black"/>
<path d="M160.324 77.7227C160.429 77.7665 160.622 77.875 160.715 77.9502C161.206 78.351 161.427 79.0142 161.492 79.6425C161.632 81.0022 161.087 82.5107 161.689 83.7987C161.724 83.8757 161.766 83.9492 161.808 84.021C161.95 84.2537 162.13 84.462 162.342 84.6352C162.44 84.7175 162.547 84.7857 162.655 84.8557C162.683 84.8715 162.711 84.889 162.741 84.9047C162.395 84.7612 162.046 84.6195 161.7 84.476C161.24 84.3115 160.562 84.042 160.499 84.0122C160.512 84.0157 160.526 84.0175 160.538 84.021C160.435 83.9965 160.333 83.937 160.237 83.8915C159.736 83.6447 159.313 83.258 159.068 82.7522C158.613 81.816 158.804 80.7065 158.861 79.7037C158.891 79.1857 158.896 78.5487 158.755 77.9817C158.858 77.9187 158.966 77.8627 159.085 77.8137C159.486 77.644 159.924 77.5582 160.324 77.7227ZM149.674 73.325C149.558 73.2462 149.452 73.1867 149.359 73.1412C149.135 73.0292 148.995 73.0012 148.995 73.0012C148.918 72.9837 148.844 72.9592 148.767 72.9452C148.442 72.8822 148.109 72.891 147.782 72.9452C148.918 74.3715 148.839 76.335 149.459 77.9975C149.772 78.8392 150.297 79.6092 151.091 80.0607C151.247 80.15 151.412 80.227 151.58 80.2917C151.658 80.3215 151.739 80.3477 151.821 80.3652C151.903 80.3827 151.986 80.3897 152.07 80.3967C152.171 80.4055 152.273 80.4107 152.374 80.4055C152.509 80.4002 152.642 80.3792 152.771 80.346C151.198 78.4017 151.973 74.8667 149.674 73.325ZM132.244 63.7717C132.148 63.7402 132.05 63.707 131.952 63.6807C131.752 63.6247 131.549 63.5827 131.346 63.5477C131.362 63.5582 131.379 63.5687 131.395 63.5792C133.171 64.778 134.475 66.5682 135.508 68.4162C136.463 70.1277 137.51 72.142 139.384 72.9907C139.445 73.0187 139.508 73.045 139.569 73.073C139.592 73.0747 139.636 73.0852 139.708 73.1045C139.802 73.1307 139.895 73.1605 139.991 73.1815C140.25 73.2375 140.518 73.262 140.784 73.2532C140.262 72.7842 139.821 72.2207 139.429 71.6432C138.449 70.2047 137.734 68.6122 136.671 67.2262C135.586 65.8122 134.297 64.526 132.61 63.8942C132.352 63.798 132.281 63.7822 132.244 63.7717Z" fill="#FC9F00"/>
<path d="M130.263 62.9335C130.31 62.9563 130.357 62.9808 130.405 63.007C131.054 63.2748 131.705 63.5408 132.354 63.8068C132.221 63.763 132.088 63.7175 131.952 63.679C131.752 63.623 131.549 63.581 131.346 63.546C131.063 63.497 130.777 63.462 130.49 63.4445C129.566 63.3885 128.642 63.4795 127.722 63.539C126.772 63.6003 125.811 63.623 124.876 63.4358C124.584 63.3763 124.302 63.294 124.022 63.1995C123.828 62.9668 123.643 62.7288 123.462 62.4873C123.585 62.4943 123.707 62.503 123.832 62.5048C124.701 62.51 125.571 62.4138 126.441 62.3683C127.216 62.328 127.995 62.3333 128.758 62.4715C129.206 62.552 129.638 62.6868 130.063 62.8495C130.128 62.8758 130.196 62.9003 130.263 62.9335ZM157.6 76.6133C157.538 76.5958 157.477 76.5853 157.416 76.5765C157.04 76.5275 156.653 76.6238 156.312 76.7918C155.309 77.2818 154.894 78.2775 154.283 79.142C153.974 79.5795 153.603 79.9943 153.107 80.2235C152.999 80.2743 152.885 80.3145 152.77 80.3443C152.64 80.3775 152.505 80.3985 152.372 80.4038C152.257 80.409 152.141 80.402 152.028 80.3863C151.956 80.3758 151.538 80.262 151.795 80.3635C152.528 80.6663 153.263 80.969 153.996 81.2735C153.996 81.2735 154.625 81.522 155.109 81.4783C156.102 81.3908 156.73 80.549 157.223 79.7703C157.659 79.0825 158.063 78.3983 158.758 77.98C158.861 77.917 158.97 77.861 159.089 77.812C159.49 77.644 159.913 77.5915 160.328 77.7228C160.279 77.7053 160.228 77.686 160.179 77.6685C159.393 77.3448 158.609 77.0228 157.824 76.699C157.829 76.7008 157.834 76.706 157.841 76.7078C157.768 76.6728 157.685 76.6378 157.6 76.6133ZM146.244 71.8883C145.668 71.7675 145.077 71.8393 144.518 72.0125C143.369 72.3713 142.31 73.0818 141.101 73.2305C140.996 73.2428 140.891 73.2498 140.784 73.2533C140.518 73.2603 140.25 73.2375 139.991 73.1815C139.895 73.1605 139.802 73.1325 139.708 73.1045C139.636 73.0835 139.592 73.0748 139.569 73.073C140.334 73.4178 141.118 73.7503 141.909 74.0355C142.014 74.0723 142.117 74.1125 142.222 74.1475C142.658 74.2963 143.118 74.3628 143.582 74.3278C144.315 74.2718 145.012 73.9725 145.68 73.682C146.345 73.3933 147.016 73.0765 147.733 72.9488C147.749 72.947 147.765 72.9453 147.78 72.9418C148.108 72.8893 148.442 72.8788 148.766 72.9418C148.843 72.9575 148.918 72.9803 148.993 72.9978C148.629 72.849 148.265 72.7003 147.901 72.5515C147.192 72.2278 146.641 71.9968 146.543 71.9688C146.447 71.9285 146.38 71.9163 146.244 71.8883Z" fill="#F05222"/>
<path d="M135.346 73.6611C135.348 73.6611 135.348 73.6611 135.35 73.6611C135.346 73.6611 135.345 73.6611 135.341 73.6593C135.336 73.6593 135.329 73.6593 135.324 73.6593C135.332 73.6593 135.339 73.6593 135.346 73.6611Z" fill="black"/>
<path d="M142.1 74.2176C141.901 74.1388 141.705 74.0531 141.509 73.9656C141.507 73.9726 141.503 73.9796 141.502 73.9848C141.33 74.5063 141.166 75.1381 140.775 75.5248C140.775 75.5248 140.805 75.5458 140.807 75.5476C141.064 75.7366 141.384 75.8573 141.71 75.8713C141.92 75.8818 142.13 75.8468 142.321 75.7558C142.793 75.5301 143.026 75.0471 143.19 74.5693C142.814 74.4923 142.443 74.3523 142.1 74.2176Z" fill="#B60B70"/>
<path d="M134.456 73.0345C134.435 73.0608 134.412 73.0888 134.391 73.115C134.601 73.416 135.012 73.6243 135.343 73.6575C135.354 73.6575 135.373 73.6645 135.429 73.6593C135.567 73.647 135.698 73.6155 135.824 73.535C135.987 73.43 136.12 73.2813 136.243 73.1343C136.502 72.8263 136.72 72.485 137 72.1963C137.032 72.163 137.065 72.1315 137.1 72.1C137.1 72.1 137.086 72.0808 137.084 72.079C137.079 72.072 137.072 72.065 137.067 72.058C137.055 72.044 137.044 72.03 137.032 72.0178C137.021 72.0038 137.009 71.9915 136.997 71.9775C136.985 71.9653 136.972 71.9513 136.96 71.939C136.948 71.9268 136.936 71.9145 136.922 71.9023C136.909 71.89 136.895 71.8795 136.883 71.8673C136.869 71.8568 136.857 71.8445 136.843 71.834C136.829 71.8235 136.815 71.813 136.801 71.8025C136.787 71.792 136.773 71.7833 136.757 71.7745C136.743 71.7658 136.727 71.757 136.713 71.7483C136.699 71.7395 136.684 71.7325 136.668 71.7238C136.652 71.7168 136.636 71.7098 136.619 71.7028C136.603 71.6958 136.587 71.6905 136.57 71.6835C136.552 71.6783 136.537 71.673 136.519 71.6678C136.502 71.6625 136.484 71.659 136.467 71.6555C136.449 71.652 136.43 71.6485 136.412 71.645C136.397 71.6433 136.381 71.6415 136.365 71.6398C136.353 71.638 136.339 71.638 136.327 71.6363C136.309 71.6363 136.292 71.6345 136.274 71.6345C136.253 71.6345 136.232 71.6345 136.209 71.6363C136.208 71.6363 136.206 71.6363 136.204 71.6363C136.12 71.6398 136.036 71.6573 135.956 71.68C135.658 71.7605 135.392 71.9338 135.175 72.1508C134.902 72.422 134.692 72.7388 134.456 73.0345Z" fill="#B60B70"/>
<path d="M140.066 75.873C140.056 75.873 140.047 75.8748 140.04 75.8748C140.038 75.8748 140.035 75.8748 140.033 75.8765C140.044 75.8748 140.056 75.8748 140.066 75.873Z" fill="#BB0059"/>
<path d="M141.669 75.8713C141.666 75.8713 141.664 75.8695 141.661 75.8695C141.654 75.8695 141.647 75.8695 141.636 75.8678C141.648 75.8695 141.659 75.8695 141.669 75.8713Z" fill="#BB0059"/>
<path d="M138.056 71.638C138.285 71.6415 138.497 71.673 138.689 71.8078C139.086 72.086 139.284 72.5795 139.454 73.0153C139.776 73.8448 140.049 74.963 140.777 75.5248C141.017 75.7085 141.305 75.8345 141.661 75.8678C141.654 75.8678 141.647 75.8678 141.636 75.866C141.641 75.866 141.648 75.8678 141.655 75.8678C141.58 75.8695 140.556 75.873 140.042 75.8748C140.042 75.8748 139.921 75.8853 139.869 75.88C139.506 75.8608 139.16 75.7278 138.878 75.5055C138.239 75.0015 137.989 74.1773 137.732 73.4388C137.592 73.0345 137.441 72.6303 137.214 72.2663C137.177 72.2085 137.139 72.1525 137.098 72.0983C136.913 71.8568 136.675 71.673 136.351 71.6415C136.362 71.6433 137.478 71.6398 138.017 71.638C138.021 71.638 138.022 71.638 138.026 71.638C138.033 71.638 138.04 71.6363 138.049 71.6363H138.05C138.056 71.6363 138.061 71.6363 138.066 71.6345C138.063 71.638 138.059 71.638 138.056 71.638ZM132.685 72.527C132.655 72.527 132.415 72.5183 132.41 72.534C132.302 72.891 132.545 73.2165 132.823 73.4143C132.979 73.5245 133.163 73.605 133.35 73.6488C133.434 73.668 133.569 73.6698 133.64 73.6663C133.898 73.6645 134.839 73.661 135.313 73.6593C135.324 73.6593 135.336 73.6593 135.347 73.6593C135.34 73.6593 135.336 73.6575 135.341 73.6575C135.334 73.6575 135.327 73.6558 135.319 73.6558C134.993 73.6155 134.594 73.409 134.389 73.115C134.27 72.9435 134.218 72.744 134.283 72.5288C134.283 72.5288 133.964 72.5235 134.008 72.5235C133.787 72.5218 133.567 72.5218 133.345 72.5235C133.126 72.5235 132.905 72.5253 132.685 72.527Z" fill="#F04163"/>
<path d="M141.669 75.8713C141.666 75.8713 141.664 75.8695 141.661 75.8695C141.661 75.8695 141.659 75.8695 141.655 75.8695C141.661 75.8695 141.666 75.8713 141.669 75.8713Z" fill="#F04163"/>
<path d="M140.042 75.8748C140.04 75.8748 140.037 75.8748 140.035 75.8765C140.046 75.8765 140.058 75.8748 140.068 75.8748C140.056 75.8731 140.047 75.8748 140.042 75.8748Z" fill="#F04163"/>
<path d="M134.899 125.004C134.892 124.999 134.885 124.994 134.876 124.99C134.874 124.99 134.874 124.99 134.873 124.988C134.883 124.994 134.892 124.999 134.899 125.004Z" fill="black"/>
<path d="M138.388 121.581C138.39 121.583 138.39 121.583 138.392 121.585C138.516 121.67 138.476 121.639 138.388 121.581Z" fill="black"/>
<path d="M134.685 124.862C134.682 124.859 134.678 124.855 134.673 124.854C134.636 124.827 134.649 124.836 134.685 124.862Z" fill="black"/>
<path d="M135.915 125.743C135.914 125.741 135.914 125.741 135.912 125.739C135.905 125.734 135.9 125.729 135.893 125.724C135.901 125.729 135.908 125.736 135.915 125.743Z" fill="black"/>
<path d="M135.462 123.125C135.765 122.402 136.341 121.709 137.09 121.432C137.149 121.41 137.209 121.394 137.27 121.378C137.342 121.114 137.317 120.848 137.083 120.641C137.065 120.626 137.046 120.612 137.027 120.596C137.004 120.582 136.981 120.566 136.959 120.552C136.887 120.508 136.812 120.47 136.733 120.44C136.581 120.382 136.418 120.356 136.253 120.36C135.91 120.368 135.581 120.505 135.3 120.69C134.645 121.124 134.164 121.844 133.968 122.593C133.907 122.831 133.879 123.072 133.887 123.31C134.108 123.357 134.335 123.373 134.57 123.35C134.874 123.324 135.175 123.244 135.462 123.125Z" fill="#542578"/>
<path d="M134.186 123.776C134.179 123.769 134.172 123.763 134.164 123.756C134.171 123.763 134.178 123.769 134.186 123.776Z" fill="black"/>
<path d="M138.805 125.54C138.625 125.403 138.446 125.263 138.271 125.123C138.187 125.057 138.101 124.99 138.019 124.922C137.459 125.198 136.84 125.377 136.215 125.368C135.975 125.365 135.741 125.33 135.515 125.265C135.293 125.202 135.079 125.109 134.88 124.988C134.871 124.983 134.864 124.978 134.855 124.974C134.825 124.955 134.794 124.934 134.764 124.915C134.734 124.896 134.706 124.876 134.687 124.862C134.883 125.02 135.093 125.163 135.296 125.31C135.595 125.527 135.889 125.757 136.204 125.949C136.437 126.093 136.689 126.199 136.955 126.262C137.473 126.385 138.016 126.346 138.525 126.208C138.794 126.135 139.057 126.035 139.309 125.916C139.139 125.79 138.971 125.666 138.805 125.54Z" fill="#8654D8"/>
<path d="M137.081 120.64C137.083 120.642 137.083 120.642 137.081 120.64V120.64Z" fill="black"/>
<path d="M134.398 123.933C134.347 123.9 134.291 123.856 134.24 123.823C134.247 123.84 134.107 123.735 133.918 123.602C133.994 124.031 134.202 124.449 134.557 124.757C134.596 124.791 134.634 124.822 134.674 124.854C134.692 124.866 134.722 124.885 134.764 124.915C134.793 124.934 134.825 124.955 134.855 124.974C134.862 124.98 134.87 124.985 134.879 124.988C135.079 125.109 135.292 125.2 135.514 125.265C135.336 124.967 135.247 124.633 135.234 124.288C135.072 124.253 134.912 124.201 134.758 124.131C134.632 124.073 134.512 124.007 134.398 123.933Z" fill="#542578"/>
<path d="M133.768 123.286C133.416 122.703 133.38 121.978 133.504 121.296C133.57 120.934 133.675 120.577 133.807 120.23C133.661 120.148 133.518 120.06 133.381 119.966C133.063 119.747 132.76 119.507 132.475 119.247C132.156 120.059 131.948 120.983 132.198 121.823C132.263 122.043 132.365 122.253 132.499 122.44C132.652 122.65 132.844 122.813 133.049 122.969C133.065 122.976 133.098 122.995 133.157 123.03C133.149 123.025 133.14 123.02 133.133 123.014C133.336 123.135 133.549 123.226 133.768 123.286Z" fill="#542578"/>
<path d="M138.274 121.506C138.281 121.511 138.288 121.515 138.295 121.52C138.297 121.522 138.297 121.522 138.299 121.522C138.292 121.516 138.283 121.511 138.274 121.506Z" fill="black"/>
<path d="M137.083 120.641C137.315 120.848 137.342 121.114 137.27 121.378C137.184 121.69 136.962 121.998 136.771 122.204C136.418 122.589 135.961 122.916 135.462 123.125C135.175 123.244 134.874 123.324 134.571 123.354C134.337 123.377 134.109 123.361 133.889 123.314C133.849 123.305 133.808 123.296 133.768 123.284C133.548 123.224 133.336 123.133 133.133 123.013C133.142 123.018 133.15 123.023 133.157 123.028C133.098 122.992 133.065 122.972 133.049 122.967C133.082 122.993 133.115 123.018 133.15 123.042C133.404 123.23 133.658 123.42 133.917 123.606C133.919 123.611 134.346 123.902 134.396 123.933C134.512 124.007 134.631 124.073 134.755 124.131C134.907 124.201 135.067 124.253 135.231 124.288C135.308 124.304 135.387 124.318 135.467 124.325C136.412 124.409 137.378 123.916 138.024 123.263C138.288 122.995 138.54 122.666 138.621 122.295C138.651 122.155 138.654 122.008 138.605 121.873C138.563 121.754 138.483 121.663 138.392 121.585C138.386 121.581 138.379 121.576 138.372 121.571C138.264 121.495 138.056 121.347 137.692 121.082C137.345 120.832 137.14 120.682 137.027 120.598C137.027 120.598 137.027 120.598 137.025 120.598C137.046 120.612 137.065 120.626 137.083 120.641Z" fill="#8654D8"/>
<path d="M82.6439 108.327C82.6439 108.327 79.9559 112.714 78.3057 113.169L79.0109 114.986C79.0109 114.986 82.3604 112.739 83.4139 110.164L82.6439 108.327Z" fill="#009BF1"/>
<path d="M72.2485 133.621C72.2485 133.621 75.3478 136.932 74.8315 139.732L78.447 138.458C78.447 138.458 78.706 135.658 75.864 132.347L72.2485 133.621Z" fill="#00B5AF"/>
<path d="M64.9725 82.4547C64.9725 82.4547 63.7545 85.981 62.1567 86.6565L63.6022 87.7065C63.6022 87.7065 66.3427 85.456 66.495 83.5047L64.9725 82.4547Z" fill="#8654D8"/>
<path d="M137.361 41.6973C137.065 42.021 136.733 42.3168 136.416 42.6178C136.386 42.6458 136.358 42.6703 136.329 42.6948C136.276 42.7403 136.225 42.7823 136.167 42.8173C135.991 42.9398 135.789 43.022 135.525 43.0483C134.829 43.1218 134.011 42.9433 133.238 42.7665C132.457 42.5898 131.67 42.378 130.888 42.1855C130.289 42.0385 129.682 41.8915 129.099 41.818C129.022 41.5293 128.963 41.2248 129.029 40.9885C129.043 40.9378 129.068 40.8958 129.094 40.852C129.099 40.8415 129.105 40.8328 129.106 40.824C129.15 40.789 129.196 40.754 129.25 40.7313C129.409 40.6578 129.616 40.649 129.817 40.656C130.421 40.6735 131.078 40.8293 131.715 40.9798C132.487 41.1618 133.262 41.3718 134.034 41.5555C134.808 41.741 135.601 41.923 136.327 41.9353C136.397 41.937 136.467 41.9353 136.537 41.9318C136.812 41.9195 137.074 41.8705 137.275 41.741C137.314 41.7183 137.342 41.7043 137.361 41.6973Z" fill="#F05222"/>
<path d="M129.483 47.3077L128.986 47.7907C128.721 48.0585 128.555 48.2247 128.483 48.2947C128.469 48.307 128.454 48.3192 128.441 48.3315C128.412 48.356 128.382 48.3805 128.35 48.405C127.941 48.7235 127.458 48.9125 126.852 48.9772C125.519 49.1225 123.814 48.7725 122.868 49.567C122.806 49.6177 122.908 49.5145 122.918 49.504C123.03 49.3902 123.146 49.2782 123.26 49.1645C123.496 48.9335 123.725 48.692 123.981 48.4785C124.42 48.1092 125.02 47.9692 125.678 47.9255C126.376 47.88 127.115 47.9255 127.808 47.8712C128.144 47.8467 128.471 47.7977 128.769 47.6997C128.79 47.6927 128.811 47.6857 128.83 47.6787C128.965 47.6315 129.094 47.572 129.213 47.5037C129.267 47.4722 129.318 47.439 129.367 47.4022C129.388 47.3882 129.409 47.3725 129.428 47.3567C129.446 47.3392 129.465 47.3235 129.483 47.3077Z" fill="#F05222"/>
<path d="M151.004 34.4242C150.677 34.7917 150.297 35.1172 149.937 35.4497C149.937 35.4497 149.935 35.4497 149.935 35.4514C149.87 35.5109 149.8 35.5669 149.728 35.6194C149.487 35.7927 149.207 35.9187 148.887 35.9957C147.95 36.2144 146.851 36.0569 145.726 35.6649C143.267 34.8092 140.873 33.1729 138.439 32.0582C137.275 31.5262 136.078 31.0957 134.964 31.0152C134.419 30.9749 133.908 31.0222 133.448 31.1587C133.464 31.0554 133.49 30.9574 133.527 30.8612C133.557 30.7877 133.593 30.7177 133.635 30.6529C133.658 30.6179 133.683 30.5882 133.709 30.5549C133.742 30.5129 133.754 30.4884 133.753 30.4814C133.872 30.3817 133.996 30.2889 134.134 30.2154C135.865 29.2967 138.528 30.3554 140.789 31.5139C142.016 32.1439 143.231 32.8404 144.457 33.4669C145.595 34.0462 146.769 34.5834 147.908 34.8337C148.757 35.0209 149.615 35.0367 150.297 34.8022C150.441 34.7532 150.577 34.6937 150.703 34.6202C150.785 34.5729 150.861 34.5204 150.934 34.4627C151.002 34.4102 151.02 34.3997 151.004 34.4242Z" fill="#F05222"/>
<path d="M151.337 33.922C151.851 32.823 151.279 31.4668 150.717 30.4395C150.38 29.8218 149.988 29.2355 149.564 28.6738C148.211 26.8818 146.339 25.0583 144.351 24.1028C143.929 23.8998 143.504 23.744 143.089 23.6565C143.059 23.6513 142.921 23.8053 142.914 23.814C142.774 23.9453 142.636 24.0765 142.501 24.2095C142.365 24.3425 142.228 24.4755 142.095 24.6103C142.069 24.6365 141.966 24.7888 141.931 24.7818C143.815 25.1808 145.788 26.838 147.231 28.399C148.043 29.2775 148.775 30.2295 149.354 31.2165C149.858 32.074 150.262 32.991 150.359 33.8363C150.399 34.1915 150.404 34.58 150.248 34.9108C150.117 35.189 149.729 35.6195 149.729 35.6195C149.8 35.5688 149.869 35.5128 149.937 35.4515C150.297 35.1208 150.677 34.7935 151.004 34.426C151.146 34.265 151.256 34.097 151.337 33.922Z" fill="#FF931E"/>
<path d="M137.627 41.286C137.666 41.1687 137.69 41.041 137.699 40.9045C137.729 40.4722 137.617 39.9612 137.438 39.4905C137.064 38.514 136.427 37.534 135.841 36.589C135.186 35.5372 134.505 34.4802 133.996 33.3987C133.641 32.648 133.345 31.8167 133.452 31.157C133.468 31.0537 133.494 30.9557 133.531 30.8595C133.56 30.786 133.597 30.716 133.639 30.6512C133.662 30.6162 133.686 30.5865 133.713 30.5532C133.746 30.5112 133.758 30.4867 133.756 30.4797C133.567 30.6425 133.398 30.8297 133.221 31.0012C133.053 31.164 132.866 31.3197 132.701 31.4947C132.6 31.6032 132.507 31.7205 132.435 31.85C132.272 32.1422 132.237 32.515 132.295 32.914C132.428 33.8537 132.983 34.881 133.527 35.8207C134.138 36.8777 134.827 37.9137 135.443 38.969C135.863 39.6865 136.285 40.4407 136.462 41.2615C136.518 41.524 136.572 41.8337 136.516 42.0997C136.46 42.3622 136.324 42.6037 136.168 42.8172C136.224 42.7805 136.276 42.7385 136.329 42.6947C136.359 42.6702 136.388 42.6457 136.416 42.6177C136.735 42.3167 137.067 42.021 137.361 41.6972C137.384 41.671 137.409 41.6447 137.433 41.6185C137.517 41.524 137.584 41.4155 137.627 41.286Z" fill="#FF931E"/>
<path d="M129.838 46.8895C129.929 46.7337 129.997 46.5605 130.041 46.3732C130.248 45.493 129.938 44.394 129.597 43.358C129.441 42.8925 129.269 42.4252 129.14 41.9615C129.128 41.9142 129.114 41.8652 129.101 41.818C129.024 41.5292 128.965 41.2247 129.031 40.9885C129.045 40.9377 129.07 40.8957 129.096 40.852C129.101 40.8415 129.107 40.8327 129.108 40.824C129.056 40.8695 129.005 40.9202 128.956 40.9675C128.718 41.1915 128.485 41.419 128.253 41.6482C128.172 41.727 128.083 41.804 128.008 41.8897C127.988 41.9125 127.969 41.9335 127.95 41.958C127.805 42.1522 127.836 42.4567 127.896 42.7455C128.088 43.6642 128.522 44.6197 128.755 45.5472C128.886 46.0687 128.946 46.5867 128.944 47.0645C128.942 47.481 128.646 47.9867 128.597 48.0585C128.561 48.1127 128.403 48.3647 128.351 48.405C128.382 48.3822 128.412 48.3577 128.442 48.3315C128.456 48.3192 128.47 48.3087 128.484 48.2947C128.555 48.2247 128.723 48.0585 128.986 47.7907L129.483 47.3077C129.581 47.2307 129.707 47.0872 129.78 46.9787C129.8 46.9507 129.821 46.921 129.838 46.8895Z" fill="#FF931E"/>
<path d="M43.3247 78.5312C43.3282 78.5277 43.33 78.5242 43.3335 78.5225C43.344 78.512 43.3545 78.5015 43.365 78.491C43.351 78.5032 43.337 78.5172 43.3247 78.5312Z" fill="url(#paint0_linear_22_1383)"/>
<path d="M45.1851 76.9633C45.1956 76.9563 45.2061 76.9493 45.2166 76.9406C45.2218 76.9371 45.2271 76.9336 45.2323 76.9301C45.2166 76.9423 45.2008 76.9528 45.1851 76.9633Z" fill="url(#paint1_linear_22_1383)"/>
<path d="M46.4432 70.5391C46.431 70.5478 46.4187 70.5548 46.4065 70.5636C46.403 70.5653 46.3995 70.5671 46.396 70.5706C46.4117 70.5601 46.4275 70.5478 46.4432 70.5391Z" fill="url(#paint2_linear_22_1383)"/>
<path d="M46.3783 70.5828C46.3871 70.5758 46.3976 70.5688 46.4063 70.5635C46.7948 70.3115 47.2393 70.1663 47.7171 70.119C48.3068 70.0613 48.9456 70.154 49.5896 70.3833C49.6491 70.3448 49.7068 70.301 49.7611 70.2538C49.8258 70.2013 49.8906 70.1488 49.9536 70.098C50.2441 69.8635 50.5311 69.6238 50.8181 69.384C51.1033 69.1443 51.3903 68.9028 51.6703 68.6578C51.6651 68.6578 51.9923 68.334 52.0203 68.3445C51.0193 67.9858 50.0201 67.9543 49.2046 68.3218C48.5203 68.6315 47.9656 69.2283 47.3968 69.7218C46.7966 70.2065 46.4186 70.5128 46.2646 70.6458C46.2593 70.651 46.2523 70.6563 46.2453 70.6615C46.2401 70.6668 46.2331 70.672 46.2296 70.6755C46.2138 70.6895 46.1981 70.7053 46.1841 70.7193C46.1893 70.7193 46.2436 70.6808 46.3468 70.6038C46.3573 70.5985 46.3678 70.5898 46.3783 70.5828Z" fill="#FFA761"/>
<path d="M29.3545 81.2805C29.358 81.34 28.987 81.6112 29.008 81.592C28.7245 81.837 28.4375 82.0785 28.1522 82.3182C27.8652 82.558 27.5782 82.7977 27.2877 83.034C27.223 83.0865 27.16 83.1372 27.0952 83.1897C27.041 83.237 26.9832 83.2807 26.922 83.3192C26.8135 81.6375 26.9027 79.9435 27.783 78.9005C27.8792 78.7867 27.9825 78.6835 28.0892 78.5837C28.1365 78.54 28.378 78.3667 28.4252 78.3352C28.5845 78.232 28.7525 78.141 28.9257 78.064C29.169 77.9537 29.4227 77.8715 29.6835 77.8085C29.3107 78.7955 29.274 80.031 29.3545 81.2805Z" fill="#F05222"/>
<path d="M30.3468 76.7183C30.3433 76.7218 30.3398 76.727 30.3363 76.7305C30.3363 76.7305 30.3346 76.7305 30.3311 76.734C30.3363 76.7288 30.3416 76.7235 30.3468 76.7183Z" fill="#FFA761"/>
<path d="M42.4339 79.1858C42.7279 79.037 42.9974 78.848 43.2564 78.6398C43.5994 78.365 43.9214 78.0588 44.2399 77.7736C44.5689 77.4796 45.1919 76.9703 45.2672 76.9055C45.2497 76.9178 45.2322 76.9283 45.2164 76.9406C45.2217 76.9371 45.2269 76.9336 45.2322 76.9301C45.2164 76.9406 45.2007 76.9511 45.1849 76.9616C45.1954 76.9546 45.2042 76.9458 45.2164 76.9388C45.0799 77.028 44.9399 77.1068 44.7947 77.1785C44.5444 77.2975 44.2819 77.3885 44.0107 77.4585C43.0744 77.6983 42.0297 77.6563 40.9692 77.4498C39.6654 77.1978 38.3459 76.7253 37.0317 76.3228C35.7384 75.9291 34.4329 75.5895 33.2062 75.621C32.5937 75.6368 32.0057 75.7488 31.4702 75.9728C30.7457 76.2738 30.1927 76.8408 29.5907 77.3413C29.1619 77.6983 28.7332 78.0535 28.3062 78.414C28.3132 78.4088 28.3202 78.4053 28.3289 78.3983C28.3552 78.379 28.3814 78.3598 28.4094 78.3406C28.4129 78.3388 28.4164 78.3353 28.4199 78.3353C28.4199 78.3353 28.4199 78.3335 28.4217 78.3335C28.5827 78.232 28.7489 78.1411 28.9222 78.0623C29.1654 77.9538 29.4192 77.8698 29.6799 77.8068C30.7684 77.5478 31.9934 77.6791 33.2272 77.9801C34.7707 78.3581 36.3299 78.9671 37.8752 79.3433C39.5009 79.7441 41.1214 79.849 42.4339 79.1858Z" fill="#FFA761"/>
<path d="M45.2779 76.9002C45.2587 76.9142 45.2377 76.9282 45.2184 76.9422C45.0837 77.0315 44.9419 77.112 44.7967 77.182C44.5464 77.3027 44.2839 77.3937 44.0127 77.4637C44.4292 76.5257 44.6024 75.3795 44.7984 74.277C44.8754 73.8412 44.9577 73.4072 45.0574 72.9855C45.1607 72.5427 45.2692 72.0947 45.4477 71.708C45.6314 71.3055 45.8904 70.9975 46.1862 70.7227C46.1879 70.7245 46.2422 70.6877 46.3489 70.6072C46.3594 70.6002 46.3699 70.5915 46.3804 70.5845C46.3892 70.5775 46.3997 70.5722 46.4084 70.5652C46.7969 70.3132 47.2414 70.168 47.7174 70.1207C47.5879 70.504 47.4934 70.917 47.4042 71.3352C47.2292 72.1647 47.1084 73.0292 46.9317 73.857C46.7654 74.634 46.5414 75.3812 46.1564 75.9815C45.8869 76.4015 45.2972 76.8862 45.2779 76.9002Z" fill="#F05222"/>
<path d="M46.2663 70.6455C46.2383 70.67 46.2121 70.6945 46.1858 70.7208C46.1823 70.719 46.2103 70.6928 46.2663 70.6455Z" fill="url(#paint3_linear_22_1383)"/>
<path d="M116.655 113.633C116.661 113.631 116.666 113.629 116.669 113.627C116.671 113.627 116.673 113.626 116.675 113.626C116.668 113.627 116.662 113.631 116.655 113.633Z" fill="url(#paint4_linear_22_1383)"/>
<path d="M118.569 113.811C118.557 113.815 118.545 113.818 118.533 113.822C118.534 113.822 118.547 113.818 118.569 113.811Z" fill="url(#paint5_linear_22_1383)"/>
<path d="M115.848 113.893C115.85 113.893 115.852 113.892 115.855 113.892C115.859 113.89 115.864 113.89 115.867 113.888C115.86 113.89 115.853 113.892 115.848 113.893Z" fill="url(#paint6_linear_22_1383)"/>
<path d="M116.695 113.617C116.7 113.615 116.707 113.613 116.713 113.61C116.723 113.606 116.718 113.608 116.7 113.615C116.412 113.715 116.119 113.809 115.825 113.897C115.824 113.897 115.771 113.913 115.799 113.906C115.806 113.904 115.811 113.902 115.818 113.9C115.831 113.897 115.841 113.893 115.853 113.892C116.007 113.853 116.167 113.827 116.324 113.815C116.427 113.739 116.543 113.676 116.669 113.627C116.678 113.624 116.686 113.62 116.695 113.617Z" fill="url(#paint7_linear_22_1383)"/>
<path d="M116.743 113.584C116.752 113.58 116.687 113.62 116.694 113.617C116.699 113.615 116.748 113.587 116.773 113.573C116.767 113.573 116.762 113.575 116.757 113.575C116.564 113.64 116.333 113.697 116.115 113.755C116.06 113.774 116.006 113.792 115.952 113.809C115.898 113.827 115.847 113.85 115.798 113.874C115.952 113.837 116.169 113.823 116.325 113.811C116.43 113.739 116.619 113.634 116.743 113.584Z" fill="url(#paint8_linear_22_1383)"/>
<path d="M119.541 113.494C119.537 113.494 119.534 113.496 119.53 113.496C119.525 113.496 119.521 113.5 119.518 113.5C119.511 113.501 119.504 113.503 119.499 113.505C119.5 113.505 119.504 113.503 119.506 113.503C119.499 113.505 119.492 113.507 119.486 113.508C119.492 113.507 119.493 113.507 119.499 113.505C119.339 113.545 119.18 113.561 119.024 113.564C118.68 113.57 118.37 113.554 118.023 113.529C117.647 113.503 117.241 113.519 116.861 113.561C116.842 113.564 116.795 113.571 116.767 113.577C116.756 113.578 116.748 113.58 116.746 113.582C116.746 113.582 116.741 113.584 116.734 113.587C116.728 113.589 116.721 113.592 116.713 113.596C116.711 113.596 116.707 113.598 116.704 113.599C116.672 113.613 116.641 113.629 116.608 113.645H116.606C116.606 113.645 116.606 113.645 116.604 113.645C116.602 113.645 116.602 113.647 116.601 113.648C116.601 113.648 116.601 113.648 116.599 113.648C116.597 113.648 116.595 113.65 116.594 113.652C116.592 113.652 116.59 113.654 116.587 113.654C116.581 113.657 116.576 113.661 116.569 113.664C116.567 113.664 116.566 113.666 116.564 113.666C116.555 113.671 116.545 113.676 116.536 113.682C116.524 113.689 116.511 113.696 116.499 113.701C116.49 113.706 116.48 113.711 116.471 113.717C116.454 113.727 116.436 113.738 116.417 113.748C116.412 113.752 116.408 113.753 116.403 113.757C116.401 113.757 116.401 113.757 116.401 113.759C116.401 113.759 116.401 113.76 116.399 113.76C116.399 113.76 116.399 113.76 116.398 113.76C116.396 113.762 116.394 113.762 116.392 113.764C116.382 113.771 116.37 113.778 116.359 113.785C116.357 113.785 116.356 113.787 116.354 113.788C116.354 113.788 116.352 113.79 116.35 113.79C116.35 113.79 116.35 113.79 116.349 113.79C116.347 113.792 116.345 113.792 116.343 113.794C116.343 113.794 116.342 113.794 116.342 113.795C116.336 113.799 116.329 113.802 116.324 113.806C116.42 113.799 116.515 113.795 116.609 113.795C116.902 113.799 117.185 113.843 117.47 113.872C117.754 113.902 118.046 113.92 118.337 113.862C118.403 113.85 118.47 113.832 118.534 113.813C118.541 113.811 118.55 113.809 118.557 113.806C118.723 113.757 118.891 113.71 119.056 113.654C119.376 113.554 119.514 113.505 119.591 113.473C119.597 113.472 119.604 113.47 119.609 113.466C119.598 113.477 119.576 113.484 119.541 113.494Z" fill="#F05222"/>
<path d="M118.636 113.783C118.631 113.785 118.627 113.787 118.624 113.788C118.622 113.788 118.62 113.79 118.619 113.79C118.624 113.788 118.631 113.787 118.636 113.783Z" fill="url(#paint9_linear_22_1383)"/>
<path d="M119.506 113.505C119.504 113.505 119.501 113.507 119.499 113.507C119.496 113.509 119.492 113.509 119.487 113.51C119.492 113.509 119.499 113.507 119.506 113.505Z" fill="url(#paint10_linear_22_1383)"/>
<path d="M119.518 113.501C119.523 113.5 119.527 113.498 119.53 113.498C119.592 113.484 119.572 113.491 119.658 113.458C119.789 113.407 119.914 113.342 120.027 113.265C120.197 113.15 120.342 113.008 120.433 112.847C120.517 112.7 120.554 112.542 120.549 112.387C120.54 112.056 120.36 111.75 120.12 111.506C119.872 111.254 119.541 111.048 119.158 110.945C119.114 110.932 119.07 110.922 119.025 110.913C119.009 110.917 118.993 110.922 118.977 110.927C118.941 110.938 118.904 110.95 118.867 110.962C118.741 111.001 118.615 111.043 118.489 111.083C118.363 111.123 118.237 111.163 118.113 111.205C118.085 111.214 118.057 111.225 118.029 111.233C118.004 111.24 117.98 111.249 117.957 111.26C118.47 111.361 118.906 111.652 119.186 112.003C119.45 112.336 119.597 112.782 119.366 113.193C119.285 113.335 119.165 113.463 119.021 113.571C119.179 113.568 119.336 113.552 119.495 113.512C119.504 113.505 119.511 113.503 119.518 113.501Z" fill="#FF931E"/>
<path d="M115.558 116.916C115.684 116.877 115.81 116.835 115.934 116.795C116.06 116.755 116.184 116.714 116.31 116.672C116.326 116.667 116.463 116.616 116.466 116.62C116.151 116.266 115.941 115.839 115.841 115.397C115.75 114.987 115.747 114.513 116.023 114.116C116.104 114.002 116.205 113.9 116.324 113.815C116.498 113.689 116.743 113.584 116.743 113.584C115.878 113.776 114.935 114.119 114.758 114.922C114.683 115.267 114.728 115.615 114.83 115.939C114.933 116.272 115.098 116.59 115.323 116.87C115.348 116.902 115.374 116.931 115.4 116.963C115.404 116.968 115.579 116.91 115.558 116.916Z" fill="#FF931E"/>
<path d="M106.262 95.7932C106.516 95.9314 106.824 96.0172 107.144 96.0732C107.511 96.1379 107.924 96.1414 108.374 96.0224C108.626 95.9559 108.883 95.8527 109.13 95.7197C109.219 95.6724 109.305 95.6199 109.391 95.5657C109.391 95.5657 109.226 95.4414 109.249 95.4572C109.134 95.3714 109.016 95.2892 108.899 95.2052C108.78 95.1212 108.663 95.0389 108.544 94.9567C108.528 94.9462 108.406 94.8499 108.393 94.8569C107.517 95.4222 106.566 95.5027 105.866 95.3277C105.824 95.3172 105.782 95.3049 105.742 95.2927C105.81 95.4029 105.9 95.5184 105.998 95.6094C106.076 95.6794 106.166 95.7407 106.262 95.7932Z" fill="#542578"/>
<path d="M105.325 95.123C105.322 95.1213 105.317 95.1178 105.313 95.1161C105.311 95.1143 105.308 95.1143 105.306 95.1125C105.313 95.116 105.32 95.1195 105.325 95.123Z" fill="url(#paint11_linear_22_1383)"/>
<path d="M106.061 95.655C106.059 95.6532 106.057 95.6532 106.055 95.6515C106.048 95.6462 106.041 95.641 106.031 95.6322C106.041 95.6392 106.052 95.648 106.061 95.655Z" fill="url(#paint12_linear_22_1383)"/>
<path d="M105.996 95.6007C105.994 95.599 105.992 95.5972 105.99 95.5955C105.987 95.592 105.983 95.5885 105.978 95.585C105.983 95.5902 105.989 95.5955 105.996 95.6007Z" fill="url(#paint13_linear_22_1383)"/>
<path d="M105.606 93.422C105.721 92.9687 105.914 92.4997 106.164 92.0342C106.376 91.6405 106.624 91.2432 106.913 90.8582C106.424 90.8512 105.933 90.8512 105.432 90.8652C105.021 91.5355 104.711 92.2162 104.571 92.8655C104.422 93.5497 104.468 94.206 104.808 94.6785C105.089 95.0705 105.499 95.508 106.395 95.8545C105.479 95.501 105.355 94.4072 105.606 93.422Z" fill="#8654D8"/>
<path d="M84.8276 37.6722C84.8276 37.6775 84.8294 37.681 84.8294 37.6862C84.8294 37.688 84.8294 37.6897 84.8294 37.6932C84.8294 37.6862 84.8294 37.6792 84.8276 37.6722Z" fill="url(#paint14_linear_22_1383)"/>
<path d="M80.4842 34.6377C80.4842 34.643 80.4859 34.6465 80.4859 34.6517C80.4842 34.6447 80.4842 34.6377 80.4824 34.6307L80.4842 34.6377Z" fill="#8654D8"/>
<path d="M54.395 83.4504C54.3968 83.4487 54.3985 83.4452 54.4003 83.4434C54.402 83.4417 54.402 83.4417 54.402 83.4399C54.4003 83.4434 54.3968 83.4469 54.395 83.4504Z" fill="black"/>
<path d="M54.4021 83.44C54.4021 83.4417 54.4004 83.4417 54.4004 83.4435C54.4021 83.4417 54.4056 83.4382 54.4074 83.4347C54.4109 83.4295 54.4161 83.4225 54.4196 83.4172C54.4144 83.4242 54.4091 83.433 54.4021 83.44Z" fill="black"/>
<path d="M36.9511 104.473C36.8636 103.843 36.8689 103.191 37.0176 102.571C36.7674 102.75 36.5416 102.967 36.3509 103.212C36.3421 103.224 36.3334 103.236 36.3246 103.248C36.2546 103.345 36.1881 103.434 36.1321 103.539C36.0726 103.651 36.0166 103.766 35.9641 103.882C35.8626 104.113 35.7786 104.353 35.7244 104.599C35.4776 105.73 35.6859 106.929 36.0919 107.994C36.9161 110.164 38.6154 111.956 40.6874 112.954C41.1914 113.197 41.7199 113.391 42.2606 113.535C42.2746 113.538 42.4794 113.215 42.4531 113.253C42.6054 113.026 42.7559 112.796 42.9064 112.565C43.0569 112.336 43.2056 112.105 43.3526 111.874C43.3719 111.844 43.5241 111.582 43.5329 111.584C41.8826 111.143 40.3741 110.224 39.2034 108.971C38.0519 107.746 37.1874 106.16 36.9511 104.473Z" fill="#BE4326"/>
<path d="M40.3951 100.072C40.3829 100.018 40.3724 99.9652 40.3636 99.9109C40.2149 99.5067 40.1064 99.0884 40.0574 98.6579C40.0049 98.2047 40.0119 97.7409 40.0994 97.2947C39.8369 97.4574 39.6041 97.6657 39.4029 97.9194C39.3941 97.9299 39.3871 97.9422 39.3784 97.9527C39.2069 98.1679 39.1281 98.3062 38.9986 98.6369C38.7869 99.1759 38.7204 99.7622 38.7571 100.345C39.2664 100.107 39.8316 100.04 40.3951 100.072Z" fill="#BE4326"/>
<path d="M44.0212 104.118C44.0195 104.116 44.0195 104.116 44.0177 104.114C43.869 104.102 43.7237 104.072 43.5837 104.027C42.7752 103.901 42.168 103.33 41.6832 102.683C41.0987 102.433 40.488 102.231 39.8632 102.112C39.6287 102.069 39.389 102.035 39.1475 102.021C39.592 103.124 40.3602 104.106 41.286 104.834C41.7812 105.224 42.3342 105.551 42.9257 105.772C43.1777 105.864 43.4402 105.954 43.7027 106.013C43.9197 106.062 44.1997 106.108 44.4027 105.985C44.4535 105.954 44.4955 105.913 44.534 105.868C44.5742 105.819 44.5812 105.798 44.5882 105.782C44.8962 105.142 44.4867 104.54 44.0212 104.118Z" fill="#BE4326"/>
<path d="M42.075 95.0407C42.5563 94.9182 43.055 94.9042 43.5538 94.9479C43.3963 94.7082 43.258 94.4544 43.1583 94.1832C43.0323 93.8454 42.9693 93.4814 42.9833 93.1227C42.6735 93.2749 42.3935 93.4919 42.159 93.7912C42.1678 93.7807 42.1765 93.7684 42.1835 93.7579C42.1345 93.8227 42.1048 93.8577 42.0925 93.8682C42.0768 93.8962 42.0575 93.9224 42.0418 93.9504C41.9018 94.1849 41.7985 94.4352 41.7478 94.7064C41.7198 94.8587 41.7075 95.0127 41.7075 95.1649C41.8248 95.1159 41.949 95.0722 42.075 95.0407Z" fill="#BE4326"/>
<path d="M49.8606 89.6122C49.4336 89.0802 48.8894 88.48 48.7511 87.8132C48.7511 87.8132 48.7091 87.829 48.7039 87.829C48.3311 87.9672 47.9881 88.2192 47.7501 88.5465C47.5979 88.7582 47.4894 88.9997 47.4544 89.2587C47.3581 89.9762 47.7939 90.6027 48.2331 91.133C48.5551 91.189 48.8789 91.2467 49.2026 91.2922C49.2184 91.294 49.2341 91.2975 49.2499 91.2992C49.2674 91.301 49.2831 91.3045 49.2989 91.3062C49.3164 91.308 49.3321 91.3115 49.3496 91.315C49.3671 91.3167 49.3846 91.3202 49.4021 91.3237C49.4196 91.3272 49.4389 91.329 49.4564 91.3325C49.4756 91.336 49.4931 91.3377 49.5106 91.3395C49.5281 91.3412 49.5474 91.3447 49.5666 91.3465C49.5859 91.3482 49.6034 91.35 49.6226 91.3517C49.6419 91.3535 49.6594 91.3552 49.6786 91.357C49.6979 91.3587 49.7154 91.3605 49.7346 91.3605C49.7539 91.3622 49.7714 91.3622 49.7906 91.3622C49.8099 91.3622 49.8274 91.3622 49.8466 91.3622C49.8659 91.3622 49.8834 91.3605 49.9009 91.3605C49.9184 91.3587 49.9376 91.3587 49.9551 91.357C49.9726 91.3552 49.9901 91.3535 50.0076 91.35C50.0251 91.3465 50.0426 91.343 50.0601 91.3395C50.0776 91.336 50.0934 91.3307 50.1109 91.3255C50.1266 91.3202 50.1441 91.315 50.1599 91.3097C50.1756 91.3045 50.1914 91.2975 50.2071 91.2887C50.2229 91.2817 50.2369 91.273 50.2509 91.2642C50.2649 91.2555 50.2789 91.245 50.2929 91.2362C50.3069 91.2257 50.3191 91.2152 50.3314 91.203C50.3436 91.1907 50.3559 91.1785 50.3681 91.1645C50.3786 91.1522 50.3874 91.14 50.3961 91.1277C50.4119 91.105 50.4294 91.077 50.4399 91.0507C50.5029 90.9037 50.4889 90.7392 50.4451 90.5887C50.3401 90.2265 50.0934 89.9045 49.8606 89.6122Z" fill="#BE4326"/>
<path d="M47.3023 98.5495C47.2218 98.623 47.1711 98.7123 46.6093 98.4743C45.9303 98.1855 45.4858 97.7253 45.0868 97.237C44.8383 97.16 44.5881 97.09 44.3361 97.0253C43.7533 96.8713 43.1688 96.719 42.5738 96.6228C42.3778 96.5913 42.1783 96.565 41.9771 96.5458C42.2256 96.922 42.8311 97.6203 43.1391 97.9458C43.6186 98.4533 44.1366 98.931 44.7228 99.3108C45.1358 99.5768 45.5803 99.8148 46.0546 99.946C46.3556 100.028 46.6898 100.072 46.9943 99.9828C47.1991 99.9233 47.3426 99.8533 47.4756 99.6275C47.6051 99.3633 47.6401 99.05 47.4966 98.8155C47.4423 98.721 47.3758 98.6335 47.3023 98.5495Z" fill="#BE4326"/>
<path d="M43.2407 92.127L43.239 92.1287C43.2337 92.1392 43.2267 92.1497 43.2197 92.162C43.2285 92.1515 43.2355 92.1392 43.2407 92.127Z" fill="#BB0059"/>
<path d="M48.874 86.8403C48.881 86.8298 48.8863 86.8193 48.8898 86.814C48.8915 86.8105 48.8915 86.8088 48.8933 86.8053C48.888 86.8158 48.881 86.828 48.874 86.8403Z" fill="#BB0059"/>
<path d="M48.6955 97.7655C48.6937 97.769 48.6902 97.7725 48.6885 97.776C48.6937 97.769 48.699 97.762 48.7025 97.7567C48.7007 97.7602 48.6972 97.762 48.6955 97.7655Z" fill="#BB0059"/>
<path d="M47.7822 88.508C47.784 88.5045 47.7875 88.5027 47.7892 88.4992C47.7945 88.4922 47.7997 88.4852 47.8067 88.4747C47.7997 88.4852 47.791 88.4957 47.7822 88.508Z" fill="#BB0059"/>
<path d="M48.6957 97.7655C48.6905 97.7743 48.6835 97.7813 48.6782 97.79C48.6817 97.7865 48.6852 97.7813 48.6887 97.776C48.6905 97.7725 48.6922 97.769 48.6957 97.7655Z" fill="#BB0059"/>
<path d="M37.3467 101.691C37.3519 101.682 37.3572 101.673 37.3624 101.665C37.3642 101.661 37.3659 101.658 37.3677 101.656C37.3589 101.666 37.3519 101.679 37.3467 101.691Z" fill="#BB0059"/>
<path d="M40.4688 96.257C40.4775 96.2448 40.4862 96.2308 40.495 96.2185C40.4897 96.2255 40.481 96.2378 40.4688 96.257Z" fill="#BB0059"/>
<path d="M36.3442 103.219C36.346 103.217 36.3495 103.213 36.3512 103.212C36.3582 103.203 36.3635 103.194 36.3705 103.185C36.3617 103.198 36.353 103.208 36.3442 103.219Z" fill="#BB0059"/>
<path d="M39.3979 97.9247C39.3997 97.923 39.4014 97.9212 39.4032 97.9195C39.4102 97.9107 39.4172 97.9002 39.4242 97.8915C39.4137 97.902 39.4049 97.9142 39.3979 97.9247Z" fill="#BB0059"/>
<path d="M40.4058 96.3883C40.4128 96.3761 40.418 96.3638 40.425 96.3516C40.4198 96.3638 40.4128 96.3761 40.4058 96.3883Z" fill="#BB0059"/>
<path d="M49.1489 93.037C49.1524 93.0335 49.1542 93.0283 49.1577 93.0248C49.1594 93.0213 49.1612 93.0178 49.1629 93.0143C49.1577 93.0213 49.1542 93.03 49.1489 93.037Z" fill="#BB0059"/>
<path d="M46.7267 95.5325C45.0152 94.871 42.2782 94.2218 40.8327 95.781C40.7435 95.8773 40.6612 95.9805 40.5842 96.0873C40.5527 96.1293 40.5247 96.173 40.495 96.2168C40.4862 96.229 40.4775 96.243 40.4687 96.2553C40.3952 96.3655 40.208 96.6578 39.9087 97.1355C39.3452 97.9685 39.1667 98.2397 39.3767 97.951C39.3855 97.9405 39.3925 97.93 39.4012 97.9178C39.6007 97.664 39.8352 97.454 40.0977 97.293C41.503 96.4233 43.6467 96.8083 45.0957 97.356C45.7992 97.622 48.0165 98.5093 47.4775 99.6293C47.4845 99.617 47.4915 99.6047 47.4967 99.5925C47.5072 99.5767 47.5177 99.5593 47.5282 99.5435C47.915 98.9538 48.3 98.3657 48.6867 97.776C48.7007 97.7602 48.7112 97.7445 48.7217 97.7288C49.3587 96.7838 47.3392 95.7705 46.7267 95.5325Z" fill="#EB5647"/>
<path d="M45.1342 102.058C44.1472 101.204 42.9169 100.622 41.6639 100.286C41.2667 100.179 40.8449 100.098 40.4214 100.072C39.8492 100.037 39.2752 100.102 38.7554 100.343C38.7064 100.366 38.6574 100.389 38.6102 100.415C38.1079 100.686 37.7562 101.084 37.4394 101.526C37.4062 101.572 37.0824 102.071 36.8532 102.435C36.2914 103.266 36.0902 103.586 36.3247 103.247C36.3334 103.234 36.3422 103.222 36.3509 103.21C36.5434 102.965 36.7674 102.748 37.0177 102.569C37.3099 102.361 37.6354 102.204 37.9872 102.114C38.3669 102.02 38.7589 101.997 39.1492 102.022C39.3889 102.036 39.6287 102.069 39.8649 102.113C40.5614 102.244 41.2422 102.48 41.8879 102.771C42.6334 103.107 43.3439 103.537 43.9547 104.087C44.2084 104.316 44.5059 104.608 44.6127 104.949C44.7002 105.229 44.7229 105.516 44.5899 105.782C44.5969 105.77 44.6039 105.758 44.6109 105.746C44.6949 105.614 44.7772 105.485 44.8612 105.355C45.1727 104.881 45.4842 104.409 45.7974 103.934C45.7992 103.933 45.7992 103.931 45.8009 103.929C46.2892 103.177 45.6364 102.494 45.1342 102.058Z" fill="#EB5647"/>
<path d="M49.2012 91.294C48.8774 91.2485 48.5554 91.1908 48.2317 91.1348C48.1564 91.1208 48.0812 91.1085 48.0077 91.0945C47.1729 90.951 46.3189 90.8093 45.4702 90.874C44.6897 90.9318 43.9284 91.203 43.4314 91.8418C43.3772 91.91 43.3264 91.9818 43.2774 92.0535C43.2267 92.127 43.1777 92.2005 43.1287 92.2758C42.7769 92.8025 42.3744 93.3975 42.0454 93.9383C42.0559 93.9295 42.1137 93.849 42.1609 93.786C42.3954 93.4885 42.6737 93.275 42.9817 93.1228C44.0894 92.5768 45.5787 92.8445 46.7354 93.044C47.1327 93.1123 47.5299 93.1875 47.9289 93.2418C48.2877 93.2925 48.8407 93.4308 49.1032 93.1053C49.1609 93.0353 49.1557 93.023 49.1557 93.023C49.1522 93.0265 49.1504 93.0318 49.1469 93.0353C49.1522 93.0283 49.1557 93.0195 49.1609 93.0125C49.1592 93.016 49.1574 93.0195 49.1557 93.023C49.5582 92.4053 50.3684 91.1645 50.3737 91.1575C50.1112 91.4795 49.5599 91.3448 49.2012 91.294Z" fill="#EB5647"/>
<path d="M53.0581 86.0807C53.0389 86.0755 53.0214 86.072 53.0021 86.0667C52.0589 85.8322 51.0281 85.5347 50.0656 85.855C49.6404 85.9967 49.2659 86.2662 48.9981 86.6302C48.9579 86.681 48.8861 86.814 48.8861 86.814C48.5361 87.3495 47.8414 88.4135 47.7906 88.494C47.7959 88.487 47.8011 88.4817 47.8046 88.4747C47.7976 88.4852 47.7924 88.4922 47.7871 88.4992C48.0671 88.1527 48.3926 87.9375 48.7496 87.815C49.5039 87.5542 50.3859 87.7047 51.2206 87.8972C51.7719 87.2357 52.4019 86.6372 53.0581 86.0807Z" fill="#EB5647"/>
<path d="M47.7822 88.508C47.784 88.5045 47.7875 88.5028 47.7892 88.4993C47.7892 88.501 47.791 88.4975 47.7927 88.494C47.7892 88.4975 47.7857 88.5028 47.7822 88.508Z" fill="#F04163"/>
<path d="M48.8896 86.814C48.8913 86.8105 48.8913 86.8088 48.8931 86.8053C48.8861 86.8175 48.8791 86.8298 48.8721 86.842C48.8808 86.8298 48.8861 86.8193 48.8896 86.814Z" fill="#F04163"/>
<path d="M54.6681 87.6138C54.6681 87.6155 54.6664 87.6155 54.6664 87.6173C54.6646 87.6208 54.6629 87.6243 54.6611 87.6278C54.6629 87.6225 54.6664 87.619 54.6681 87.6138Z" fill="#F04163"/>
<path d="M43.2409 92.1305C43.2409 92.1288 43.2427 92.1288 43.2427 92.1288C43.2357 92.141 43.2287 92.1533 43.2217 92.1655C43.2287 92.1515 43.2357 92.141 43.2409 92.1305Z" fill="#F04163"/>
<path d="M29.5315 40.8415C29.052 40.9342 28.5865 41.104 28.142 41.328C28.1245 40.467 27.8847 39.6357 27.2372 38.9882C27.0622 38.8132 26.8645 38.661 26.6527 38.5315C26.7385 38.5402 26.8225 38.5507 26.9065 38.5647C27.0062 38.5822 27.1077 38.6015 27.2057 38.626C27.2442 38.6365 27.2827 38.647 27.323 38.6575C27.4175 38.682 27.4507 38.689 27.75 38.8062C28.3065 39.0267 28.779 39.4345 29.1185 39.928C29.3145 40.2097 29.4457 40.5177 29.5315 40.8415ZM26.7315 45.9357C26.5967 46.1405 26.4515 46.34 26.2975 46.5307C26.1925 46.6585 26.084 46.802 25.958 46.9157C25.9527 46.9192 25.9562 46.9507 25.9562 46.9577C25.9562 46.9717 25.9562 46.9857 25.9562 46.9997C25.9562 47.0277 25.958 47.0557 25.9597 47.0837C25.9632 47.1362 25.972 47.1905 25.986 47.2412C26.0105 47.3392 26.0542 47.4302 26.1242 47.5055C26.1522 47.5352 26.1855 47.5632 26.2205 47.5842C26.2502 47.6035 26.2817 47.6245 26.3167 47.635C26.3517 47.6472 26.3885 47.656 26.427 47.663C26.5985 47.6962 26.7682 47.698 26.9467 47.6612C27.4927 47.5457 27.8235 47.0365 28.1245 46.6042C28.8525 45.5595 29.318 44.3135 29.5455 43.0657C29.619 42.6667 29.6645 42.2467 29.6592 41.8285C29.0205 42.1452 28.436 42.5757 27.9285 43.0797C27.9215 43.1042 27.9162 43.1305 27.9092 43.1567C27.659 44.1332 27.2845 45.0887 26.7315 45.9357ZM34.9232 43.4507C34.8742 43.2355 34.8042 43.0272 34.7115 42.826C34.4892 42.3482 34.1077 41.9545 33.6562 41.6885C33.4322 41.5572 33.1907 41.4662 32.9457 41.3822C32.944 41.3857 32.9177 41.3822 32.8547 41.3665C32.8075 41.3542 32.7602 41.3437 32.713 41.335C32.636 41.3192 32.5607 41.307 32.4837 41.2965C32.412 41.286 32.3402 41.2807 32.2685 41.2755C32.6815 41.5467 33.0227 41.9212 33.2257 42.3797C33.4655 42.9222 33.5407 43.5172 33.532 44.1175C33.7122 43.9775 33.903 43.8497 34.106 43.743C34.3615 43.6047 34.638 43.5067 34.9232 43.4507ZM39.2177 48.9545C39.3035 48.09 39.3875 47.2097 39.2755 46.3435C39.174 45.5542 38.8712 44.7755 38.2027 44.2995C37.9945 44.1507 37.7705 44.051 37.529 43.967C37.5167 43.9635 37.5062 43.9582 37.494 43.9547C37.48 43.9565 37.4467 43.953 37.3872 43.9407C37.3242 43.9285 37.2612 43.918 37.2 43.911C37.095 43.8987 36.9882 43.8935 36.8815 43.8952C36.857 43.8952 36.8342 43.897 36.8097 43.8987C36.9182 43.9845 37.0197 44.079 37.1107 44.1875C37.9315 45.1517 37.8667 46.5937 37.774 47.775C37.725 48.4015 37.6427 49.0245 37.606 49.6527C37.5885 49.945 37.536 50.3195 37.6795 50.5837C37.7215 50.6607 37.7775 50.715 37.844 50.7552C37.8965 50.7885 37.9402 50.8042 37.9822 50.8182C38.3655 50.9285 38.7855 50.6187 39.1005 50.3405C39.104 50.2792 39.1092 50.2197 39.111 50.1655C39.1337 49.7595 39.1775 49.357 39.2177 48.9545ZM32.209 49.2152C32.2282 49.5442 32.3525 49.959 32.6815 50.0885C32.6972 50.0937 32.6937 50.0937 32.7637 50.1077C32.8845 50.1322 33.0052 50.1305 33.14 50.0832C33.5285 49.9467 33.8732 49.5967 34.0692 49.2415C34.414 48.615 34.5627 47.8887 34.694 47.1922C34.7832 46.711 34.8742 46.228 34.9372 45.7432C34.9862 45.3775 35.0247 44.996 35.0317 44.6127C34.6415 44.9172 34.2932 45.2847 33.9695 45.647C33.6965 45.9532 33.4392 46.2752 33.2065 46.6112C33.0805 47.3165 32.9265 48.0235 32.6062 48.6622C32.5152 48.8407 32.377 49.042 32.209 49.2152ZM49.9155 57.7885C50.43 57.274 50.0257 56.3815 49.5602 55.979C49.4325 55.8687 49.2907 55.7987 49.1332 55.7427C49.1262 55.741 49.1192 55.7375 49.1105 55.7357C49.0877 55.7375 49.0457 55.734 48.9827 55.727C48.9512 55.7252 48.918 55.7235 48.8865 55.7252C48.8322 55.727 48.778 55.7322 48.7255 55.741C48.617 55.7585 48.512 55.7865 48.407 55.8197C48.3912 55.825 48.3755 55.832 48.3597 55.8372C48.673 56.294 48.7972 56.9047 48.407 57.295C48.4105 57.2915 48.659 57.3825 48.6257 57.372C48.8025 57.4315 48.981 57.491 49.1577 57.5487C49.3345 57.6065 49.513 57.6642 49.6915 57.7202C49.7212 57.7307 49.8997 57.8042 49.9155 57.7885ZM44.6672 56.1137C44.711 56.1102 44.753 56.1015 44.795 56.0962C44.6567 55.9107 44.5762 55.6885 44.536 55.4522C44.2822 53.9087 45.1572 52.3827 44.7425 50.8427C44.5762 50.225 44.165 49.658 43.5682 49.4007C43.5507 49.3937 43.535 49.3867 43.5175 49.3797C43.3442 49.315 43.3495 49.3272 43.3197 49.3202C43.0957 49.2677 42.8787 49.273 42.6687 49.3185C43.0292 49.7 43.2427 50.239 43.3092 50.7342C43.43 51.6092 43.2147 52.4807 43.0817 53.34C42.9662 54.0855 42.7912 55.202 43.4317 55.769C43.5612 55.8827 43.7117 55.9615 43.8727 56.0227C43.9077 56.0367 43.9445 56.049 43.9812 56.063C43.9952 56.063 44.018 56.0665 44.0547 56.0735C44.0985 56.0822 44.1422 56.091 44.186 56.098C44.3487 56.1207 44.508 56.1242 44.6672 56.1137Z" fill="#FC9F00"/>
<path d="M31.3042 49.637C31.3112 49.6387 31.3199 49.6422 31.3269 49.644C31.3322 49.6457 31.3374 49.6475 31.3409 49.6475C31.3287 49.644 31.3164 49.6405 31.3042 49.637Z" fill="black"/>
<path d="M26.2183 47.6C26.2235 47.6017 26.2288 47.6035 26.234 47.6052C26.2428 47.6087 26.2515 47.6105 26.2585 47.614C26.2445 47.6087 26.2323 47.6035 26.2183 47.6Z" fill="black"/>
<path d="M26.3202 47.6368C26.2922 47.6263 26.252 47.6105 26.2607 47.614C26.2467 47.6088 26.2327 47.6053 26.2187 47.6C26.224 47.6018 25.5047 47.3673 25.0305 47.2133C25.0235 47.2133 25.0182 47.2133 25.0112 47.215C24.9062 47.18 24.7925 47.1485 24.698 47.089C24.2675 46.8125 24.502 46.0933 24.5982 45.7013C24.754 45.073 25.0077 44.478 25.3472 43.9268C25.9877 42.8838 26.987 41.9143 28.142 41.3298C28.5865 41.104 29.052 40.936 29.5315 40.8433C30.0985 40.733 30.6812 40.726 31.2622 40.8555C31.4197 40.8905 31.5737 40.9343 31.7295 40.9798C32.0672 41.0813 32.4015 41.202 32.734 41.3123C32.8057 41.3368 32.8757 41.3595 32.9475 41.384C32.9457 41.3875 32.9195 41.384 32.8565 41.3683C32.8092 41.356 32.762 41.3455 32.7147 41.3368C32.6377 41.321 32.5625 41.3088 32.4855 41.2983C32.4137 41.2878 32.342 41.2825 32.2702 41.2773C32.167 41.2685 32.0637 41.2633 31.9587 41.2633C31.6105 41.2633 31.2622 41.3053 30.9227 41.3805C30.4835 41.4785 30.06 41.6325 29.6575 41.8303C29.0187 42.147 28.4342 42.5775 27.9267 43.0815C27.6957 43.3108 27.4805 43.5523 27.2827 43.806C26.7997 44.429 26.4112 45.1378 26.1872 45.8955C26.112 46.1528 25.9737 46.557 25.958 46.9193C25.944 47.2308 26.0227 47.5143 26.3202 47.6368ZM32.209 49.2153C32.2072 49.1978 32.2055 49.1785 32.2055 49.161C32.1967 48.7778 32.3035 48.3945 32.4382 48.0393C32.6307 47.53 32.8967 47.0575 33.2047 46.6148C33.4392 46.2788 33.6965 45.9568 33.9677 45.6505C34.2915 45.2865 34.6397 44.919 35.03 44.6163C35.394 44.3328 35.7947 44.1035 36.2462 43.9863C36.43 43.939 36.619 43.9093 36.808 43.9005C36.8325 43.8988 36.8552 43.897 36.8797 43.897C36.9865 43.8953 37.0915 43.9005 37.1982 43.9128C37.2612 43.9198 37.3242 43.9303 37.3855 43.9425C37.445 43.9548 37.4782 43.9583 37.4922 43.9565C37.095 43.8183 36.6907 43.6625 36.2812 43.547C36.1465 43.5085 36.0117 43.4753 35.877 43.4473C35.5585 43.3825 35.2347 43.3895 34.9215 43.4508C34.6362 43.5068 34.3597 43.6048 34.1042 43.7413C33.9012 43.848 33.7105 43.9758 33.5302 44.1158C33.2152 44.3608 32.93 44.6443 32.6587 44.9365C32.1845 45.451 31.7365 45.997 31.383 46.6025C31.1152 47.0593 30.886 47.558 30.767 48.076C30.662 48.531 30.6322 49.1348 31.0067 49.4848C31.0837 49.5548 31.2675 49.6265 31.2377 49.6178C31.2675 49.6265 31.2972 49.6353 31.327 49.644C31.32 49.6423 31.313 49.6388 31.3042 49.637C31.3165 49.6405 31.3287 49.644 31.341 49.6493C31.3357 49.6475 31.3305 49.6458 31.327 49.6458C31.7785 49.7945 32.23 49.9433 32.6815 50.0903C32.3525 49.959 32.2282 49.5443 32.209 49.2153ZM23.9945 38.9393C24.7347 38.6558 25.5327 38.486 26.329 38.5088C26.4375 38.5123 26.546 38.521 26.6545 38.5315C26.7402 38.5403 26.8242 38.5508 26.9082 38.5648C27.008 38.5823 27.1095 38.6015 27.2075 38.626C27.246 38.6365 27.2845 38.647 27.3247 38.6575C26.9327 38.5228 26.3202 38.318 26.2782 38.304C26.1855 38.2743 26.0927 38.2463 26 38.2183C25.7637 38.1483 25.5275 38.087 25.2807 38.0538C24.103 37.8945 22.8955 38.2148 21.8402 38.7275C19.763 39.7355 18.1267 41.573 17.292 43.7168C17.0855 44.247 16.9297 44.7948 16.8247 45.353C16.8195 45.3775 17.5177 45.5875 17.5755 45.6068C17.6315 45.6243 18.3332 45.836 18.3315 45.8465C18.9072 42.7963 21.0755 40.0558 23.9945 38.9393ZM39.6307 51.3258C39.8897 51.324 40.1365 51.177 40.343 51.0318C40.6265 50.8305 40.8767 50.5873 41.1217 50.3423C41.5487 49.9153 42.0737 49.448 42.6705 49.3185C42.905 49.2678 43.1517 49.266 43.4072 49.343C42.975 49.203 42.5427 49.0613 42.1105 48.9213C42.065 48.9003 42.0072 48.8758 41.9232 48.8513C41.8602 48.8338 41.7832 48.8145 41.7027 48.8023C41.3632 48.7498 41.0255 48.8285 40.721 48.979C40.1662 49.252 39.7637 49.7193 39.321 50.1323C39.2562 50.1935 39.181 50.2635 39.0987 50.337C38.7837 50.617 38.3637 50.925 37.9805 50.8148C38.4652 50.974 38.95 51.1315 39.433 51.2908C39.4312 51.2908 39.4312 51.289 39.4312 51.289C39.5187 51.3205 39.5992 51.3258 39.6307 51.3258ZM46.412 56.5758C46.8757 56.4918 47.3045 56.28 47.7297 56.091C47.9362 56 48.1462 55.9108 48.3597 55.839C48.3755 55.8338 48.3912 55.8268 48.407 55.8215C48.5102 55.7883 48.617 55.7603 48.7255 55.7428C48.7797 55.734 48.8322 55.7288 48.8865 55.727C48.918 55.7253 48.9512 55.7253 48.9827 55.7288C49.0457 55.7358 49.0877 55.7393 49.1105 55.7375C48.925 55.6728 47.91 55.3525 47.7262 55.2895C47.7315 55.2913 47.7367 55.2948 47.7402 55.2965C47.679 55.2738 47.5985 55.2528 47.4935 55.2475C47.2397 55.2353 46.9965 55.2913 46.741 55.3823C46.0952 55.6168 45.481 56.0035 44.7915 56.0963C44.7495 56.1015 44.7075 56.1103 44.6637 56.1138C44.5045 56.126 44.3435 56.1225 44.186 56.098C44.1422 56.091 44.0985 56.0823 44.0547 56.0735C44.018 56.0665 43.9952 56.063 43.9812 56.063C44.4047 56.2188 44.8405 56.3518 45.2727 56.4865C45.2832 56.49 45.2937 56.4918 45.3042 56.4953C45.6735 56.602 46.0322 56.644 46.412 56.5758Z" fill="#FF8128"/>
<path d="M157.047 54.5282C157.04 54.5352 157.031 54.5404 157.022 54.5457C157.02 54.5474 157.02 54.5474 157.019 54.5492C157.027 54.5422 157.036 54.5352 157.047 54.5282Z" fill="black"/>
<path d="M154.408 49.5688C154.409 49.567 154.411 49.567 154.413 49.5653C154.565 49.469 154.511 49.5005 154.408 49.5688Z" fill="black"/>
<path d="M156.793 54.7032C156.788 54.7067 156.783 54.7085 156.777 54.712C156.732 54.7418 156.748 54.7312 156.793 54.7032Z" fill="black"/>
<path d="M158.33 53.7268C158.328 53.7286 158.326 53.7286 158.324 53.7303C158.316 53.7356 158.307 53.7391 158.3 53.7443C158.309 53.7391 158.319 53.7338 158.33 53.7268Z" fill="black"/>
<path d="M155.307 54.8258C155.297 54.8311 155.288 54.8363 155.276 54.8433C155.286 54.8381 155.297 54.8328 155.307 54.8258Z" fill="black"/>
<path d="M152.77 50.603C152.77 50.603 152.771 50.6029 152.771 50.6012C152.782 50.5959 152.791 50.5907 152.801 50.5854C152.791 50.5907 152.78 50.596 152.77 50.603Z" fill="black"/>
<path d="M155.052 53.2349C154.32 52.6452 153.732 51.7807 153.708 50.8864C153.706 50.8164 153.71 50.7464 153.717 50.6764C153.433 50.5014 153.109 50.4297 152.772 50.5994C152.745 50.6134 152.719 50.6274 152.696 50.6414C152.67 50.6607 152.642 50.6782 152.616 50.6974C152.535 50.7569 152.46 50.8217 152.394 50.8952C152.264 51.0352 152.168 51.1979 152.105 51.3729C151.977 51.7387 152.005 52.1359 152.112 52.5034C152.36 53.3574 153.017 54.1327 153.825 54.6157C154.081 54.7697 154.357 54.8887 154.641 54.9674C154.784 54.7522 154.894 54.5177 154.963 54.2622C155.052 53.9314 155.078 53.5832 155.052 53.2349Z" fill="#FF8128"/>
<path d="M155.58 54.6612C155.521 54.7032 155.445 54.7452 155.386 54.7854C155.409 54.7837 155.23 54.8922 154.996 55.0444C155.533 55.1232 156.11 55.0584 156.618 54.7977C156.672 54.7697 156.725 54.7399 156.779 54.7102C156.8 54.6962 156.835 54.6734 156.889 54.6384C156.924 54.6157 156.961 54.5894 156.996 54.5649C157.006 54.5579 157.015 54.5509 157.024 54.5439C157.246 54.3777 157.442 54.1852 157.605 53.9734C157.181 54.0504 156.749 54.0224 156.336 53.9087C156.229 54.0679 156.103 54.2167 155.958 54.3532C155.839 54.4652 155.713 54.5667 155.58 54.6612Z" fill="#FF8128"/>
<path d="M154.56 55.0847C153.731 55.2404 152.859 55.0112 152.101 54.6244C151.562 54.3497 151.062 54.0067 150.603 53.6234C150 53.9297 149.401 54.2482 148.81 54.5807C148.841 54.6087 148.873 54.6367 148.906 54.6647C149.8 55.4102 150.939 56.1452 152.196 56.1994C152.483 56.2117 152.772 56.1837 153.046 56.1102C153.356 56.0279 153.627 55.8844 153.892 55.7252C153.906 55.7112 153.942 55.6814 154.009 55.6324C153.998 55.6394 153.99 55.6464 153.979 55.6534C154.207 55.4854 154.401 55.2947 154.56 55.0847Z" fill="#FF8128"/>
<path d="M154.273 49.6615C154.282 49.6563 154.289 49.6493 154.297 49.644C154.299 49.6423 154.299 49.6423 154.301 49.6405C154.292 49.6493 154.283 49.6563 154.273 49.6615Z" fill="black"/>
<path d="M157.659 49.4988C157.846 49.8435 157.981 50.211 158.081 50.5838C158.312 51.4588 158.35 52.4178 158.007 53.2735C157.906 53.5255 157.771 53.76 157.603 53.9753C157.439 54.187 157.244 54.3778 157.022 54.5458C157.012 54.5528 157.003 54.5598 156.994 54.5668C156.959 54.5913 156.922 54.6175 156.887 54.6403C156.851 54.6648 156.817 54.6875 156.793 54.7033C157.059 54.5545 157.313 54.3848 157.568 54.2255C157.944 53.991 158.335 53.7635 158.688 53.5028C158.951 53.3103 159.178 53.0828 159.362 52.8238C159.717 52.3233 159.889 51.7335 159.931 51.1438C159.973 50.5663 159.897 49.9818 159.736 49.4218C159.61 48.9808 159.435 48.5345 159.164 48.1495C159.078 48.0288 158.982 47.908 158.856 47.8205C158.846 47.8135 158.571 47.9903 158.604 47.9693C158.405 48.0918 158.205 48.216 158.006 48.342C157.808 48.4663 157.608 48.5923 157.412 48.7183C157.386 48.734 157.174 48.8828 157.169 48.8793C157.391 49.0333 157.538 49.2765 157.659 49.4988Z" fill="#EB5647"/>
<path d="M152.771 50.6012C153.109 50.4315 153.433 50.5032 153.716 50.6782C154.049 50.8847 154.325 51.2347 154.492 51.5112C154.805 52.0292 155.006 52.6312 155.05 53.2367C155.076 53.5832 155.05 53.9315 154.961 54.264C154.894 54.5195 154.784 54.754 154.639 54.9692C154.612 55.0077 154.584 55.048 154.556 55.0847C154.397 55.2947 154.205 55.4855 153.977 55.6552C153.988 55.6482 153.996 55.6412 154.007 55.6342C153.94 55.6832 153.904 55.713 153.89 55.727C153.933 55.7007 153.977 55.6745 154.021 55.6482C154.345 55.4487 154.674 55.251 154.996 55.0462C155.003 55.048 155.517 54.7032 155.577 54.6612C155.71 54.5667 155.837 54.4652 155.955 54.355C156.1 54.2185 156.226 54.0715 156.333 53.9105C156.383 53.8352 156.431 53.7565 156.473 53.6742C156.954 52.7065 156.76 51.5025 156.249 50.5767C156.04 50.1987 155.752 49.8102 155.346 49.5862C155.193 49.5022 155.02 49.4445 154.84 49.4462C154.682 49.448 154.544 49.497 154.411 49.5652C154.404 49.5705 154.395 49.5757 154.387 49.581C154.254 49.6667 153.995 49.8312 153.536 50.12C153.1 50.393 152.84 50.554 152.696 50.6432H152.694C152.721 50.6292 152.745 50.6152 152.771 50.6012Z" fill="#EB5647"/>
<path d="M131.036 141.719H80.5175L75.1257 136.764L72.6565 132.955L71.5225 54.516L78.1795 54.691L82.6105 47.9553L147.64 46.7128V124.973" fill="#CFEDF8"/>
<path opacity="0.15" d="M124.764 94.9008L129.512 89.7016L124.764 84.5006L125.722 77.3361L118.996 76.0866L115.796 69.6956L109.662 72.8736L103.528 69.6956L100.327 76.0866L93.602 77.3361L94.5593 84.5006L89.8115 89.7016L94.5593 94.9008L93.602 102.065L99.86 103.229L94.2233 120.125L101.603 116.389L105.058 124.054L109.788 109.879L114.516 124.054L117.971 116.389L125.352 120.125L119.7 103.185L125.722 102.065L124.764 94.9008Z" fill="#414141"/>
<path d="M102.219 94.717L94.6099 117.523L101.991 113.787L105.446 121.452L113.015 98.7613L102.219 94.717Z" fill="#F7941D" stroke="white" stroke-width="4.9161" stroke-miterlimit="10"/>
<path d="M118.13 94.717L125.739 117.523L118.359 113.787L114.905 121.452L107.334 98.7613L118.13 94.717Z" fill="#F7941D" stroke="white" stroke-width="4.9161" stroke-miterlimit="10"/>
<path opacity="0.15" d="M100.714 100.712L100.15 102.258L103.493 109.231L107.679 106.603L108.685 110.211L109.662 107.105L109.046 105.745L106.886 98.7717L100.714 100.712Z" fill="#414141"/>
<path d="M100.98 100.361L94.4316 99.1427L95.3626 92.169L90.7339 87.0992L95.3626 82.0295L94.4316 75.054L100.98 73.836L104.09 67.627L110.049 70.7157L116.009 67.627L119.119 73.836L125.667 75.054L124.736 82.0295L129.365 87.0992L124.736 92.169L125.667 99.1427L119.119 100.361L116.009 106.57L110.049 103.483L104.09 106.57L100.98 100.361Z" fill="url(#paint15_linear_22_1383)"/>
<path d="M115.836 68.1625L118.678 73.8378L118.853 74.1895L119.239 74.2613L125.226 75.3743L124.369 81.795L124.32 82.1608L124.568 82.432L128.829 87.0993L124.568 91.7665L124.32 92.0378L124.369 92.4035L125.226 98.8243L119.239 99.9373L118.853 100.009L118.678 100.361L115.836 106.036L110.412 103.227L110.048 103.038L109.684 103.227L104.261 106.036L101.419 100.361L101.244 100.009L100.857 99.9373L94.8707 98.8243L95.7282 92.4035L95.7772 92.0378L95.5287 91.7665L91.2675 87.0993L95.5287 82.432L95.7772 82.1608L95.7282 81.795L94.8707 75.3743L100.857 74.2613L101.244 74.1895L101.419 73.8378L104.261 68.1625L109.684 70.9713L110.048 71.1603L110.412 70.9713L115.836 68.1625ZM116.184 67.0933L110.05 70.2713L103.916 67.0933L100.716 73.4843L93.9905 74.7338L94.946 81.8983L90.1982 87.0993L94.946 92.3003L93.9905 99.4648L100.716 100.714L103.916 107.105L110.05 103.927L116.184 107.105L119.385 100.714L126.11 99.4648L125.154 92.3003L129.902 87.0993L125.154 81.8983L126.11 74.7338L119.385 73.4843L116.184 67.0933Z" fill="white"/>
<path opacity="0.15" d="M109.868 104.492H110.369L115.034 108.083L115.792 106.902L110.048 103.927L109.662 104.129L109.868 104.492Z" fill="#414141"/>
<path d="M132.255 141.27L147.635 124.971H135.742C133.816 124.971 132.253 126.626 132.253 128.669V141.27H132.255Z" fill="#9BDDFA"/>
<path d="M147.404 46.228H83.0898V55.9178H147.404V46.228Z" fill="#1991CC"/>
<path opacity="0.3" d="M143.385 160.774C143.385 162.962 118.85 164.736 88.5835 164.736C58.3172 164.736 33.7822 162.962 33.7822 160.774C33.7822 158.587 58.3172 156.812 88.5835 156.812C118.85 156.812 143.385 158.587 143.385 160.774Z" fill="#858484"/>
<path d="M67.2633 50.1672C67.2633 50.1672 67.2615 51.093 66.3218 52.7135C66.3218 52.7135 69.8235 56.6772 73.985 52.6522C74.048 52.7047 73.0138 51.8332 73.082 50.505C73.082 50.505 70.1718 52.5157 67.2633 50.1672Z" fill="#B29480"/>
<path d="M76.5996 41.7533C77.6023 40.894 78.1903 42.504 78.1903 43.246C78.1903 44.0633 77.5358 44.7318 76.7168 44.765L76.8498 44.8963C76.0483 48.6938 73.3376 51.4868 70.1123 51.4868C70.1071 51.4868 70.1018 51.4868 70.0983 51.4868C66.6543 51.4868 64.0906 48.4348 63.3433 44.8963H63.3451C62.5243 44.863 61.8716 44.1945 61.8716 43.3773C61.8716 42.6353 62.3266 40.7803 63.4623 41.8845C62.9531 39.3085 62.9041 33.4635 68.7193 33.4635C68.6843 33.4635 78.3058 31.2305 76.4228 41.8635" fill="#B29480"/>
<path fill-rule="evenodd" clip-rule="evenodd" d="M69.9515 36.5803C71.1152 36.5838 74.5312 35.0998 75.4097 36.7238C76.1342 38.0626 75.0825 40.1958 75.079 41.3491C75.0737 42.5636 75.3852 43.1761 75.4552 43.1428C75.6792 43.0378 76.7065 40.7943 76.9025 40.2693C76.8815 40.3918 76.9462 40.1521 76.9025 40.2693C76.9532 39.9788 77.2857 39.0461 77.3155 38.7416C77.4257 37.6356 77.48 36.1131 77.1877 35.0421C76.3687 32.0338 72.93 30.4221 69.9497 30.4518C66.9695 30.4221 63.5307 32.0356 62.7117 35.0421C62.4195 36.1148 62.4737 37.6356 62.584 38.7416C62.6137 39.0478 62.6382 39.4766 62.689 39.7671C62.71 39.8896 62.9532 40.1521 62.9987 40.2693C63.1947 40.7943 64.222 43.0378 64.446 43.1428C64.516 43.1761 64.8275 42.5636 64.8222 41.3491C64.8187 40.1958 63.767 38.0626 64.4915 36.7238C65.3717 35.0998 68.786 36.5838 69.9515 36.5803Z" fill="#4C4D4E"/>
<path d="M73.6578 28.9066C73.6578 28.6021 73.4915 28.3326 73.2378 28.1681C73.2675 28.0736 73.285 27.9739 73.285 27.8706C73.285 27.4786 73.0523 27.1374 72.7075 26.9501C72.6725 26.3849 72.1598 25.9369 71.5298 25.9369C71.4808 25.9369 71.4318 25.9404 71.3845 25.9456C71.227 25.7286 70.9575 25.5851 70.6513 25.5851C70.541 25.5851 70.436 25.6061 70.3398 25.6394C70.114 25.4084 69.785 25.2614 69.4175 25.2614C69.0395 25.2614 68.7 25.4171 68.4743 25.6604C68.3815 25.6394 68.2835 25.6271 68.1838 25.6271C67.6325 25.6271 67.167 25.9544 67.0078 26.4059C66.656 26.5091 66.4005 26.8066 66.4005 27.1601C66.4005 27.1671 66.4023 27.1724 66.4023 27.1776C66.054 27.3754 65.8213 27.7271 65.8213 28.1279C65.8213 28.2749 65.8528 28.4149 65.9105 28.5444C65.7058 28.6791 65.5728 28.8961 65.5728 29.1411C65.5728 29.3669 65.6865 29.5664 65.8615 29.7029C65.8353 29.7904 65.8213 29.8831 65.8213 29.9776C65.8213 30.5341 66.2868 30.9909 66.8835 31.0451C67.0148 31.4056 67.3893 31.6681 67.8303 31.6681C67.8408 31.6681 67.8513 31.6664 67.8618 31.6664C68.3903 31.9516 69.0063 32.1196 69.666 32.1196C70.121 32.1196 70.555 32.0391 70.9558 31.8956C71.0415 31.9201 71.1308 31.9376 71.2253 31.9376C71.5805 31.9376 71.885 31.7451 72.0233 31.4686C72.0495 31.4704 72.0758 31.4756 72.1038 31.4756C72.5885 31.4756 72.9823 31.1186 72.9823 30.6776C72.9823 30.6584 72.977 30.6409 72.9753 30.6216C73.3043 30.5061 73.537 30.2191 73.537 29.8796C73.537 29.7361 73.4933 29.6049 73.4198 29.4894C73.5685 29.3354 73.6578 29.1306 73.6578 28.9066Z" fill="#4C4D4E"/>
<path d="M72.9771 52.4423C73.2536 51.6513 74.6746 52.647 75.5653 52.836L73.0943 57.9338L66.4741 70.5618C64.6873 66.3215 64.2061 58.2575 64.2061 58.2575L64.7205 53.2683C65.585 53.0075 66.5633 52.773 67.6431 52.605C67.6431 52.605 68.2801 53.9035 69.2793 54.0453C69.4281 54.0225 72.5256 53.7303 72.9771 52.4423Z" fill="#D2D3D2"/>
<path d="M41.8621 25.7811C41.8621 25.7811 39.8304 24.5911 39.9336 23.3923C39.6956 23.3923 39.4034 23.1123 39.1426 22.8183C39.0744 22.7413 38.8171 22.0361 38.8101 21.9398C38.7821 21.5671 38.9256 20.7061 39.1409 20.4558L42.0161 18.3383C42.0179 18.3366 43.7784 17.8221 44.3856 18.7373C44.5694 19.0156 45.0821 19.5913 45.2204 19.8643C45.2694 19.9606 46.2161 20.0533 46.3071 20.3298C46.8286 21.9101 46.2126 23.2261 46.2739 24.3636C46.3071 24.9953 46.3351 25.6253 46.3666 26.2571L44.1389 26.6053L41.8621 25.7811Z" fill="#B29480"/>
<path d="M47.6056 26.369L46.4121 24.3775C46.4121 24.3775 44.2106 24.0695 42.5884 26.257L43.5789 28.4148L47.6056 26.369Z" fill="#C9C9C9"/>
<path d="M55.057 40.3114C52.2448 35.0491 50.0678 30.5604 47.56 25.7619C46.3928 25.6814 44.1441 26.2099 43.0083 27.8899L49.1211 42.6914L59.4986 66.2429C59.4986 66.2429 61.5093 57.8341 61.014 51.4151C61.0123 51.4151 58.3575 46.4871 55.057 40.3114Z" fill="#FF8128"/>
<path d="M98.4236 26.558C98.4236 26.558 100.475 25.3943 100.389 24.1955C100.627 24.199 100.924 23.9208 101.189 23.6303C101.257 23.555 101.526 22.8515 101.533 22.7553C101.567 22.3843 101.437 21.5215 101.227 21.2678L98.3851 19.1118C98.3816 19.11 96.6316 18.571 96.0086 19.4793C95.8196 19.7558 95.2981 20.3245 95.1564 20.594C95.1074 20.6885 94.1589 20.7708 94.0626 21.0455C93.5166 22.6188 94.1116 23.9418 94.0346 25.0793C93.9909 25.7093 93.9541 26.341 93.9121 26.9728L96.1329 27.3508L98.4236 26.558Z" fill="#B29480"/>
<path d="M92.6699 27.0708L93.8949 25.0951C93.8949 25.0951 96.0999 24.8151 97.6889 27.0253L96.6652 29.1691L92.6699 27.0708Z" fill="#C9C9C9"/>
<path d="M85.0032 40.9134C87.896 35.6896 90.143 31.2306 92.726 26.4636C93.8949 26.3971 96.135 26.9554 97.2445 28.6511L90.9025 43.3704L81.0202 64.1709C81.0202 64.1709 78.2395 57.8376 78.8345 51.4274C78.8362 51.4291 81.6082 47.0454 85.0032 40.9134Z" fill="#FF8128"/>
<path d="M67.2402 107.741L77.3552 106.468C77.966 111.2 78.4262 112.851 77.6597 116.744C77.6597 116.744 78.0465 117.597 78.3562 118.862C74.585 119.249 72.0282 119.494 69.629 119.338C69.6027 118.998 69.5432 118.174 69.5432 117.92C69.545 113.043 67.2402 109.786 67.2402 107.741Z" fill="#EE8973"/>
<path d="M76.0183 150.271C76.0183 150.271 73.5175 160.904 74.697 161.067H81.1055C81.1055 161.067 81.6288 158.919 79.786 150.486L77.4515 150.229L76.0183 150.271Z" fill="#25312D"/>
<path d="M79.7842 150.516C81.172 123.617 77.6597 116.744 77.6597 116.744C78.4262 112.851 77.966 111.2 77.3552 106.468L67.2402 107.741C67.2402 109.786 69.5432 113.043 69.5432 117.919C69.5432 123.44 75.908 149.847 76.0147 150.294L75.6542 158.354C76.2107 158.463 79.17 157.927 80.2777 158.68C80.2777 158.68 79.7212 155.201 79.7842 150.516Z" fill="#B29480"/>
<path d="M68.9867 119.48C68.5492 117.521 68.488 117.399 68.488 117.399C69.2685 114.212 68.8922 110.789 68.985 107.557L58.2715 106.908C58.9102 111.255 59.563 115.519 60.0547 118.354C61.7295 118.788 65.7545 119.275 68.9867 119.48Z" fill="#EE8973"/>
<path d="M65.7547 150.098C64.2969 153.955 60.5274 158.191 60.5274 158.191L57.2444 158.538L53.9562 159.222C53.9562 159.222 53.1337 159.926 53.8547 161.068H62.2092L65.0669 154.499L64.8727 161.068H65.7459L67.5274 152.982C67.5239 152.98 67.3454 151.1 65.7547 150.098Z" fill="#25312D"/>
<path d="M68.4864 117.399C69.2669 114.212 68.8907 110.789 68.9834 107.557L58.2699 106.908C59.1869 113.139 60.1284 119.203 60.5904 121.128C61.6334 125.477 61.2344 149.494 61.2204 150.294C60.7952 151.508 58.5954 157.656 57.2427 158.536L60.2439 158.517C60.2439 158.517 63.9592 154.322 65.5534 150.579L65.6707 150.586C65.6812 150.46 65.6934 150.332 65.7074 150.204C65.7232 150.166 65.7389 150.126 65.7529 150.087L65.7214 150.061C66.1362 146.069 67.2194 141.535 67.8599 139.017C71.4002 125.095 68.4864 117.399 68.4864 117.399Z" fill="#B29480"/>
<path d="M75.5616 52.8378L72.4728 57.8043L66.3968 69.2213C64.6101 64.9811 64.8183 58.2716 64.8183 58.2716L64.7203 53.2736C62.4523 52.0766 61.1101 51.4308 61.1101 51.4308L60.0653 58.3993C57.4456 60.8931 56.5216 63.2223 56.5618 64.1726C56.7088 67.5833 58.8666 69.3771 58.8666 69.3771L59.6295 80.1746C69.0271 83.0131 76.9283 80.1063 76.9283 80.1063C78.4578 73.3041 81.0216 64.1726 81.0216 64.1726L78.8358 51.4291C77.3186 52.0678 77.2993 52.1851 75.5616 52.8378Z" fill="#FF8128"/>
<path d="M67.0689 51.2768C67.0689 51.2768 67.3892 53.004 69.0272 53.9788C69.0272 53.9788 73.0259 53.4853 73.0907 50.5138L74.0479 52.003C74.0479 52.003 72.3032 56.4918 70.0772 57.946L68.9624 54.6333L66.6752 57.5785C66.6752 57.5785 65.5114 54.3533 65.5622 52.1885L67.0689 51.2768Z" fill="#F1F0EF"/>
<path d="M69.4996 122.141L70.1069 125.017C70.1069 125.017 75.5581 148.622 75.6789 149.137C78.1639 149.968 79.8561 149.333 79.8561 149.333C79.8561 149.333 80.1099 138.556 80.2796 138.74C79.7634 121.273 77.6616 116.681 77.6616 116.681C89.6649 90.5749 76.9301 79.6724 76.9301 79.6724C68.6456 82.9676 59.6314 79.7424 59.6314 79.7424C59.6314 79.7424 50.4736 89.5669 59.5911 115.903C59.5911 115.903 59.5859 119.45 60.7391 121.921C60.7514 122.01 61.2869 145.087 61.2869 145.087C61.2869 145.087 66.5631 144.932 66.5316 145.087C66.5019 145.243 69.6169 133.842 69.6169 129.854C69.6169 127.643 69.5941 124.201 69.5766 121.573" fill="#404054"/>
<path d="M61.3203 144.044L61.3396 144.863V147.821C61.3396 147.821 66.0856 147.784 66.0786 147.821C66.0733 147.858 66.8241 144.044 66.8241 144.044" fill="#404054"/>
<path fill-rule="evenodd" clip-rule="evenodd" d="M71.2109 40.7874L71.2844 40.4864C71.2844 40.4864 72.2154 39.9719 72.8454 40.1329C73.4754 40.2921 74.4449 40.7279 74.4449 40.8521C74.4449 40.9781 73.4159 40.5949 72.7649 40.5319C71.8199 40.4426 71.2109 40.7874 71.2109 40.7874Z" fill="#4C4D4E"/>
<path fill-rule="evenodd" clip-rule="evenodd" d="M68.1783 40.7891L68.0173 40.4408C68.0173 40.4408 67.1738 39.9736 66.5438 40.1328C65.9138 40.2921 64.9443 40.7278 64.9443 40.8521C64.9443 40.9781 66.0276 40.6106 66.6786 40.5476C67.6236 40.4601 68.1783 40.7891 68.1783 40.7891Z" fill="#4C4D4E"/>
<path d="M68.8834 47.1731C68.9516 47.1328 69.0199 47.0891 69.1074 47.0786C69.3191 47.0523 69.4819 47.2378 69.6971 47.2378C69.8879 47.2378 70.0384 47.0891 70.2274 47.1031C70.3201 47.1101 70.3954 47.1556 70.4724 47.1924C70.7926 47.3481 71.8811 46.8266 72.2399 46.7251C72.3501 46.8476 71.5591 47.5598 71.4296 47.6701C71.1601 47.9011 70.8609 48.1233 70.4829 48.2563C70.0139 48.4226 69.4434 48.4331 68.9621 48.2826C68.5894 48.1671 68.2761 47.9553 68.0871 47.6998C67.9489 47.5143 67.4169 46.9088 67.6689 46.8388C67.8964 46.7776 68.6944 47.2851 68.8834 47.1731Z" fill="#820811"/>
<path d="M72.317 42.9993C72.6766 42.9993 72.968 42.7086 72.968 42.3501C72.968 41.9915 72.6766 41.7008 72.317 41.7008C71.9575 41.7008 71.666 41.9915 71.666 42.3501C71.666 42.7086 71.9575 42.9993 72.317 42.9993Z" fill="#35281D"/>
<path fill-rule="evenodd" clip-rule="evenodd" d="M70.917 41.9931C70.98 41.9021 71.3107 41.4646 71.7675 41.3876C72.6617 41.2336 73.857 41.8758 74.0827 42.1296C74.3085 42.3833 73.983 42.2346 73.983 42.2346C73.983 42.2346 72.912 41.7148 72.1017 41.8076C71.4787 41.8793 71.1112 42.1208 71.0132 42.0578C70.917 41.9931 70.917 41.9931 70.917 41.9931Z" fill="#35281D"/>
<path d="M66.8849 42.9993C67.2444 42.9993 67.5359 42.7086 67.5359 42.3501C67.5359 41.9915 67.2444 41.7008 66.8849 41.7008C66.5253 41.7008 66.2339 41.9915 66.2339 42.3501C66.2339 42.7086 66.5253 42.9993 66.8849 42.9993Z" fill="#35281D"/>
<path fill-rule="evenodd" clip-rule="evenodd" d="M68.4757 41.9931C68.4127 41.9021 68.0819 41.4646 67.6252 41.3876C66.7309 41.2336 65.5357 41.8758 65.3099 42.1296C65.0824 42.3833 65.4097 42.2346 65.4097 42.2346C65.4097 42.2346 66.4807 41.7148 67.2909 41.8076C67.9139 41.8793 68.2814 42.1208 68.3794 42.0578C68.4757 41.9931 68.4757 41.9931 68.4757 41.9931Z" fill="#35281D"/>
<path opacity="0.35" d="M68.6876 45.0784C68.5896 45.2551 68.5948 45.3829 68.6701 45.4861C68.7611 45.6086 68.8836 45.6034 69.0166 45.6296C69.1758 45.6611 69.3176 45.7679 69.4698 45.8361C69.6221 45.9044 69.8076 45.9289 69.9353 45.8099C69.9983 45.7504 70.1681 45.6489 70.2521 45.6366C70.2521 45.6366 70.3448 45.6279 70.4673 45.6191C70.6563 45.6069 70.6913 45.5754 70.7578 45.4861C70.8418 45.3741 70.8016 45.1571 70.7491 45.0784" stroke="#473B30" stroke-width="1.4756" stroke-miterlimit="10" stroke-linecap="round" stroke-linejoin="round"/>
<path d="M66.7332 92.4263C66.7332 92.4263 65.7532 94.2235 65.5904 98.959C65.4277 103.695 65.9177 108.922 66.4077 111.862C66.8977 114.802 69.1849 121.825 69.6749 123.459C70.1649 125.092 68.2049 114.149 68.0422 109.576C67.8794 105.004 67.3894 101.084 67.3894 97.6535C67.3894 94.2235 66.7332 92.4263 66.7332 92.4263Z" fill="#2D2D3A"/>
<path d="M151.039 100.277C151.039 100.277 152.607 104.722 151.569 106.627L153.809 106.556C153.809 106.556 154.732 102.203 153.354 100.147L151.039 100.277Z" fill="#FF8128"/>
<defs>
<linearGradient id="paint0_linear_22_1383" x1="43.3419" y1="78.5065" x2="43.3468" y2="78.5129" gradientUnits="userSpaceOnUse">
<stop stop-color="#DF520A"/>
<stop offset="0.1425" stop-color="#F87D16"/>
<stop offset="0.1939" stop-color="#F88219"/>
<stop offset="0.2588" stop-color="#F89221"/>
<stop offset="0.3307" stop-color="#F8AC2F"/>
<stop offset="0.3547" stop-color="#F8B634"/>
<stop offset="0.4256" stop-color="#F8AB2E"/>
<stop offset="0.5512" stop-color="#F78D1F"/>
<stop offset="0.6173" stop-color="#F77A15"/>
<stop offset="0.6808" stop-color="#F16E11"/>
<stop offset="0.7964" stop-color="#E04D07"/>
<stop offset="0.8268" stop-color="#DB4304"/>
<stop offset="0.873" stop-color="#D74104"/>
<stop offset="0.9151" stop-color="#CC3A04"/>
<stop offset="0.9556" stop-color="#BA2E04"/>
<stop offset="0.9949" stop-color="#A01E04"/>
<stop offset="1" stop-color="#9C1B04"/>
</linearGradient>
<linearGradient id="paint1_linear_22_1383" x1="45.2081" y1="76.9466" x2="45.2105" y2="76.9496" gradientUnits="userSpaceOnUse">
<stop stop-color="#DF520A"/>
<stop offset="0.1425" stop-color="#F87D16"/>
<stop offset="0.1939" stop-color="#F88219"/>
<stop offset="0.2588" stop-color="#F89221"/>
<stop offset="0.3307" stop-color="#F8AC2F"/>
<stop offset="0.3547" stop-color="#F8B634"/>
<stop offset="0.4256" stop-color="#F8AB2E"/>
<stop offset="0.5512" stop-color="#F78D1F"/>
<stop offset="0.6173" stop-color="#F77A15"/>
<stop offset="0.6808" stop-color="#F16E11"/>
<stop offset="0.7964" stop-color="#E04D07"/>
<stop offset="0.8268" stop-color="#DB4304"/>
<stop offset="0.873" stop-color="#D74104"/>
<stop offset="0.9151" stop-color="#CC3A04"/>
<stop offset="0.9556" stop-color="#BA2E04"/>
<stop offset="0.9949" stop-color="#A01E04"/>
<stop offset="1" stop-color="#9C1B04"/>
</linearGradient>
<linearGradient id="paint2_linear_22_1383" x1="46.4185" y1="70.5522" x2="46.4211" y2="70.5555" gradientUnits="userSpaceOnUse">
<stop stop-color="#DF520A"/>
<stop offset="0.1425" stop-color="#F87D16"/>
<stop offset="0.1939" stop-color="#F88219"/>
<stop offset="0.2588" stop-color="#F89221"/>
<stop offset="0.3307" stop-color="#F8AC2F"/>
<stop offset="0.3547" stop-color="#F8B634"/>
<stop offset="0.4256" stop-color="#F8AB2E"/>
<stop offset="0.5512" stop-color="#F78D1F"/>
<stop offset="0.6173" stop-color="#F77A15"/>
<stop offset="0.6808" stop-color="#F16E11"/>
<stop offset="0.7964" stop-color="#E04D07"/>
<stop offset="0.8268" stop-color="#DB4304"/>
<stop offset="0.873" stop-color="#D74104"/>
<stop offset="0.9151" stop-color="#CC3A04"/>
<stop offset="0.9556" stop-color="#BA2E04"/>
<stop offset="0.9949" stop-color="#A01E04"/>
<stop offset="1" stop-color="#9C1B04"/>
</linearGradient>
<linearGradient id="paint3_linear_22_1383" x1="46.2223" y1="70.6794" x2="46.2279" y2="70.6866" gradientUnits="userSpaceOnUse">
<stop stop-color="#DF520A"/>
<stop offset="0.1425" stop-color="#F87D16"/>
<stop offset="0.1939" stop-color="#F88219"/>
<stop offset="0.2588" stop-color="#F89221"/>
<stop offset="0.3307" stop-color="#F8AC2F"/>
<stop offset="0.3547" stop-color="#F8B634"/>
<stop offset="0.4256" stop-color="#F8AB2E"/>
<stop offset="0.5512" stop-color="#F78D1F"/>
<stop offset="0.6173" stop-color="#F77A15"/>
<stop offset="0.6808" stop-color="#F16E11"/>
<stop offset="0.7964" stop-color="#E04D07"/>
<stop offset="0.8268" stop-color="#DB4304"/>
<stop offset="0.873" stop-color="#D74104"/>
<stop offset="0.9151" stop-color="#CC3A04"/>
<stop offset="0.9556" stop-color="#BA2E04"/>
<stop offset="0.9949" stop-color="#A01E04"/>
<stop offset="1" stop-color="#9C1B04"/>
</linearGradient>
<linearGradient id="paint4_linear_22_1383" x1="116.665" y1="113.629" x2="116.665" y2="113.629" gradientUnits="userSpaceOnUse">
<stop offset="0.5383" stop-color="#F87D16"/>
<stop offset="1" stop-color="#DB4304"/>
</linearGradient>
<linearGradient id="paint5_linear_22_1383" x1="118.551" y1="113.816" x2="118.552" y2="113.817" gradientUnits="userSpaceOnUse">
<stop offset="0.5383" stop-color="#F87D16"/>
<stop offset="1" stop-color="#DB4304"/>
</linearGradient>
<linearGradient id="paint6_linear_22_1383" x1="115.857" y1="113.89" x2="115.857" y2="113.891" gradientUnits="userSpaceOnUse">
<stop offset="0.5383" stop-color="#F87D16"/>
<stop offset="1" stop-color="#DB4304"/>
</linearGradient>
<linearGradient id="paint7_linear_22_1383" x1="116.251" y1="113.75" x2="116.279" y2="113.83" gradientUnits="userSpaceOnUse">
<stop offset="0.5383" stop-color="#F87D16"/>
<stop offset="1" stop-color="#DB4304"/>
</linearGradient>
<linearGradient id="paint8_linear_22_1383" x1="116.277" y1="113.701" x2="116.317" y2="113.817" gradientUnits="userSpaceOnUse">
<stop offset="0.5383" stop-color="#F87D16"/>
<stop offset="1" stop-color="#DB4304"/>
</linearGradient>
<linearGradient id="paint9_linear_22_1383" x1="118.627" y1="113.787" x2="118.627" y2="113.788" gradientUnits="userSpaceOnUse">
<stop offset="0.5383" stop-color="#F87D16"/>
<stop offset="1" stop-color="#DB4304"/>
</linearGradient>
<linearGradient id="paint10_linear_22_1383" x1="119.495" y1="113.506" x2="119.496" y2="113.508" gradientUnits="userSpaceOnUse">
<stop offset="0.5383" stop-color="#F87D16"/>
<stop offset="1" stop-color="#DB4304"/>
</linearGradient>
<linearGradient id="paint11_linear_22_1383" x1="105.315" y1="95.1197" x2="105.318" y2="95.1161" gradientUnits="userSpaceOnUse">
<stop offset="0.5383" stop-color="#652F8B"/>
<stop offset="1" stop-color="#432174"/>
</linearGradient>
<linearGradient id="paint12_linear_22_1383" x1="106.045" y1="95.6448" x2="106.047" y2="95.6423" gradientUnits="userSpaceOnUse">
<stop offset="0.5383" stop-color="#652F8B"/>
<stop offset="1" stop-color="#432174"/>
</linearGradient>
<linearGradient id="paint13_linear_22_1383" x1="105.987" y1="95.5934" x2="105.987" y2="95.593" gradientUnits="userSpaceOnUse">
<stop offset="0.5383" stop-color="#652F8B"/>
<stop offset="1" stop-color="#432174"/>
</linearGradient>
<linearGradient id="paint14_linear_22_1383" x1="84.8287" y1="37.6831" x2="84.8298" y2="37.683" gradientUnits="userSpaceOnUse">
<stop stop-color="#32293E"/>
<stop offset="0.1425" stop-color="#3F3048"/>
<stop offset="0.2625" stop-color="#44354C"/>
<stop offset="0.3547" stop-color="#4D3C52"/>
<stop offset="0.5652" stop-color="#42334A"/>
<stop offset="0.6173" stop-color="#3E3048"/>
<stop offset="0.7881" stop-color="#32283E"/>
<stop offset="0.8268" stop-color="#2E263B"/>
<stop offset="0.9138" stop-color="#2B2437"/>
<stop offset="0.993" stop-color="#211D2C"/>
<stop offset="1" stop-color="#201C2B"/>
</linearGradient>
<linearGradient id="paint15_linear_22_1383" x1="110.049" y1="141.302" x2="110.049" y2="91.6726" gradientUnits="userSpaceOnUse">
<stop stop-color="#DD5626"/>
<stop offset="1" stop-color="#F27A21"/>
</linearGradient>
</defs>
</svg>
