<svg width="175" height="175" viewBox="0 0 175 175" fill="none" xmlns="http://www.w3.org/2000/svg">
<g clip-path="url(#clip0_22_2723)">
<path d="M38.4634 18.8912C38.4721 18.9017 38.4809 18.914 38.4896 18.9245C38.4949 18.9315 38.5019 18.9385 38.5071 18.9455C38.4931 18.928 38.4774 18.9087 38.4634 18.8912Z" fill="black"/>
<path d="M38.4124 18.8318C38.3599 18.7635 38.2759 18.62 38.2444 18.536C38.0746 18.0898 38.1797 17.5735 38.3739 17.1378C38.7939 16.198 39.7179 15.4158 39.8107 14.35C39.8159 14.287 39.8177 14.224 39.8159 14.161C39.8107 13.9563 39.7704 13.7515 39.6987 13.559C39.6654 13.468 39.6217 13.384 39.5779 13.2983C39.5657 13.2773 39.5534 13.2563 39.5412 13.2335C39.7144 13.4575 39.8877 13.6815 40.0592 13.9055C40.2989 14.1873 40.6384 14.616 40.6682 14.6598C40.6612 14.6528 40.6542 14.6458 40.6454 14.6388C40.7032 14.6948 40.7487 14.77 40.7924 14.8365C41.0269 15.1865 41.1564 15.5978 41.1266 16.0195C41.0706 16.8018 40.5299 17.4545 40.1134 18.088C39.8982 18.4153 39.6549 18.8283 39.5342 19.2535C39.4432 19.2553 39.3504 19.2518 39.2559 19.2395C38.9304 19.1993 38.6137 19.089 38.4124 18.8318ZM43.7131 25.7128C43.7604 25.8073 43.8059 25.886 43.8497 25.9508C43.9529 26.1083 44.0352 26.18 44.0352 26.18C44.0789 26.2203 44.1174 26.264 44.1629 26.3025C44.3519 26.4653 44.5724 26.586 44.8069 26.6735C44.6022 25.3155 45.3931 24.0625 45.6136 22.7448C45.7256 22.0763 45.6732 21.378 45.3249 20.783C45.2567 20.6658 45.1779 20.5538 45.0922 20.4488C45.0519 20.3998 45.0099 20.3525 44.9626 20.3088C44.9154 20.2668 44.8629 20.2318 44.8122 20.195C44.7492 20.1513 44.6844 20.1093 44.6162 20.0743C44.5269 20.027 44.4324 19.9903 44.3344 19.9623C44.6302 21.8225 42.7927 23.8385 43.7149 25.711L43.7131 25.7128ZM51.4954 38.5123C51.5462 38.57 51.5986 38.6278 51.6511 38.682C51.7614 38.794 51.8769 38.8973 51.9977 38.997C51.9907 38.9848 51.9837 38.9708 51.9767 38.9585C51.2679 37.5078 51.0912 35.847 51.1122 34.251C51.1314 32.774 51.2084 31.066 50.3019 29.8043C50.2722 29.7623 50.2424 29.722 50.2109 29.68C50.1969 29.6695 50.1724 29.6468 50.1322 29.6065C50.0814 29.554 50.0306 29.4998 49.9764 29.4508C49.8276 29.316 49.6631 29.2005 49.4864 29.106C49.6509 29.61 49.7261 30.142 49.7646 30.667C49.8626 31.976 49.7314 33.285 49.9029 34.5888C50.0797 35.9205 50.4384 37.2453 51.3011 38.2935C51.4324 38.4528 51.4744 38.4895 51.4937 38.5105L51.4954 38.5123Z" fill="#FC9F00"/>
<path d="M52.4736 39.8056C52.4509 39.7723 52.4299 39.739 52.4089 39.7041C52.0851 39.2858 51.7614 38.8658 51.4376 38.4475C51.5094 38.5263 51.5776 38.6068 51.6529 38.682C51.7631 38.794 51.8786 38.8973 51.9994 38.997C52.1656 39.1353 52.3406 39.2665 52.5209 39.3855C53.1019 39.7705 53.7406 40.0593 54.3636 40.3656C55.0076 40.6823 55.6429 41.0305 56.1836 41.5048C56.3516 41.6535 56.5056 41.8128 56.6526 41.9808C56.6911 42.2065 56.7226 42.4323 56.7489 42.6563C56.6719 42.6055 56.5949 42.553 56.5144 42.5058C55.9474 42.175 55.3454 41.9108 54.7609 41.6133C54.2394 41.3473 53.7336 41.0515 53.2874 40.6735C53.0249 40.4513 52.7939 40.201 52.5786 39.935C52.5436 39.8913 52.5086 39.8493 52.4789 39.8038L52.4736 39.8056ZM39.7739 20.5818C39.8071 20.6168 39.8421 20.6465 39.8806 20.6745C40.1081 20.8495 40.3969 20.93 40.6821 20.951C41.5204 21.007 42.1661 20.5135 42.8906 20.181C43.2581 20.0113 43.6554 19.8818 44.0649 19.9168C44.1559 19.9255 44.2451 19.9413 44.3309 19.9658C44.4289 19.992 44.5234 20.0288 44.6126 20.0778C44.6896 20.1181 44.7631 20.167 44.8314 20.2195C44.8751 20.2528 45.1044 20.4856 44.9749 20.3211C44.6109 19.8468 44.2451 19.3725 43.8794 18.8983C43.8794 18.8983 43.5626 18.4993 43.2301 18.3453C42.5494 18.0285 41.8231 18.3436 41.2071 18.6656C40.6646 18.9508 40.1414 19.2448 39.5324 19.257C39.4414 19.2588 39.3486 19.2553 39.2541 19.243C38.9286 19.2028 38.6329 19.0768 38.4106 18.8353C38.4369 18.865 38.4614 18.8965 38.4876 18.9263C38.8779 19.4338 39.2699 19.9395 39.6601 20.447C39.6566 20.4435 39.6549 20.4383 39.6531 20.4348C39.6846 20.4838 39.7249 20.5363 39.7721 20.5853L39.7739 20.5818ZM45.4106 27.9423C45.7414 28.238 46.1544 28.4148 46.5831 28.511C47.4686 28.7105 48.4276 28.644 49.2729 29.001C49.3464 29.0325 49.4181 29.0676 49.4881 29.1061C49.6649 29.2006 49.8311 29.3178 49.9781 29.4508C50.0324 29.5015 50.0831 29.554 50.1339 29.6065C50.1741 29.6468 50.1986 29.6696 50.2126 29.6801C49.8434 29.1673 49.4566 28.6545 49.0471 28.1715C48.9929 28.1085 48.9404 28.042 48.8861 27.9808C48.6569 27.72 48.3821 27.503 48.0671 27.3508C47.5666 27.111 46.9996 27.0445 46.4536 26.9815C45.9111 26.9203 45.3529 26.8748 44.8366 26.6875C44.8261 26.684 44.8156 26.6788 44.8034 26.6735C44.5689 26.5843 44.3484 26.4653 44.1594 26.3026C44.1139 26.2641 44.0754 26.2203 44.0316 26.1801C44.2136 26.4146 44.3939 26.649 44.5759 26.8818C44.9171 27.3595 45.1901 27.7183 45.2426 27.7725C45.2916 27.8373 45.3284 27.8706 45.4071 27.9405L45.4106 27.9423Z" fill="#F05222"/>
<path d="M25.0127 57.2512C25.0127 57.2512 26.2009 55.2737 27.7304 54.4845L28.5809 55.4102C28.5809 55.4102 26.5737 56.5705 26.0802 58.114L25.0144 57.2495L25.0127 57.2512Z" fill="#FF8128"/>
<path d="M94.7838 35.182C94.7838 35.182 92.5088 35.567 90.9146 34.9178L91.065 33.67C91.065 33.67 93.2525 34.44 94.747 33.81L94.7838 35.182Z" fill="#FF8128"/>
<path d="M82.7088 29.988C82.8435 29.974 82.9923 29.9408 83.1323 29.8865C83.1498 29.9128 83.169 29.9373 83.1848 29.9653C83.2268 30.0405 83.2583 30.1228 83.2688 30.2085C83.274 30.247 83.2758 30.2838 83.2723 30.3223C83.2688 30.3765 83.2198 30.5253 83.176 30.59C83.0185 30.828 82.7263 30.9645 82.455 31.0293C81.7533 31.1938 80.9885 30.87 80.4705 30.394C80.1363 30.0878 79.8878 29.708 79.739 29.2915C80.0505 29.1813 80.3795 29.1218 80.7103 29.1043C80.8888 29.309 81.097 29.4893 81.335 29.6363C81.7393 29.8848 82.2328 30.0405 82.707 29.9898L82.7088 29.988ZM78.3758 30.3538C78.3635 30.3748 78.3513 30.3958 78.339 30.4168C78.3268 30.4395 78.269 30.527 78.2043 30.7195C78.1378 30.919 78.108 31.1273 78.1238 31.3373C78.2218 32.5763 79.6288 33.3533 80.7593 33.3025C81.0393 33.2903 81.3123 33.2255 81.5608 33.0995C81.58 33.0908 81.6325 32.942 81.6308 32.9438C81.685 32.8178 81.7375 32.6918 81.7918 32.5658C81.8443 32.4398 81.8985 32.312 81.9493 32.186C81.9598 32.158 81.9895 32.0373 82.0123 32.0268C80.9273 32.571 79.3453 32.004 78.773 30.933C78.633 30.6705 78.5578 30.3748 78.5718 30.079C78.542 30.1158 78.5123 30.1508 78.4843 30.1893C78.4458 30.2418 78.409 30.2978 78.3758 30.3538ZM79.7793 27.321C79.6655 27.6413 79.592 27.9703 79.5833 28.315C79.5833 28.3815 79.5833 28.448 79.5868 28.5145C79.7775 28.3903 79.9823 28.2923 80.1958 28.217C80.0593 27.832 80.005 27.4155 80.0505 26.9973C80.0628 26.8888 80.082 26.7803 80.1048 26.6735C80.0243 26.7995 79.9508 26.9308 79.8843 27.0673C79.8598 27.1163 79.8003 27.2598 79.7793 27.321ZM81.7795 21.8593C81.7603 21.8978 81.6955 22.0133 81.6203 22.2443C81.4225 22.8533 81.4505 23.5113 81.6395 24.1238C81.678 24.248 81.7235 24.3705 81.7725 24.4913C82 24.3688 82.2415 24.2673 82.4918 24.192C82.5285 24.1815 82.5653 24.1728 82.602 24.1623C82.1383 23.4448 81.8705 22.6188 81.944 21.7875C81.9528 21.6965 81.9668 21.6073 81.9843 21.5198C81.9405 21.5828 81.8968 21.6475 81.8583 21.7158C81.8303 21.763 81.804 21.812 81.7795 21.861V21.8593ZM86.746 26.5493C86.7513 26.5248 86.7583 26.5003 86.7618 26.4758C86.7863 26.3393 86.7775 26.215 86.7425 26.103C86.5308 26.2465 86.2718 26.3095 86.0163 26.3183C85.5298 26.3358 85.038 26.1765 84.604 25.9613C84.1543 25.739 83.7185 25.4275 83.3353 25.0548C82.9345 25.0705 82.539 25.1265 82.1558 25.2315C82.6528 26.0085 83.3738 26.6578 84.1858 27.0498C84.8263 27.3595 85.7485 27.6133 86.3575 27.1303C86.4888 27.0253 86.585 26.887 86.6725 26.7418C86.7005 26.6945 86.739 26.579 86.746 26.5493Z" fill="#FF8128"/>
<path d="M82.8975 28.2993C83.2457 28.4393 83.6552 28.7175 83.7182 29.1218C83.7427 29.2845 83.671 29.4403 83.671 29.4403C83.545 29.7395 83.419 30.037 83.293 30.3363C83.2737 30.3853 83.2527 30.422 83.2492 30.4308C83.2387 30.4483 83.272 30.3625 83.2737 30.324C83.2772 30.2855 83.2737 30.2488 83.2702 30.2103C83.2597 30.1245 83.2282 30.0423 83.1862 29.967C83.1705 29.939 83.1512 29.9145 83.1337 29.8883C83.0095 29.7063 82.8345 29.561 82.6402 29.4595C82.2167 29.2373 81.7092 29.1393 81.2385 29.1043C81.0635 29.092 80.8885 29.092 80.7117 29.1025C80.381 29.1218 80.0502 29.1813 79.7405 29.2898C79.4587 29.3895 79.1927 29.5278 78.9547 29.7115C78.8147 29.82 78.6852 29.9425 78.5732 30.0773C78.5435 30.114 78.5137 30.149 78.4857 30.1875C78.4472 30.24 78.4105 30.296 78.3772 30.352C78.365 30.373 78.3527 30.394 78.3405 30.415C78.3282 30.4378 78.316 30.4605 78.3037 30.4833C78.421 30.2015 78.54 29.9215 78.6572 29.6398C78.6677 29.6118 78.68 29.5803 78.6975 29.54C78.8725 29.1463 79.1402 28.8243 79.4902 28.5758C79.5217 28.553 79.5567 28.5355 79.5882 28.5145C79.779 28.3903 79.9837 28.2923 80.1972 28.217C80.6715 28.0508 81.1877 27.9948 81.69 28.0315C82.0995 28.0613 82.516 28.1453 82.8992 28.2975L82.8975 28.2993ZM84.721 24.01C84.0122 23.9453 83.286 23.975 82.6 24.1623C82.5632 24.1728 82.5265 24.1815 82.4897 24.192C82.2395 24.2673 81.998 24.3688 81.7705 24.4913C81.3277 24.7293 80.9357 25.0548 80.64 25.4695C80.4387 25.7495 80.318 26.012 80.2392 26.2168C80.2375 26.1818 79.8297 27.1758 79.884 27.0655C79.9505 26.929 80.024 26.7995 80.1045 26.6718C80.1727 26.565 80.2462 26.4618 80.3267 26.3638C80.6505 25.9718 81.067 25.6655 81.5307 25.4538C81.7337 25.361 81.942 25.2875 82.1555 25.2298C82.5387 25.1248 82.936 25.0688 83.335 25.053C83.7095 25.0373 84.0875 25.0565 84.4567 25.0985C84.9432 25.1545 85.442 25.2438 85.911 25.3995C86.275 25.5203 86.6355 25.7513 86.7422 26.1013C86.7772 26.2133 86.786 26.3375 86.7615 26.474C86.7562 26.4985 86.751 26.523 86.7457 26.5475C86.7387 26.5773 86.709 26.6543 86.7055 26.67C86.8542 26.3603 87.0222 25.956 87.1395 25.6358C87.1325 25.6428 87.1202 25.6725 87.108 25.6953C87.1045 25.7023 87.101 25.7075 87.0975 25.7145C87.1325 25.6515 87.1622 25.5903 87.1815 25.522C87.199 25.4608 87.2112 25.3995 87.2182 25.3365C87.2287 25.2158 87.2165 25.0933 87.1762 24.9778C87.1342 24.8605 87.0625 24.7538 86.9732 24.6645C86.9575 24.6488 86.9417 24.6348 86.926 24.6208C86.625 24.3635 86.2102 24.2725 85.8357 24.1868C85.47 24.1028 85.0972 24.0415 84.7245 24.0083L84.721 24.01ZM83.0445 19.8188C82.7382 20.041 82.488 20.328 82.299 20.657C82.1765 20.8705 82.1572 20.9405 82.11 21.056C82.0802 21.1295 82.0225 21.2695 81.9227 21.5058C81.8107 21.77 81.753 21.9083 81.725 21.973C81.739 21.9415 81.76 21.896 81.7792 21.8575C81.8037 21.8085 81.83 21.7595 81.858 21.7123C81.8965 21.6458 81.9385 21.581 81.9822 21.5163C82.0085 21.4795 82.033 21.4428 82.0592 21.4078C82.376 20.9913 82.8205 20.692 83.3087 20.5083C84.4252 20.09 85.6432 20.3105 86.7317 20.748C87.031 20.867 87.3232 21.0035 87.612 21.147C87.6015 21.1418 88.0897 20.0865 88.0617 20.0743C86.5235 19.3095 84.5547 18.7198 83.041 19.817L83.0445 19.8188Z" fill="#FC9F00"/>
<path d="M147.968 30.8595C147.959 30.87 147.95 30.8822 147.942 30.8927C147.936 30.8997 147.931 30.9067 147.926 30.9137C147.94 30.8962 147.956 30.877 147.97 30.8595H147.968Z" fill="black"/>
<path d="M148.013 30.7964C148.068 30.7299 148.188 30.6162 148.264 30.5654C148.661 30.2994 149.188 30.2872 149.655 30.3799C150.666 30.5794 151.632 31.3057 152.693 31.1569C152.756 31.1482 152.817 31.1359 152.878 31.1202C153.078 31.0694 153.267 30.9854 153.438 30.8717C153.519 30.8192 153.592 30.7579 153.666 30.6949C153.683 30.6774 153.703 30.6617 153.72 30.6442C153.54 30.8629 153.361 31.0817 153.181 31.3004C152.961 31.5962 152.618 32.0232 152.581 32.0634C152.586 32.0547 152.591 32.0459 152.597 32.0372C152.556 32.1054 152.492 32.1667 152.437 32.2244C152.149 32.5307 151.776 32.7494 151.358 32.8142C150.582 32.9349 149.826 32.5517 149.116 32.2874C148.75 32.1509 148.292 32.0057 147.851 31.9829C147.828 31.8954 147.812 31.8027 147.802 31.7082C147.768 31.3827 147.803 31.0484 148.012 30.7964H148.013ZM142.489 37.4972C142.406 37.5637 142.34 37.6267 142.286 37.6827C142.156 37.8192 142.104 37.9137 142.104 37.9137C142.074 37.9644 142.041 38.0134 142.013 38.0659C141.895 38.2864 141.829 38.5279 141.794 38.7764C143.071 38.2742 144.47 38.7642 145.805 38.6872C146.48 38.6487 147.151 38.4404 147.651 37.9679C147.749 37.8752 147.842 37.7737 147.926 37.6669C147.964 37.6162 148.001 37.5654 148.033 37.5094C148.062 37.4534 148.087 37.3957 148.11 37.3379C148.138 37.2679 148.164 37.1944 148.183 37.1209C148.209 37.0229 148.223 36.9214 148.229 36.8217C146.482 37.5234 144.106 36.1847 142.487 37.5007L142.489 37.4972ZM131.749 47.9412C131.705 48.0042 131.66 48.0672 131.618 48.1319C131.534 48.2632 131.458 48.3997 131.387 48.5397C131.397 48.5309 131.409 48.5204 131.42 48.5117C132.676 47.4967 134.255 46.9542 135.816 46.6182C137.26 46.3084 138.943 46.0004 139.969 44.8367C140.002 44.7982 140.035 44.7597 140.07 44.7212C140.077 44.7054 140.093 44.6757 140.124 44.6284C140.165 44.5672 140.205 44.5059 140.242 44.4412C140.34 44.2679 140.415 44.0789 140.469 43.8864C140.016 44.1594 139.512 44.3519 139.01 44.5059C137.757 44.8927 136.451 45.0572 135.217 45.5157C133.957 45.9847 132.746 46.6304 131.919 47.7049C131.793 47.8694 131.766 47.9167 131.749 47.9412Z" fill="#FC9F00"/>
<path d="M130.708 49.1838C130.736 49.154 130.764 49.126 130.792 49.098C131.128 48.6885 131.464 48.2791 131.8 47.8696C131.738 47.9571 131.675 48.041 131.619 48.132C131.535 48.2633 131.46 48.3998 131.388 48.5398C131.29 48.7323 131.203 48.9318 131.126 49.1348C130.881 49.7875 130.743 50.4736 130.582 51.1508C130.415 51.8491 130.219 52.5455 129.878 53.179C129.771 53.3768 129.649 53.5623 129.519 53.7425C129.308 53.8318 129.096 53.9123 128.882 53.9875C128.914 53.9 128.949 53.8143 128.977 53.725C129.173 53.0985 129.295 52.4528 129.456 51.8158C129.6 51.2488 129.775 50.6888 130.043 50.169C130.2 49.8645 130.393 49.5828 130.604 49.3133C130.639 49.2696 130.673 49.2258 130.709 49.1855L130.708 49.1838ZM146.612 32.515C146.585 32.5553 146.564 32.5973 146.545 32.6393C146.426 32.9 146.41 33.1993 146.456 33.4828C146.587 34.314 147.214 34.832 147.7 35.4638C147.947 35.784 148.164 36.1428 148.22 36.5505C148.232 36.6398 148.236 36.7308 148.232 36.8218C148.227 36.9233 148.213 37.023 148.187 37.121C148.164 37.205 148.134 37.2873 148.097 37.366C148.075 37.4168 147.9 37.6915 148.029 37.5288C148.411 37.0668 148.79 36.6048 149.172 36.1445C149.172 36.1445 149.49 35.7473 149.566 35.3885C149.721 34.6535 149.254 34.0148 148.803 33.488C148.404 33.0225 147.999 32.5798 147.852 31.9865C147.83 31.899 147.814 31.8063 147.803 31.7118C147.77 31.3863 147.828 31.0695 148.013 30.8C147.989 30.8315 147.966 30.863 147.942 30.8945C147.536 31.388 147.128 31.8833 146.722 32.3768C146.725 32.3733 146.729 32.3698 146.732 32.3663C146.692 32.4083 146.648 32.459 146.613 32.515H146.612ZM140.695 39.6498C140.48 40.0383 140.401 40.4793 140.403 40.9203C140.406 41.8285 140.684 42.7473 140.525 43.652C140.511 43.7308 140.492 43.8078 140.471 43.8848C140.417 44.0773 140.341 44.2663 140.243 44.4395C140.207 44.5043 140.166 44.5638 140.126 44.6268C140.095 44.674 140.079 44.7038 140.072 44.7195C140.488 44.2453 140.903 43.7535 141.283 43.2478C141.334 43.1813 141.384 43.1148 141.433 43.0483C141.636 42.7665 141.787 42.4498 141.864 42.1085C141.986 41.5678 141.925 41.0008 141.864 40.4548C141.803 39.9123 141.722 39.3575 141.79 38.8133C141.79 38.801 141.794 38.7905 141.796 38.7783C141.829 38.5315 141.897 38.2883 142.014 38.0678C142.042 38.0153 142.076 37.9663 142.105 37.9155C141.918 38.1448 141.729 38.374 141.542 38.6033C141.152 39.0425 140.863 39.3873 140.823 39.452C140.77 39.5133 140.747 39.5588 140.697 39.6498H140.695Z" fill="#F05222"/>
<path d="M111.65 33.222C111.428 33.467 111.178 33.6892 110.938 33.915C110.915 33.936 110.894 33.9552 110.871 33.9727C110.831 34.006 110.793 34.0375 110.751 34.0655C110.618 34.1582 110.465 34.2195 110.268 34.2405C109.743 34.2947 109.127 34.1617 108.544 34.0287C107.956 33.8957 107.363 33.7365 106.773 33.5912C106.321 33.481 105.865 33.369 105.424 33.3147C105.366 33.096 105.32 32.8667 105.371 32.69C105.382 32.6515 105.401 32.62 105.42 32.5867C105.425 32.578 105.427 32.5727 105.431 32.5657C105.464 32.5395 105.497 32.5132 105.537 32.4957C105.658 32.4397 105.812 32.4345 105.964 32.438C106.419 32.4502 106.915 32.5675 107.396 32.683C107.977 32.8212 108.563 32.9787 109.144 33.117C109.727 33.257 110.325 33.3952 110.873 33.404C110.926 33.404 110.978 33.404 111.031 33.4022C111.237 33.3935 111.437 33.3567 111.587 33.2587C111.619 33.2412 111.638 33.229 111.652 33.2237L111.65 33.222Z" fill="#F05222"/>
<path d="M105.712 37.4517L105.338 37.8157C105.14 38.017 105.012 38.143 104.958 38.1955C104.948 38.206 104.935 38.2147 104.927 38.2235C104.904 38.2427 104.881 38.2602 104.858 38.2777C104.549 38.5175 104.186 38.6592 103.73 38.7082C102.725 38.8185 101.439 38.5542 100.727 39.1527C100.681 39.1912 100.758 39.1125 100.765 39.1055C100.849 39.0197 100.937 38.934 101.022 38.85C101.201 38.6767 101.372 38.4929 101.565 38.332C101.896 38.0537 102.347 37.947 102.844 37.9155C103.371 37.8805 103.927 37.9154 104.451 37.8752C104.704 37.8559 104.951 37.8192 105.175 37.7457C105.191 37.7405 105.207 37.7352 105.222 37.73C105.324 37.6932 105.422 37.6495 105.511 37.597C105.551 37.5725 105.59 37.548 105.627 37.52C105.642 37.5095 105.658 37.4972 105.674 37.485C105.688 37.4727 105.7 37.4622 105.714 37.45L105.712 37.4517Z" fill="#F05222"/>
<path d="M121.933 27.741C121.686 28.0175 121.401 28.2642 121.128 28.5127C121.128 28.5127 121.128 28.5127 121.126 28.5127C121.077 28.5582 121.025 28.6002 120.97 28.6387C120.788 28.77 120.578 28.8645 120.335 28.9222C119.63 29.0867 118.802 28.9677 117.953 28.6737C116.1 28.0297 114.296 26.796 112.462 25.9542C111.585 25.5535 110.682 25.228 109.842 25.1685C109.433 25.1387 109.046 25.1737 108.701 25.277C108.713 25.2 108.733 25.1247 108.761 25.053C108.783 24.997 108.811 24.9445 108.843 24.8955C108.86 24.8692 108.88 24.8465 108.897 24.822C108.922 24.7905 108.932 24.7712 108.93 24.766C109.02 24.6907 109.114 24.6207 109.217 24.5665C110.523 23.8735 112.528 24.6732 114.233 25.5465C115.157 26.0207 116.072 26.5475 116.996 27.0182C117.854 27.4557 118.737 27.86 119.597 28.0472C120.237 28.189 120.883 28.1995 121.397 28.0245C121.506 27.9877 121.609 27.9422 121.704 27.888C121.767 27.853 121.823 27.8127 121.877 27.769C121.928 27.7287 121.942 27.7217 121.931 27.7392L121.933 27.741Z" fill="#F05222"/>
<path d="M122.185 27.3612C122.573 26.5334 122.141 25.5097 121.718 24.7362C121.464 24.2707 121.168 23.8279 120.85 23.4062C119.829 22.0552 118.419 20.6814 116.921 19.9604C116.604 19.8082 116.282 19.6909 115.969 19.6244C115.946 19.6192 115.841 19.7364 115.838 19.7434C115.733 19.8414 115.628 19.9412 115.526 20.0409C115.423 20.1407 115.32 20.2404 115.22 20.3419C115.201 20.3612 115.122 20.4767 115.096 20.4714C116.515 20.7724 118.002 22.0202 119.091 23.1979C119.703 23.8594 120.255 24.5769 120.69 25.3224C121.07 25.9682 121.375 26.6594 121.446 27.2964C121.478 27.5642 121.481 27.8582 121.362 28.1067C121.263 28.3167 120.97 28.6404 120.97 28.6404C121.025 28.6019 121.077 28.5599 121.128 28.5127C121.399 28.2624 121.686 28.0174 121.933 27.7409C122.04 27.6202 122.122 27.4942 122.183 27.3612H122.185Z" fill="#FF931E"/>
<path d="M111.852 32.9122C111.881 32.8247 111.899 32.7285 111.906 32.6252C111.929 32.2997 111.845 31.9147 111.708 31.5595C111.426 30.8227 110.945 30.0842 110.504 29.372C110.011 28.5792 109.498 27.783 109.115 26.9675C108.847 26.4005 108.623 25.774 108.703 25.277C108.716 25.2 108.735 25.1247 108.763 25.053C108.786 24.997 108.814 24.9445 108.845 24.8955C108.863 24.8692 108.882 24.8465 108.899 24.822C108.924 24.7905 108.934 24.7712 108.933 24.766C108.789 24.8885 108.661 25.0302 108.528 25.1597C108.402 25.2822 108.261 25.3995 108.136 25.5325C108.061 25.6147 107.991 25.7022 107.937 25.8002C107.814 26.0207 107.788 26.3025 107.832 26.6017C107.932 27.3105 108.35 28.084 108.759 28.7927C109.22 29.589 109.739 30.3695 110.205 31.1657C110.522 31.7065 110.84 32.2752 110.973 32.893C111.015 33.0907 111.057 33.3235 111.013 33.5247C110.971 33.7225 110.868 33.9045 110.751 34.0655C110.793 34.0375 110.831 34.006 110.872 33.9727C110.894 33.9552 110.915 33.936 110.938 33.915C111.178 33.6892 111.428 33.4652 111.65 33.222C111.668 33.2027 111.687 33.1835 111.705 33.1625C111.768 33.0907 111.818 33.0085 111.852 32.9122Z" fill="#FF931E"/>
<path d="M105.98 37.135C106.048 37.0177 106.101 36.8865 106.132 36.7465C106.288 36.0832 106.055 35.2555 105.796 34.475C105.679 34.125 105.55 33.7715 105.452 33.4215C105.441 33.3847 105.432 33.3497 105.422 33.313C105.364 33.0942 105.319 32.865 105.369 32.6882C105.38 32.6497 105.399 32.6182 105.418 32.585C105.424 32.5762 105.425 32.571 105.429 32.564C105.389 32.599 105.352 32.6375 105.315 32.6725C105.135 32.8405 104.96 33.012 104.785 33.1852C104.725 33.2447 104.657 33.3025 104.599 33.3672C104.584 33.3847 104.57 33.4005 104.556 33.418C104.445 33.565 104.47 33.7942 104.515 34.0112C104.661 34.7042 104.988 35.4235 105.163 36.1235C105.263 36.5172 105.306 36.9075 105.305 37.2662C105.305 37.5795 105.081 37.961 105.042 38.0152C105.014 38.0555 104.895 38.2462 104.855 38.276C104.878 38.2585 104.9 38.2392 104.923 38.2217C104.934 38.213 104.944 38.2042 104.955 38.1937C105.009 38.1412 105.135 38.0152 105.334 37.814L105.709 37.45C105.782 37.3922 105.879 37.2837 105.933 37.2032C105.947 37.1822 105.963 37.1577 105.977 37.135H105.98Z" fill="#FF931E"/>
<path d="M37.3536 58.8087C37.3449 58.814 37.3344 58.821 37.3256 58.828C37.3221 58.828 37.3204 58.8315 37.3169 58.8332C37.3291 58.8262 37.3396 58.8175 37.3519 58.8105L37.3536 58.8087Z" fill="url(#paint0_linear_22_2723)"/>
<path d="M39.6973 65.9242C39.6973 65.9242 39.7008 65.919 39.7043 65.9172C39.7113 65.9085 39.72 65.9015 39.7288 65.8927C39.7183 65.9032 39.7095 65.9137 39.699 65.9242H39.6973Z" fill="url(#paint1_linear_22_2723)"/>
<path d="M41.1006 64.743C41.1006 64.743 41.1163 64.7325 41.1251 64.7272C41.1286 64.7237 41.1321 64.722 41.1373 64.7202C41.1251 64.729 41.1146 64.736 41.1023 64.7447L41.1006 64.743Z" fill="url(#paint2_linear_22_2723)"/>
<path d="M42 59.934C42 59.934 42.014 59.9235 42.021 59.92C42.3133 59.7293 42.6493 59.6208 43.008 59.5858C43.4525 59.542 43.9338 59.612 44.4185 59.7853C44.464 59.7555 44.506 59.724 44.548 59.6873C44.597 59.6488 44.646 59.6085 44.6933 59.57C44.912 59.3933 45.129 59.213 45.346 59.031C45.5613 58.8508 45.7765 58.6688 45.9883 58.4833C45.9848 58.4833 46.2315 58.2383 46.2525 58.247C45.4983 57.9775 44.744 57.953 44.1315 58.2295C43.6153 58.4623 43.197 58.912 42.7683 59.2848C42.315 59.6505 42.0315 59.8815 41.9143 59.9813C41.909 59.9865 41.9038 59.99 41.9003 59.9935C41.895 59.997 41.8915 60.0005 41.888 60.004C41.8758 60.0145 41.8653 60.0268 41.853 60.0373C41.8583 60.0373 41.8985 60.0075 41.9755 59.9498C41.9825 59.9445 41.9913 59.9393 42 59.9323V59.934Z" fill="#FFA761"/>
<path d="M29.1691 67.9963C29.1726 68.0418 28.8926 68.2448 28.9084 68.2308C28.6949 68.4163 28.4796 68.5983 28.2626 68.7785C28.0456 68.9588 27.8304 69.1408 27.6116 69.3175C27.5626 69.356 27.5154 69.3963 27.4664 69.4348C27.4261 69.4715 27.3824 69.503 27.3369 69.5328C27.2546 68.2658 27.3229 66.9883 27.9861 66.2025C28.0579 66.1168 28.1366 66.038 28.2171 65.9628C28.2521 65.9295 28.4359 65.8 28.4709 65.7755C28.5916 65.6985 28.7176 65.6303 28.8471 65.5708C29.0309 65.4885 29.2216 65.4255 29.4176 65.3783C29.1376 66.1203 29.1096 67.0513 29.1709 67.9945L29.1691 67.9963Z" fill="#F05222"/>
<path d="M29.9163 64.5575C29.9163 64.5575 29.911 64.5645 29.9093 64.5663C29.9093 64.5663 29.9093 64.5663 29.9058 64.568C29.9093 64.5645 29.9128 64.561 29.9163 64.5558V64.5575Z" fill="#FFA761"/>
<path d="M39.0253 66.4177C39.2476 66.3057 39.4506 66.1622 39.6466 66.0064C39.9038 65.7999 40.1488 65.5689 40.3886 65.3537C40.6371 65.1314 41.1061 64.7482 41.1638 64.6992C41.1516 64.7079 41.1376 64.7167 41.1253 64.7254C41.1288 64.7237 41.1323 64.7202 41.1376 64.7184C41.1253 64.7272 41.1131 64.7342 41.1026 64.7429C41.1113 64.7377 41.1183 64.7307 41.1253 64.7254C41.0221 64.7937 40.9171 64.8532 40.8068 64.9057C40.6178 64.9949 40.4201 65.0649 40.2171 65.1174C39.5118 65.2977 38.7243 65.2679 37.9246 65.1104C36.9428 64.9197 35.9471 64.5644 34.9566 64.2617C33.9818 63.9642 32.9983 63.7087 32.0726 63.7332C31.6106 63.7454 31.1678 63.8294 30.7653 63.9974C30.2193 64.2232 29.8011 64.6519 29.3496 65.0299C29.0276 65.2994 28.7038 65.5672 28.3818 65.8384C28.3871 65.8349 28.3923 65.8314 28.3993 65.8262C28.4186 65.8122 28.4396 65.7964 28.4606 65.7824C28.4641 65.7824 28.4658 65.7789 28.4676 65.7772C28.5883 65.7002 28.7143 65.6319 28.8456 65.5724C29.0293 65.4902 29.2201 65.4272 29.4161 65.3799C30.2368 65.1857 31.1591 65.2837 32.0901 65.5112C33.2538 65.7964 34.4281 66.2549 35.5918 66.5384C36.8151 66.8377 38.0366 66.9164 39.0253 66.4159V66.4177Z" fill="#FFA761"/>
<path d="M41.1689 64.6957C41.1531 64.7062 41.1391 64.7167 41.1234 64.7272C41.0219 64.7937 40.9151 64.8549 40.8049 64.9074C40.6159 64.9984 40.4181 65.0667 40.2134 65.1192C40.5266 64.4122 40.6579 63.5477 40.8066 62.7164C40.8644 62.3874 40.9274 62.0619 41.0026 61.7434C41.0814 61.4109 41.1619 61.0714 41.2966 60.7809C41.4349 60.4782 41.6309 60.2454 41.8531 60.0389C41.8549 60.0389 41.8951 60.0127 41.9756 59.9514C41.9844 59.9462 41.9914 59.9392 42.0001 59.9339C42.0071 59.9287 42.0141 59.9234 42.0211 59.9199C42.3134 59.7292 42.6494 59.6207 43.0081 59.5857C42.9101 59.8744 42.8384 60.1859 42.7719 60.5009C42.6406 61.1257 42.5496 61.7767 42.4166 62.4014C42.2924 62.9877 42.1226 63.5494 41.8321 64.0027C41.6291 64.3194 41.1846 64.6852 41.1689 64.6957Z" fill="#F05222"/>
<path d="M37.219 58.8893C37.198 58.9085 37.1787 58.926 37.1577 58.9453C37.1577 58.9453 37.177 58.9243 37.219 58.8893Z" fill="url(#paint3_linear_22_2723)"/>
<path d="M63.0091 31.7502C63.0091 31.7502 63.0091 31.7572 63.0091 31.7607C63.0091 31.7555 63.0091 31.7502 63.0073 31.745V31.7502H63.0091Z" fill="#8654D8"/>
<path d="M43.346 68.5405C43.346 68.5405 43.3495 68.537 43.3495 68.5352C43.3495 68.5352 43.3495 68.5335 43.3512 68.5317C43.3495 68.5352 43.3477 68.537 43.3442 68.5405H43.346Z" fill="black"/>
<path d="M43.3528 68.5318C43.3528 68.5318 43.3528 68.5335 43.3511 68.5353C43.3511 68.5335 43.3546 68.5318 43.3563 68.5283C43.3598 68.523 43.3633 68.5195 43.3651 68.5143C43.3616 68.5195 43.3563 68.5248 43.3528 68.53V68.5318Z" fill="black"/>
<path d="M32.711 82.8835C32.7897 82.411 32.942 81.942 33.1887 81.5308C32.9682 81.6025 32.7582 81.7075 32.564 81.8405C32.5552 81.8475 32.5447 81.8545 32.536 81.8598C32.4642 81.914 32.396 81.9613 32.3312 82.0243C32.263 82.0925 32.1965 82.1608 32.1335 82.2343C32.0075 82.3778 31.8937 82.5318 31.7992 82.6963C31.367 83.454 31.2462 84.3623 31.297 85.2198C31.3985 86.9663 32.2157 88.6393 33.481 89.824C33.789 90.1128 34.1232 90.3718 34.4802 90.5975C34.489 90.6028 34.7095 90.4173 34.6832 90.4383C34.8442 90.3088 35.0052 90.1775 35.1645 90.0463C35.3237 89.915 35.483 89.7838 35.6422 89.6508C35.6632 89.6333 35.8312 89.4793 35.8365 89.4828C34.7497 88.7933 33.8712 87.7905 33.313 86.6268C32.7652 85.484 32.501 84.147 32.7127 82.8818L32.711 82.8835Z" fill="#BE4326"/>
<path d="M36.1814 80.4965C36.1849 80.4545 36.1884 80.4143 36.1954 80.374C36.1796 80.0503 36.1954 79.7248 36.2584 79.4028C36.3231 79.065 36.4334 78.7325 36.5961 78.4315C36.3704 78.4893 36.1551 78.5873 35.9539 78.7238C35.9451 78.729 35.9381 78.736 35.9294 78.7413C35.7579 78.8568 35.6686 78.939 35.5006 79.1473C35.2259 79.4868 35.0456 79.8928 34.9424 80.3198C35.3641 80.2655 35.7841 80.3443 36.1831 80.4948L36.1814 80.4965Z" fill="#BE4326"/>
<path d="M37.8735 84.2258C37.8735 84.2258 37.8735 84.224 37.8717 84.2223C37.7667 84.1803 37.6687 84.126 37.5795 84.0613C37.0265 83.7883 36.7185 83.2405 36.5172 82.6665C36.1532 82.355 35.7595 82.0715 35.3377 81.8458C35.1785 81.76 35.014 81.683 34.8442 81.6183C34.9142 82.5108 35.245 83.391 35.7455 84.1243C36.0132 84.5163 36.337 84.8768 36.7132 85.169C36.8742 85.2933 37.0422 85.4158 37.2172 85.5173C37.3625 85.6013 37.5532 85.6975 37.7265 85.6555C37.7702 85.645 37.8087 85.6258 37.8472 85.6013C37.8875 85.575 37.8962 85.561 37.905 85.5523C38.2707 85.1603 38.1132 84.6353 37.8735 84.2258Z" fill="#BE4326"/>
<path d="M38.5261 77.2591C38.8989 77.28 39.2611 77.3815 39.6094 77.5268C39.5499 77.3185 39.5079 77.105 39.4974 76.888C39.4834 76.6168 39.5201 76.3403 39.6111 76.0865C39.3539 76.1268 39.1036 76.2178 38.8674 76.3805C38.8761 76.3753 38.8849 76.3683 38.8936 76.363C38.8429 76.398 38.8149 76.4173 38.8026 76.4226C38.7851 76.4383 38.7659 76.454 38.7484 76.4698C38.5944 76.6063 38.4631 76.7638 38.3669 76.9476C38.3126 77.0508 38.2689 77.1575 38.2339 77.2678C38.3301 77.2573 38.4281 77.2555 38.5279 77.2608L38.5261 77.2591Z" fill="#BE4326"/>
<path d="M45.3495 75.1153C45.164 74.6358 44.9068 74.081 44.9575 73.5718C44.9575 73.5718 44.9243 73.5718 44.9208 73.5718C44.6215 73.5875 44.3188 73.6908 44.072 73.871C43.9145 73.9883 43.7815 74.137 43.6993 74.3173C43.4683 74.8108 43.6398 75.3603 43.8358 75.8415C44.0545 75.9553 44.2733 76.069 44.4973 76.1758C44.5078 76.181 44.5183 76.1863 44.5288 76.1915C44.541 76.1968 44.5515 76.202 44.562 76.209C44.5743 76.2143 44.5848 76.2213 44.597 76.2265C44.6093 76.2318 44.6215 76.2388 44.632 76.244C44.6443 76.251 44.6565 76.2563 44.6688 76.2615C44.681 76.2685 44.6933 76.2738 44.7073 76.279C44.7195 76.2843 44.7318 76.2913 44.7458 76.2965C44.758 76.3018 44.772 76.3088 44.7843 76.314C44.7965 76.3193 44.8105 76.3245 44.8228 76.3298C44.835 76.335 44.849 76.3403 44.863 76.3455C44.877 76.3508 44.8893 76.356 44.9033 76.3595C44.9173 76.3648 44.9295 76.3683 44.9435 76.3718C44.9575 76.3753 44.9698 76.3788 44.9838 76.3823C44.9978 76.3858 45.01 76.3893 45.024 76.391C45.038 76.3945 45.0503 76.3963 45.0643 76.398C45.0783 76.3998 45.0905 76.4015 45.1045 76.4033C45.1168 76.4033 45.1308 76.405 45.143 76.405C45.1553 76.405 45.1693 76.405 45.1815 76.405C45.1938 76.405 45.2078 76.4033 45.22 76.4015C45.2323 76.3998 45.2445 76.398 45.2568 76.3945C45.269 76.391 45.2813 76.3875 45.2935 76.384C45.3058 76.3788 45.318 76.3753 45.3285 76.37C45.3408 76.3648 45.353 76.3578 45.3635 76.3508C45.374 76.3438 45.3828 76.3385 45.3915 76.3315C45.4073 76.3193 45.4265 76.3018 45.4405 76.286C45.5193 76.195 45.5455 76.0725 45.549 75.9553C45.556 75.6683 45.4528 75.3813 45.3513 75.1188L45.3495 75.1153Z" fill="#BE4326"/>
<path d="M41.491 80.9638C41.4157 80.9988 41.3597 81.0513 41.0097 80.752C40.5862 80.3915 40.371 79.9593 40.1942 79.52C40.0332 79.408 39.8687 79.303 39.7025 79.198C39.3175 78.9565 38.9325 78.715 38.5265 78.5103C38.3917 78.442 38.2552 78.379 38.1152 78.3213C38.208 78.6468 38.4862 79.2873 38.6332 79.59C38.8642 80.0625 39.1285 80.5245 39.4645 80.9288C39.7007 81.214 39.9685 81.4853 40.28 81.6865C40.4777 81.8143 40.7087 81.9193 40.9467 81.9245C41.106 81.928 41.2267 81.9105 41.3737 81.7775C41.526 81.6165 41.6222 81.3995 41.5715 81.1983C41.5522 81.1178 41.5225 81.039 41.4892 80.9638H41.491Z" fill="#BE4326"/>
<path d="M40.0225 75.4285C40.0155 75.4355 40.0085 75.4408 40.0015 75.4478C40.0085 75.4408 40.0172 75.4338 40.0242 75.4268L40.0225 75.4285Z" fill="#BB0059"/>
<path d="M45.2656 72.898C45.2656 72.898 45.2796 72.8857 45.2831 72.8822C45.2831 72.8805 45.2866 72.8787 45.2884 72.877C45.2814 72.884 45.2726 72.891 45.2656 72.898Z" fill="#BB0059"/>
<path d="M42.6706 80.7135C42.6706 80.7135 42.6653 80.717 42.6636 80.7205C42.6688 80.717 42.6741 80.7135 42.6793 80.71C42.6776 80.71 42.6741 80.7135 42.6723 80.7152L42.6706 80.7135Z" fill="#BB0059"/>
<path d="M44.1055 73.8501C44.1055 73.8501 44.1107 73.8466 44.1125 73.8448C44.1177 73.8413 44.123 73.8378 44.1317 73.8308C44.123 73.8361 44.1142 73.8431 44.1055 73.8483V73.8501Z" fill="#BB0059"/>
<path d="M42.6703 80.7135L42.6528 80.7275C42.6528 80.7275 42.6598 80.7223 42.6633 80.7205C42.6651 80.7188 42.6686 80.717 42.6703 80.7135Z" fill="#BB0059"/>
<path d="M33.623 80.9725C33.623 80.9725 33.6335 80.962 33.6405 80.9568C33.6423 80.955 33.644 80.9533 33.6458 80.9515C33.6388 80.9585 33.63 80.9655 33.623 80.9725Z" fill="#BB0059"/>
<path d="M37.0947 77.7699C37.1035 77.7629 37.114 77.7559 37.1227 77.7472C37.1157 77.7524 37.107 77.7594 37.0947 77.7699Z" fill="#BB0059"/>
<path d="M32.5571 81.844C32.5571 81.844 32.5606 81.8423 32.5641 81.8405C32.5711 81.8353 32.5764 81.8318 32.5834 81.8265C32.5746 81.8318 32.5659 81.8388 32.5571 81.844Z" fill="#BB0059"/>
<path d="M35.9487 78.7273C35.9487 78.7273 35.9522 78.7255 35.954 78.7238C35.961 78.7185 35.968 78.7133 35.975 78.708C35.9662 78.715 35.9575 78.7203 35.9487 78.7255V78.7273Z" fill="#BB0059"/>
<path d="M37.0215 77.8505C37.0215 77.8505 37.0355 77.8365 37.0442 77.8295C37.0442 77.8295 37.0285 77.8435 37.0215 77.8505Z" fill="#BB0059"/>
<path d="M44.0633 77.4165C44.0633 77.4165 44.0685 77.4113 44.072 77.4095C44.0738 77.4078 44.0755 77.406 44.0773 77.4043C44.072 77.4095 44.0668 77.413 44.0615 77.4183L44.0633 77.4165Z" fill="#BB0059"/>
<path d="M41.7588 78.6643C40.6773 77.8033 38.8555 76.7165 37.4643 77.511C37.3785 77.56 37.2963 77.616 37.2175 77.6755C37.186 77.7 37.1545 77.7245 37.123 77.7473C37.1143 77.7543 37.1038 77.7613 37.095 77.77C37.0163 77.833 36.8168 78.001 36.4948 78.2758C35.9015 78.7483 35.7125 78.9023 35.9278 78.7413C35.9365 78.736 35.9435 78.729 35.9523 78.7238C36.1535 78.5873 36.3688 78.4893 36.5945 78.4315C37.802 78.1235 39.2563 78.8848 40.175 79.6058C40.6213 79.9558 42.016 81.095 41.3738 81.7775C41.3808 81.7705 41.3895 81.7635 41.3965 81.7565C41.4088 81.7478 41.4193 81.7373 41.4298 81.7285C41.841 81.3925 42.2505 81.0548 42.6618 80.7188C42.674 80.71 42.6863 80.703 42.6985 80.6925C43.3688 80.157 42.1455 78.9705 41.7605 78.6625L41.7588 78.6643Z" fill="#EB5647"/>
<path d="M39.1387 82.9955C38.6224 82.159 37.8682 81.4608 37.0439 80.9375C36.7832 80.7713 36.4979 80.619 36.1987 80.5035C35.7962 80.3478 35.3674 80.2655 34.9387 80.3215C34.8984 80.3268 34.8582 80.332 34.8179 80.3408C34.3962 80.423 34.0532 80.6295 33.7242 80.8763C33.6909 80.9025 33.3444 81.1878 33.0977 81.396C32.5062 81.8668 32.2892 82.0505 32.5342 81.8598C32.5429 81.8528 32.5534 81.8458 32.5622 81.8405C32.7564 81.7075 32.9664 81.6025 33.1869 81.5308C33.4442 81.4468 33.7137 81.4065 33.9867 81.4223C34.2807 81.4398 34.5677 81.5115 34.8424 81.6183C35.0122 81.683 35.1767 81.76 35.3359 81.8458C35.8067 82.0978 36.2424 82.4215 36.6414 82.775C37.1017 83.1845 37.5147 83.6553 37.8314 84.189C37.9627 84.4113 38.1097 84.6895 38.1097 84.9573C38.1097 85.1778 38.0607 85.3895 37.9049 85.5523C37.9119 85.5453 37.9207 85.5383 37.9277 85.5313C38.0169 85.456 38.1062 85.3808 38.1954 85.3073C38.5262 85.0378 38.8587 84.7665 39.1894 84.497C39.1894 84.497 39.1912 84.497 39.1929 84.4953C39.7179 84.063 39.4012 83.4243 39.1387 82.999V82.9955Z" fill="#EB5647"/>
<path d="M44.4957 76.174C44.2735 76.069 44.0547 75.9535 43.8342 75.8398C43.7835 75.8135 43.7327 75.7873 43.682 75.761C43.115 75.4688 42.5322 75.1748 41.9075 75.0295C41.3317 74.8948 40.7245 74.9175 40.2222 75.264C40.168 75.3008 40.1155 75.341 40.063 75.3813C40.0105 75.4233 39.958 75.4653 39.9055 75.5073C39.5345 75.8065 39.1092 76.1443 38.7505 76.4593C38.761 76.4558 38.8205 76.4103 38.8677 76.3753C39.1022 76.2143 39.3525 76.1233 39.608 76.083C40.5285 75.9413 41.5382 76.4698 42.324 76.874C42.5935 77.014 42.863 77.1558 43.1377 77.287C43.3845 77.4043 43.7502 77.6283 44.0127 77.455C44.0705 77.4165 44.0687 77.4078 44.0687 77.4078C44.0652 77.4095 44.0617 77.413 44.06 77.4148C44.0652 77.4113 44.0705 77.406 44.0757 77.4008C44.074 77.4025 44.0722 77.4043 44.0705 77.406C44.4992 77.0525 45.362 76.3438 45.3672 76.3403C45.1047 76.5118 44.7407 76.2895 44.494 76.1723L44.4957 76.174Z" fill="#EB5647"/>
<path d="M48.4469 73.2969C48.4346 73.2899 48.4224 73.2812 48.4101 73.2742C47.7854 72.8927 47.1116 72.4447 46.3469 72.4587C46.0091 72.4639 45.6784 72.5742 45.4036 72.7754C45.3634 72.8034 45.2811 72.8822 45.2811 72.8822C44.9084 73.1884 44.1681 73.7974 44.1139 73.8429C44.1191 73.8394 44.1244 73.8359 44.1296 73.8324C44.1226 73.8377 44.1156 73.8429 44.1104 73.8464C44.3904 73.6609 44.6739 73.5804 44.9574 73.5717C45.5576 73.5542 46.1596 73.8622 46.7144 74.1894C47.2604 73.8377 47.8483 73.5507 48.4451 73.2987L48.4469 73.2969Z" fill="#EB5647"/>
<path d="M44.1055 73.8501C44.1055 73.8501 44.1107 73.8466 44.1125 73.8448C44.1125 73.8448 44.1125 73.8448 44.116 73.8413C44.1125 73.8431 44.109 73.8466 44.1055 73.8483V73.8501Z" fill="#F04163"/>
<path d="M45.2851 72.8822C45.2851 72.8822 45.2886 72.8787 45.2903 72.877C45.2833 72.884 45.2746 72.891 45.2676 72.898C45.2746 72.891 45.2816 72.8857 45.2851 72.8822Z" fill="#F04163"/>
<path d="M49.2573 74.7635C49.2573 74.7635 49.2573 74.7635 49.2555 74.7635C49.2538 74.7652 49.252 74.767 49.2485 74.7687C49.252 74.767 49.2538 74.7635 49.2573 74.7617V74.7635Z" fill="#F04163"/>
<path d="M40.0208 75.4285C40.0138 75.4355 40.005 75.4425 39.998 75.4495C40.0068 75.4425 40.0138 75.4355 40.019 75.4302L40.0208 75.4285Z" fill="#F04163"/>
<path d="M38.521 41.5852C38.1605 41.6552 37.8087 41.783 37.4745 41.9527C37.4605 41.3035 37.2802 40.677 36.7937 40.1905C36.6625 40.0592 36.5137 39.9437 36.3545 39.8457C36.4192 39.8527 36.4822 39.8597 36.547 39.8702C36.6222 39.8825 36.6975 39.8982 36.7727 39.9175C36.8025 39.9245 36.8305 39.9332 36.8602 39.942C36.932 39.9595 36.9565 39.9665 37.1822 40.054C37.6022 40.2202 37.9575 40.5265 38.2147 40.8992C38.36 41.111 38.4597 41.3437 38.5245 41.5852H38.521ZM36.4105 45.4247C36.309 45.5787 36.2005 45.7292 36.0832 45.8727C36.0045 45.969 35.9222 46.0775 35.8277 46.1632C35.8242 46.1667 35.8277 46.1895 35.8277 46.1947C35.8277 46.2052 35.8277 46.2157 35.8277 46.2262C35.8277 46.2472 35.8277 46.2682 35.8312 46.2892C35.8347 46.3295 35.84 46.3697 35.8505 46.4082C35.8697 46.4817 35.903 46.5517 35.9537 46.606C35.9747 46.6287 35.9992 46.6497 36.0255 46.6655C36.0482 46.6795 36.071 46.6952 36.0972 46.704C36.1235 46.7127 36.1515 46.7197 36.1795 46.725C36.309 46.7495 36.4367 46.7512 36.5715 46.7232C36.9827 46.6357 37.2312 46.2525 37.4587 45.927C38.0065 45.1395 38.3582 44.2015 38.5297 43.26C38.584 42.959 38.619 42.6422 38.6155 42.3272C38.1342 42.5652 37.6932 42.8907 37.3117 43.2705C37.3065 43.2897 37.303 43.309 37.2977 43.3282C37.1122 44.065 36.8287 44.786 36.4122 45.4247H36.4105ZM42.5845 43.5522C42.5477 43.3912 42.4952 43.232 42.4252 43.0815C42.2572 42.721 41.9702 42.4235 41.629 42.224C41.4592 42.1242 41.279 42.056 41.0935 41.993C41.0935 41.9965 41.0725 41.993 41.0252 41.9807C40.9902 41.972 40.9535 41.9632 40.9185 41.9562C40.8607 41.944 40.803 41.9352 40.7452 41.9265C40.691 41.9195 40.6367 41.9142 40.5825 41.9107C40.894 42.1155 41.1512 42.3972 41.3035 42.742C41.4837 43.1497 41.5415 43.5995 41.5345 44.0527C41.671 43.9477 41.8145 43.8515 41.9667 43.771C42.1592 43.6695 42.3692 43.5942 42.5827 43.5522H42.5845ZM45.8202 47.6997C45.885 47.0487 45.948 46.3855 45.864 45.7327C45.787 45.1377 45.5595 44.5515 45.0555 44.1927C44.8997 44.0807 44.73 44.0055 44.548 43.9425C44.5392 43.939 44.5305 43.9355 44.5217 43.9337C44.5112 43.9337 44.485 43.932 44.4412 43.9232C44.394 43.9145 44.3467 43.9057 44.2995 43.9005C44.2207 43.8917 44.1402 43.8882 44.0597 43.8882C44.0422 43.8882 44.023 43.8882 44.0055 43.89C44.086 43.9547 44.163 44.0265 44.233 44.107C44.8507 44.8332 44.8017 45.92 44.7317 46.8107C44.695 47.2832 44.632 47.7522 44.6057 48.2247C44.5935 48.4452 44.5532 48.727 44.6617 48.9264C44.6932 48.9842 44.737 49.0245 44.786 49.056C44.8262 49.0805 44.8577 49.0927 44.891 49.1032C45.1797 49.1855 45.4965 48.9527 45.7345 48.7427C45.738 48.6955 45.7397 48.6517 45.7432 48.6115C45.7607 48.307 45.7922 48.0025 45.822 47.6997H45.8202ZM40.5387 47.8957C40.5527 48.1442 40.6472 48.4557 40.8957 48.5537C40.908 48.5572 40.9045 48.5572 40.957 48.5677C41.048 48.587 41.139 48.5852 41.2405 48.5485C41.5345 48.4452 41.7935 48.181 41.9405 47.9132C42.2012 47.4407 42.3132 46.8947 42.4112 46.3697C42.4795 46.0075 42.546 45.6435 42.595 45.2777C42.6317 45.0012 42.6615 44.7142 42.6667 44.4255C42.3727 44.6547 42.1102 44.9312 41.8652 45.206C41.6605 45.437 41.4662 45.6785 41.2895 45.9322C41.195 46.4642 41.0795 46.9962 40.8362 47.4792C40.7697 47.6122 40.6647 47.7627 40.5387 47.894V47.8957ZM53.8842 54.3585C54.2727 53.97 53.9682 53.2979 53.6165 52.9952C53.5202 52.913 53.4135 52.8587 53.2945 52.8167C53.2892 52.815 53.284 52.8132 53.2787 52.8115C53.263 52.8115 53.2297 52.8115 53.1825 52.8062C53.158 52.8045 53.1335 52.8045 53.109 52.8062C53.0687 52.8062 53.0285 52.8115 52.9865 52.8185C52.906 52.8307 52.8255 52.8535 52.7467 52.878C52.7345 52.8815 52.7222 52.8867 52.71 52.892C52.9462 53.2367 53.039 53.697 52.745 53.991C52.7467 53.9892 52.934 54.0575 52.9095 54.0487C53.0425 54.0942 53.1772 54.1379 53.3102 54.1817C53.4432 54.2254 53.578 54.2692 53.7127 54.3112C53.7337 54.3182 53.8685 54.3725 53.8807 54.362L53.8842 54.3585ZM49.9275 53.095C49.9607 53.0932 49.9922 53.0862 50.0237 53.081C49.9187 52.941 49.8575 52.773 49.8295 52.5962C49.6387 51.4342 50.2967 50.2827 49.9852 49.1225C49.861 48.657 49.5495 48.23 49.0997 48.0357C49.0875 48.0305 49.0752 48.0252 49.0612 48.02C48.93 47.971 48.9352 47.9815 48.9125 47.9762C48.7427 47.936 48.58 47.9412 48.4225 47.9762C48.6937 48.2632 48.8547 48.671 48.9055 49.0437C48.9965 49.7035 48.8337 50.3597 48.734 51.009C48.6482 51.5707 48.5152 52.4125 48.9982 52.8395C49.0962 52.9252 49.21 52.9847 49.3307 53.0302C49.357 53.0407 49.385 53.0495 49.413 53.06C49.4235 53.06 49.441 53.0617 49.469 53.0687C49.5022 53.0757 49.5337 53.0827 49.567 53.0879C49.686 53.1054 49.8067 53.109 49.9275 53.1002V53.095Z" fill="#FC9F00"/>
<path d="M39.8564 48.2142C39.8564 48.2142 39.8687 48.2177 39.8739 48.2195C39.8774 48.2195 39.8809 48.2212 39.8844 48.223C39.8757 48.2195 39.8652 48.2177 39.8564 48.2142Z" fill="black"/>
<path d="M36.0239 46.6794C36.0239 46.6794 36.0327 46.6829 36.0362 46.6847L36.0554 46.6917C36.0449 46.6882 36.0344 46.6847 36.0239 46.6812V46.6794Z" fill="black"/>
<path d="M36.1009 46.7076C36.0799 46.6988 36.0501 46.6883 36.0554 46.6901C36.0449 46.6866 36.0344 46.6831 36.0239 46.6796C36.0274 46.6796 35.4849 46.5046 35.1279 46.3891C35.1226 46.3891 35.1174 46.3891 35.1139 46.3891C35.0351 46.3628 34.9494 46.3383 34.8776 46.2928C34.5521 46.0846 34.7289 45.5421 34.8024 45.2481C34.9196 44.7738 35.1104 44.3258 35.3659 43.9111C35.8489 43.1253 36.6014 42.3938 37.4711 41.9528C37.8054 41.7831 38.1571 41.6571 38.5176 41.5853C38.9446 41.5013 39.3856 41.4978 39.8231 41.5941C39.9421 41.6203 40.0576 41.6536 40.1749 41.6886C40.4286 41.7656 40.6806 41.8548 40.9309 41.9388C40.9851 41.9563 41.0376 41.9738 41.0919 41.9931C41.0919 41.9966 41.0709 41.9931 41.0236 41.9808C40.9886 41.9721 40.9519 41.9633 40.9169 41.9563C40.8591 41.9441 40.8014 41.9353 40.7436 41.9266C40.6894 41.9196 40.6351 41.9143 40.5809 41.9108C40.5021 41.9056 40.4251 41.9003 40.3464 41.9003C40.0839 41.9003 39.8214 41.9318 39.5659 41.9878C39.2351 42.0613 38.9166 42.1768 38.6121 42.3273C38.1309 42.5653 37.6899 42.8908 37.3084 43.2706C37.1334 43.4421 36.9724 43.6258 36.8236 43.8166C36.4596 44.2856 36.1656 44.8211 35.9976 45.3916C35.9399 45.5841 35.8366 45.8903 35.8261 46.1633C35.8156 46.4013 35.8751 46.6148 36.0991 46.7076H36.1009ZM40.5389 47.8958C40.5389 47.8818 40.5371 47.8678 40.5354 47.8556C40.5284 47.5668 40.6089 47.2781 40.7104 47.0103C40.8556 46.6271 41.0551 46.2701 41.2879 45.9358C41.4646 45.6821 41.6589 45.4406 41.8636 45.2096C42.1069 44.9348 42.3694 44.6583 42.6651 44.4291C42.9399 44.2156 43.2409 44.0423 43.5821 43.9531C43.7204 43.9163 43.8621 43.8953 44.0056 43.8883C44.0231 43.8883 44.0424 43.8866 44.0599 43.8866C44.1404 43.8866 44.2191 43.8883 44.2996 43.8988C44.3469 43.9041 44.3941 43.9111 44.4414 43.9216C44.4869 43.9303 44.5114 43.9338 44.5219 43.9321C44.2226 43.8271 43.9181 43.7116 43.6101 43.6241C43.5086 43.5961 43.4071 43.5698 43.3056 43.5488C43.0659 43.4998 42.8226 43.5051 42.5846 43.5523C42.3694 43.5943 42.1611 43.6696 41.9686 43.7711C41.8146 43.8516 41.6711 43.9478 41.5364 44.0528C41.2984 44.2366 41.0831 44.4518 40.8801 44.6723C40.5214 45.0591 40.1854 45.4721 39.9194 45.9288C39.7181 46.2736 39.5449 46.6498 39.4539 47.0401C39.3751 47.3831 39.3524 47.8381 39.6341 48.1023C39.6919 48.1548 39.8301 48.2091 39.8091 48.2021C39.8319 48.2091 39.8546 48.2143 39.8756 48.2213C39.8704 48.2196 39.8651 48.2178 39.8581 48.2161C39.8686 48.2196 39.8774 48.2213 39.8861 48.2248C39.8826 48.2248 39.8791 48.2231 39.8756 48.2213C40.2169 48.3333 40.5564 48.4453 40.8959 48.5573C40.6491 48.4593 40.5546 48.1461 40.5389 47.8993V47.8958ZM34.3474 40.1521C34.9056 39.9386 35.5076 39.8108 36.1061 39.8283C36.1884 39.8301 36.2706 39.8371 36.3511 39.8458C36.4159 39.8528 36.4789 39.8598 36.5436 39.8703C36.6189 39.8826 36.6941 39.8983 36.7694 39.9176C36.7991 39.9246 36.8271 39.9333 36.8569 39.9421C36.5611 39.8406 36.0991 39.6866 36.0694 39.6761C35.9994 39.6533 35.9294 39.6323 35.8594 39.6113C35.6809 39.5588 35.5024 39.5116 35.3169 39.4871C34.4296 39.3681 33.5196 39.6096 32.7234 39.9946C31.1589 40.7541 29.9251 42.1383 29.2951 43.7553C29.1394 44.1543 29.0221 44.5673 28.9434 44.9891C28.9399 45.0066 29.4649 45.1658 29.5104 45.1798C29.5524 45.1938 30.0809 45.3531 30.0809 45.3601C30.5131 43.0606 32.1476 40.9956 34.3474 40.1538V40.1521ZM46.1336 49.4866C46.3296 49.4866 46.5151 49.3746 46.6709 49.2643C46.8844 49.1138 47.0734 48.9301 47.2589 48.7446C47.5809 48.4226 47.9764 48.0708 48.4261 47.9728C48.6029 47.9343 48.7884 47.9343 48.9826 47.9921C48.6571 47.8853 48.3316 47.7803 48.0061 47.6736C47.9729 47.6578 47.9291 47.6386 47.8644 47.6211C47.8171 47.6071 47.7594 47.5931 47.6981 47.5843C47.4426 47.5441 47.1871 47.6036 46.9579 47.7173C46.5396 47.9238 46.2369 48.2756 45.9026 48.5871C45.8536 48.6326 45.7976 48.6868 45.7346 48.7411C45.4966 48.9511 45.1799 49.1856 44.8911 49.1016C45.2569 49.2206 45.6209 49.3413 45.9866 49.4603C45.9866 49.4603 45.9866 49.4603 45.9849 49.4603C46.0479 49.4831 46.1109 49.4866 46.1336 49.4866ZM51.2419 53.4433C51.5901 53.3803 51.9139 53.2211 52.2359 53.0776C52.3916 53.0076 52.5491 52.9411 52.7119 52.8886C52.7241 52.8851 52.7364 52.8798 52.7486 52.8746C52.8274 52.8501 52.9061 52.8273 52.9884 52.8151C53.0286 52.8081 53.0689 52.8046 53.1109 52.8028C53.1354 52.8028 53.1599 52.8028 53.1844 52.8028C53.2316 52.8081 53.2631 52.8098 53.2806 52.8081C53.1406 52.7591 52.3759 52.5176 52.2376 52.4703C52.2411 52.4703 52.2446 52.4738 52.2481 52.4756C52.2026 52.4581 52.1414 52.4423 52.0626 52.4388C51.8701 52.4301 51.6881 52.4721 51.4956 52.5403C51.0091 52.7171 50.5471 53.0093 50.0274 53.0776C49.9959 53.0811 49.9644 53.0881 49.9311 53.0916C49.8104 53.1003 49.6896 53.0968 49.5706 53.0793C49.5374 53.0741 49.5059 53.0671 49.4726 53.0601C49.4446 53.0548 49.4271 53.0513 49.4166 53.0513C49.7369 53.1686 50.0641 53.2701 50.3896 53.3698C50.3966 53.3716 50.4054 53.3751 50.4141 53.3768C50.6889 53.4591 50.9584 53.4906 51.2454 53.4398L51.2419 53.4433Z" fill="#FF8128"/>
<path d="M120.713 46.7407C120.713 46.7407 120.701 46.7495 120.694 46.7547C120.694 46.7547 120.692 46.7547 120.69 46.7565C120.697 46.7512 120.704 46.746 120.711 46.7407H120.713Z" fill="black"/>
<path d="M120.523 46.8738C120.523 46.8738 120.516 46.8773 120.51 46.8808C120.477 46.9035 120.488 46.8965 120.523 46.8738Z" fill="black"/>
<path d="M121.679 46.137C121.679 46.137 121.676 46.137 121.674 46.1387C121.667 46.1422 121.662 46.1457 121.655 46.1492C121.662 46.1457 121.671 46.1405 121.678 46.137H121.679Z" fill="black"/>
<path d="M115.843 40.509C115.843 40.509 115.845 40.509 115.847 40.5073C115.962 40.4338 115.92 40.4565 115.843 40.509Z" fill="black"/>
<path d="M116.52 44.4709C116.513 44.4744 116.506 44.4779 116.498 44.4832C116.505 44.4797 116.513 44.4744 116.522 44.4709H116.52Z" fill="black"/>
<path d="M114.607 41.2878C114.607 41.2878 114.607 41.2878 114.609 41.2878L114.632 41.2755C114.632 41.2755 114.616 41.2843 114.607 41.2878Z" fill="black"/>
<path d="M116.328 43.2723C115.776 42.8278 115.334 42.1768 115.314 41.503C115.314 41.4488 115.314 41.3963 115.321 41.3438C115.108 41.2125 114.863 41.1583 114.609 41.286C114.59 41.2965 114.571 41.307 114.551 41.3175C114.532 41.3315 114.511 41.3455 114.492 41.3595C114.432 41.405 114.375 41.454 114.324 41.5083C114.226 41.6133 114.152 41.7358 114.107 41.867C114.011 42.1435 114.032 42.4428 114.112 42.7193C114.299 43.3633 114.795 43.9478 115.404 44.3118C115.596 44.4273 115.804 44.5165 116.018 44.5778C116.126 44.415 116.21 44.2383 116.259 44.0458C116.326 43.7955 116.345 43.533 116.326 43.2705L116.328 43.2723Z" fill="#FF8128"/>
<path d="M116.725 44.3468C116.68 44.3783 116.624 44.4098 116.578 44.4413C116.596 44.4413 116.461 44.5218 116.284 44.6373C116.688 44.6968 117.124 44.6478 117.507 44.4518C117.548 44.4308 117.588 44.408 117.628 44.3853C117.644 44.3748 117.67 44.3573 117.71 44.331C117.737 44.3135 117.765 44.2943 117.791 44.275C117.798 44.2698 117.805 44.2645 117.812 44.2593C117.98 44.1333 118.127 43.988 118.251 43.8288C117.933 43.8865 117.607 43.8655 117.296 43.7798C117.215 43.9005 117.121 44.0125 117.01 44.114C116.921 44.198 116.827 44.275 116.725 44.345V44.3468Z" fill="#FF8128"/>
<path d="M115.957 44.667C115.331 44.7843 114.674 44.611 114.104 44.3205C113.698 44.1123 113.322 43.855 112.975 43.5663C112.52 43.7973 112.069 44.037 111.624 44.2873C111.649 44.3083 111.671 44.3293 111.696 44.3503C112.37 44.912 113.229 45.4668 114.176 45.507C114.391 45.5158 114.61 45.4948 114.816 45.4405C115.049 45.3775 115.254 45.2708 115.453 45.15C115.464 45.1395 115.492 45.1168 115.542 45.08C115.535 45.0853 115.528 45.0905 115.52 45.0958C115.689 44.968 115.835 44.8245 115.955 44.6653L115.957 44.667Z" fill="#FF8128"/>
<path d="M115.742 40.579C115.742 40.579 115.754 40.5702 115.761 40.565C115.761 40.565 115.763 40.5632 115.764 40.5632C115.757 40.5685 115.75 40.5737 115.743 40.579H115.742Z" fill="black"/>
<path d="M118.293 40.4565C118.435 40.7155 118.536 40.9937 118.612 41.2737C118.787 41.9335 118.815 42.6562 118.556 43.3002C118.48 43.4892 118.377 43.6677 118.251 43.8305C118.127 43.9897 117.98 44.135 117.812 44.261C117.805 44.2662 117.798 44.2715 117.791 44.2767C117.765 44.296 117.737 44.3152 117.71 44.3327C117.682 44.352 117.658 44.3677 117.639 44.38C117.838 44.268 118.031 44.1402 118.223 44.0195C118.507 43.8427 118.801 43.6712 119.068 43.4735C119.266 43.3282 119.438 43.1567 119.576 42.9625C119.844 42.5845 119.973 42.1417 120.005 41.6955C120.036 41.2597 119.98 40.8187 119.859 40.397C119.765 40.0645 119.632 39.7285 119.427 39.438C119.362 39.347 119.291 39.256 119.194 39.1895C119.187 39.1842 118.979 39.3172 119.005 39.3015C118.855 39.3942 118.704 39.487 118.556 39.5815C118.407 39.676 118.256 39.7687 118.108 39.865C118.088 39.8772 117.929 39.9892 117.924 39.9857C118.09 40.103 118.2 40.2867 118.291 40.4547L118.293 40.4565Z" fill="#EB5647"/>
<path d="M114.609 41.2877C114.863 41.16 115.108 41.2142 115.321 41.3455C115.572 41.5012 115.78 41.7637 115.906 41.9737C116.142 42.364 116.294 42.8172 116.328 43.274C116.347 43.5365 116.328 43.7972 116.261 44.0492C116.21 44.2417 116.128 44.4185 116.02 44.5812C116 44.611 115.979 44.6407 115.957 44.6687C115.836 44.828 115.691 44.9715 115.521 45.0992C115.528 45.094 115.535 45.0887 115.544 45.0835C115.493 45.1202 115.467 45.143 115.454 45.1535C115.488 45.1342 115.521 45.1132 115.552 45.094C115.797 44.9435 116.044 44.7947 116.287 44.6407C116.293 44.6407 116.681 44.3817 116.725 44.3502C116.826 44.2785 116.921 44.2015 117.01 44.1192C117.12 44.0177 117.215 43.9057 117.295 43.785C117.334 43.7272 117.371 43.6695 117.4 43.6065C117.763 42.8767 117.617 41.9702 117.232 41.272C117.075 40.9867 116.858 40.6945 116.552 40.5247C116.436 40.4617 116.307 40.418 116.17 40.4197C116.051 40.4197 115.946 40.4582 115.848 40.509C115.843 40.5125 115.836 40.516 115.831 40.5212C115.731 40.586 115.535 40.7102 115.19 40.9272C114.861 41.1337 114.665 41.2545 114.557 41.321C114.574 41.3105 114.593 41.3 114.614 41.2895L114.609 41.2877Z" fill="#EB5647"/>
<path d="M71.8324 21.2012C71.8324 21.2012 72.9384 23.226 72.8439 24.9445L71.6154 25.2087C71.6154 25.2087 71.6311 22.89 70.5479 21.6825L71.8324 21.1995V21.2012Z" fill="#FF8128"/>
<path d="M64.2478 31.059C64.2478 31.0485 64.2478 31.0362 64.2461 31.0257C64.2461 31.0222 64.2461 31.0187 64.2461 31.017C64.2461 31.031 64.2461 31.045 64.2478 31.059Z" fill="url(#paint4_linear_22_2723)"/>
<path d="M64.2441 31.0013C64.2441 31.01 64.2441 31.0188 64.2459 31.0275C64.2616 31.3758 64.1864 31.7205 64.0359 32.0478C63.8486 32.4538 63.5441 32.8335 63.1504 33.1643C63.1521 33.2185 63.1591 33.271 63.1696 33.3253C63.1784 33.3865 63.1889 33.4495 63.1976 33.5108C63.2396 33.789 63.2869 34.0673 63.3324 34.3455C63.3796 34.622 63.4269 34.9003 63.4794 35.1768C63.4794 35.1733 63.5669 35.5093 63.5494 35.5233C64.1636 35.0088 64.5661 34.3718 64.6379 33.7015C64.6974 33.138 64.5206 32.55 64.4156 31.9918C64.3299 31.416 64.2739 31.0538 64.2459 30.9033C64.2459 30.898 64.2441 30.891 64.2424 30.884C64.2424 30.8788 64.2406 30.8718 64.2389 30.8683C64.2354 30.8525 64.2319 30.8368 64.2284 30.821C64.2266 30.8245 64.2301 30.8753 64.2424 30.9715C64.2424 30.9803 64.2441 30.9908 64.2441 31.0013Z" fill="#FFA761"/>
<path d="M56.9067 23.7948C56.9067 23.7948 56.9085 23.8001 56.9102 23.8036C56.9137 23.8141 56.9155 23.8263 56.919 23.8368C56.9155 23.8228 56.912 23.8088 56.9067 23.7948Z" fill="url(#paint5_linear_22_2723)"/>
<path d="M57.2163 25.6007C57.2163 25.6112 57.2163 25.62 57.2181 25.6305C57.2181 25.6357 57.2181 25.6392 57.2181 25.6445C57.2181 25.6305 57.2181 25.6165 57.2163 25.6025V25.6007Z" fill="url(#paint6_linear_22_2723)"/>
<path d="M60.4434 13.6622C60.4032 13.6412 60.3699 13.2982 60.3734 13.3175C60.3227 13.0392 60.2737 12.761 60.2282 12.4845C60.1809 12.2062 60.1354 11.928 60.0917 11.6497C60.0829 11.5885 60.0724 11.5272 60.0637 11.4642C60.0532 11.41 60.0479 11.3575 60.0444 11.3032C61.1802 11.8737 62.2459 12.5772 62.5889 13.5467C62.6257 13.6535 62.6537 13.7602 62.6782 13.867C62.6887 13.9142 62.7079 14.1382 62.7114 14.1802C62.7167 14.3237 62.7114 14.4655 62.6974 14.609C62.6764 14.8085 62.6344 15.0062 62.5749 15.1987C62.0762 14.581 61.2869 14.0875 60.4434 13.6622Z" fill="#F05222"/>
<path d="M63.0318 16.0475C63.0318 16.0475 63.0283 16.0405 63.0283 16.0352C63.0283 16.0352 63.0283 16.0352 63.0283 16.0317C63.0283 16.037 63.0318 16.0422 63.0336 16.0475H63.0318Z" fill="#FFA761"/>
<path d="M56.8207 22.9652C56.805 23.2137 56.826 23.4605 56.8627 23.709C56.9117 24.0362 56.987 24.3635 57.05 24.6785C57.1165 25.004 57.2092 25.6042 57.2215 25.6777C57.2215 25.662 57.2197 25.6462 57.218 25.6305C57.218 25.6357 57.218 25.6392 57.218 25.6445C57.218 25.6305 57.2162 25.6165 57.2145 25.6007C57.2145 25.6112 57.2162 25.62 57.218 25.6287C57.211 25.5062 57.2127 25.3855 57.2232 25.263C57.2407 25.0547 57.281 24.85 57.3387 24.647C57.54 23.947 57.9652 23.2837 58.5042 22.673C59.1657 21.9222 59.976 21.2432 60.7372 20.5432C61.4862 19.8537 62.2055 19.1327 62.6517 18.3225C62.874 17.9182 63.0262 17.493 63.0857 17.0607C63.1662 16.4745 63.0087 15.8987 62.9125 15.3177C62.8442 14.903 62.776 14.4882 62.7042 14.0735C62.7042 14.0805 62.7042 14.0875 62.7042 14.0945C62.7077 14.119 62.7095 14.1435 62.7112 14.1697C62.7112 14.1732 62.7112 14.175 62.7112 14.1785C62.7165 14.322 62.7112 14.4655 62.6972 14.6072C62.6745 14.8067 62.6325 15.0027 62.5747 15.197C62.328 16.0037 61.7767 16.7492 61.11 17.437C60.2752 18.2962 59.2847 19.0785 58.4517 19.9395C57.575 20.8442 56.889 21.8575 56.8207 22.9635V22.9652Z" fill="#FFA761"/>
<path d="M57.2216 25.6847C57.2216 25.6655 57.2181 25.648 57.2163 25.6305C57.2111 25.508 57.2111 25.3872 57.2216 25.2647C57.2391 25.0565 57.2793 24.85 57.3371 24.647C57.7886 25.2752 58.4676 25.8247 59.1098 26.3725C59.3636 26.5895 59.6138 26.8082 59.8501 27.034C60.0986 27.2702 60.3488 27.5117 60.5326 27.7742C60.7233 28.0472 60.8266 28.3342 60.8913 28.63C60.8896 28.63 60.8913 28.6807 60.9036 28.7787C60.9036 28.7892 60.9053 28.798 60.9071 28.8085C60.9071 28.8172 60.9071 28.826 60.9088 28.8347C60.9246 29.183 60.8493 29.5277 60.6988 29.855C60.4993 29.624 60.2666 29.4052 60.0286 29.1882C59.5561 28.7577 59.0398 28.3517 58.5691 27.9195C58.1281 27.5152 57.7273 27.0847 57.4823 26.6052C57.3126 26.2692 57.2216 25.7005 57.2198 25.683L57.2216 25.6847Z" fill="#F05222"/>
<path d="M64.246 30.9033C64.2408 30.8753 64.2338 30.849 64.2285 30.8228C64.2303 30.8228 64.2355 30.849 64.246 30.9033Z" fill="url(#paint7_linear_22_2723)"/>
<path d="M149.734 152.267H147.933L139.505 96.6577H142.991L149.734 152.267Z" fill="#666776"/>
<path d="M36.1274 152.267H37.9282L46.3562 96.6577H42.8702L36.1274 152.267Z" fill="#666776"/>
<path d="M150.947 95.5272H34.9146V97.7882H150.947V95.5272Z" fill="#666776"/>
<g style="mix-blend-mode:multiply" opacity="0.3">
<path d="M96.7417 147.766C97.1074 147.784 97.7042 147.812 98.5004 147.85C97.9597 147.822 97.384 147.796 96.7662 147.768C96.7575 147.768 96.7487 147.768 96.7417 147.768V147.766Z" fill="#858484"/>
</g>
<g style="mix-blend-mode:multiply" opacity="0.3">
<path d="M96.8557 152.028C96.3132 152.003 103.068 151.998 103.644 152.024L96.8557 152.028Z" fill="#858484"/>
</g>
<g style="mix-blend-mode:multiply" opacity="0.3">
<path d="M164.952 153.937C161.149 151.051 109.274 152.554 97.9967 152.007C130.428 153.653 28.5707 150.465 28.5654 153.771C28.5619 156.326 46.1932 158.534 71.1884 159.467C67.6552 159.932 65.2524 160.468 65.2524 161.103C65.2489 163.938 79.0179 166.253 96.0052 166.274C112.994 166.295 128.135 163.112 126.772 161.177C126.343 160.568 124.569 159.973 122.07 159.414C148.103 158.308 167.27 155.692 164.952 153.933V153.937Z" fill="#858484"/>
</g>
<path d="M42.7666 157.978C44.4483 157.978 45.8186 156.609 45.8186 154.926V97.9125C45.8186 96.166 47.2396 94.7467 48.9843 94.7467H58.9873C60.3278 94.7467 61.4198 93.6565 61.4198 92.3142V81.564H62.1548V92.3142C62.1548 94.059 60.7356 95.48 58.9891 95.48H48.9861C47.6456 95.48 46.5536 96.5702 46.5536 97.9125L46.4976 154.926C46.4976 156.982 44.8246 158.655 42.7683 158.655L-2.7124 158.639V157.971L42.7683 157.978H42.7666Z" fill="#666776"/>
<path d="M80.3127 69.272H68.5859V95.4537H80.3127V69.272Z" fill="#BEBEBE"/>
<path d="M68.8418 86.7457H80.0033V88.6235L68.8418 87.7415V86.7457Z" fill="#888C8C"/>
<path d="M52.3182 55.6465H96.5827C97.1427 55.6465 97.5977 56.1015 97.5977 56.6615V85.463C97.5977 86.023 97.1427 86.478 96.5827 86.478H52.3182C51.7582 86.478 51.3032 86.023 51.3032 85.463V56.6615C51.3032 56.1015 51.7582 55.6465 52.3182 55.6465Z" fill="#BEBEBE"/>
<path d="M94.894 58.0265H53.9282V84.1137H94.894V58.0265Z" fill="#E6E4E3"/>
<path d="M94.5611 58.3048H54.1816V60.2491H94.5611V58.3048Z" fill="#C5C7C7"/>
<path d="M55.7777 59.2778C55.7777 59.5403 55.5642 59.7538 55.3017 59.7538C55.0392 59.7538 54.8257 59.5403 54.8257 59.2778C54.8257 59.0153 55.0392 58.8018 55.3017 58.8018C55.5642 58.8018 55.7777 59.0153 55.7777 59.2778Z" fill="#4F60AA"/>
<path d="M57.3211 59.2778C57.3211 59.5403 57.1076 59.7538 56.8451 59.7538C56.5826 59.7538 56.3691 59.5403 56.3691 59.2778C56.3691 59.0153 56.5826 58.8018 56.8451 58.8018C57.1076 58.8018 57.3211 59.0153 57.3211 59.2778Z" fill="#7FC142"/>
<path d="M58.8631 59.2778C58.8631 59.5403 58.6496 59.7538 58.3871 59.7538C58.1246 59.7538 57.9111 59.5403 57.9111 59.2778C57.9111 59.0153 58.1246 58.8018 58.3871 58.8018C58.6496 58.8018 58.8631 59.0153 58.8631 59.2778Z" fill="white"/>
<path d="M56.7789 63.1313C56.7789 63.1313 56.6809 63.0123 56.6249 62.9475L56.5444 63.1365C56.6599 63.308 56.7369 63.4568 56.7789 63.5285C56.8612 63.3903 57.0607 62.9773 57.4754 62.5923L57.4299 62.4838C57.1604 62.6815 56.9329 62.937 56.7807 63.1295" fill="#0D9BD2"/>
<path d="M57.3807 63.5863H57.708L57.4192 62.8933C57.3352 62.9826 57.2617 63.0718 57.1987 63.1558L57.3807 63.5863Z" fill="#F16823"/>
<path d="M56.9224 61.7033H56.6319L55.8462 63.5863H56.1734L56.7422 62.244L56.7684 62.1705H56.7842L56.8104 62.244L56.9784 62.6413C57.0537 62.566 57.1342 62.4925 57.2217 62.4225L56.9207 61.7015L56.9224 61.7033Z" fill="#F16823"/>
<path d="M72.4346 82.488H61.4078L60.2301 81.4047L59.6911 80.5735L59.4443 63.4532L60.8968 63.4917L61.8646 62.0217L76.0588 61.7505V78.8322" fill="white"/>
<path opacity="0.15" d="M70.8314 72.268L71.8674 71.134L70.8314 69.9982L71.0414 68.4355L69.5731 68.1625L68.8749 66.766L67.5361 67.4607L66.1956 66.766L65.4974 68.1625L64.0309 68.4355L64.2391 69.9982L63.2031 71.134L64.2391 72.268L64.0309 73.8325L65.3959 74.0862L64.1656 77.7735L65.7756 76.958L66.5299 78.631L67.5624 75.537L68.5949 78.631L69.3491 76.958L70.9591 77.7735L69.7271 74.0757L71.0414 73.8325L70.8314 72.268Z" fill="#414141"/>
<path d="M65.9103 72.2278L64.2495 77.2065L65.8613 76.391L66.6155 78.064L68.2675 73.1115L65.9103 72.2278Z" fill="#F7941D" stroke="white" stroke-width="1.07" stroke-miterlimit="10"/>
<path d="M69.3841 72.2278L71.0449 77.2065L69.4331 76.391L68.6789 78.064L67.0269 73.1115L69.3841 72.2278Z" fill="#F7941D" stroke="white" stroke-width="1.07" stroke-miterlimit="10"/>
<path opacity="0.15" d="M65.5832 73.5368L65.459 73.8745L66.1887 75.397L67.1022 74.823L67.3227 75.6105L67.5362 74.9315L67.4015 74.6358L66.929 73.1133L65.5832 73.5368Z" fill="#414141"/>
<path d="M65.6408 73.4598L64.211 73.1938L64.414 71.673L63.4043 70.5653L64.414 69.4593L64.211 67.9368L65.6408 67.6708L66.318 66.3163L67.62 66.99L68.9203 66.3163L69.5993 67.6708L71.029 67.9368L70.826 69.4593L71.8358 70.5653L70.826 71.673L71.029 73.1938L69.5993 73.4598L68.9203 74.816L67.62 74.1423L66.318 74.816L65.6408 73.4598Z" fill="url(#paint8_linear_22_2723)"/>
<path d="M68.8819 66.4317L69.5014 67.6707L69.5399 67.7477L69.6239 67.7635L70.9311 68.0067L70.7439 69.4085L70.7334 69.489L70.7876 69.5485L71.7169 70.567L70.7876 71.5855L70.7334 71.645L70.7439 71.7255L70.9311 73.1272L69.6239 73.3705L69.5399 73.3862L69.5014 73.4632L68.8819 74.7022L67.6989 74.0897L67.6201 74.0495L67.5414 74.0897L66.3584 74.7022L65.7389 73.4632L65.7004 73.3862L65.6164 73.3705L64.3091 73.1272L64.4964 71.7255L64.5069 71.645L64.4526 71.5855L63.5234 70.567L64.4526 69.5485L64.5069 69.489L64.4964 69.4085L64.3091 68.0067L65.6164 67.7635L65.7004 67.7477L65.7389 67.6707L66.3584 66.4317L67.5414 67.0442L67.6201 67.0845L67.6989 67.0442L68.8819 66.4317ZM68.9589 66.199L67.6201 66.892L66.2814 66.199L65.5831 67.5937L64.1149 67.8667L64.3231 69.4312L63.2871 70.567L64.3231 71.7027L64.1149 73.2672L65.5831 73.5402L66.2814 74.935L67.6201 74.242L68.9589 74.935L69.6571 73.5402L71.1254 73.2672L70.9171 71.7027L71.9531 70.567L70.9171 69.4312L71.1254 67.8667L69.6571 67.5937L68.9589 66.199Z" fill="white"/>
<path opacity="0.15" d="M67.5799 74.361H67.6901L68.7086 75.145L68.8731 74.8878L67.6201 74.2385L67.5361 74.2823L67.5799 74.361Z" fill="#414141"/>
<path d="M72.6235 82.4198L76.0465 78.7798H73.4513C73.0313 78.7798 72.69 79.1403 72.69 79.5865L72.6235 82.4198Z" fill="#BEBEBE"/>
<path d="M75.9272 61.7996H59.3862V63.9136H75.9272V61.7996Z" fill="#1991CC"/>
<path d="M83.7955 93.5795H65.1055V95.452H83.7955V93.5795Z" fill="#E6E4E3"/>
<path d="M149.877 67.1317L149.856 66.8867L153.429 66.5804L153.386 66.8307L149.877 67.1317Z" fill="#7FC142"/>
<path d="M149.48 68.2307L149.443 67.9892L153.246 67.3925L153.177 67.6532L149.48 68.2307Z" fill="#7FC142"/>
<path d="M136.677 81.578C135.72 80.4177 134.346 80.0467 133.198 79.4377C132.08 78.8462 130.972 78.225 129.915 78.036C128.907 77.8557 127.959 78.407 127.124 78.4525C125.351 78.5487 124.616 78.1095 123.86 78.386C122.964 78.7132 122.285 79.2557 122.299 80.199C122.315 81.1422 123.097 81.8667 124.051 81.8177C124.074 81.8177 124.998 81.4642 126.385 81.8825C126.595 81.62 126.917 81.4537 127.278 81.4537C127.901 81.4537 128.407 81.9507 128.421 82.5702C129.014 82.7207 129.639 82.817 130.137 82.7505C131.565 82.5597 132.491 83.517 133.851 85.1112C134.547 85.9267 135.848 85.7727 136.656 85.148C136.794 85.0412 136.922 84.9152 137.036 84.7735C137.816 83.7987 137.944 83.1162 136.675 81.5797L136.677 81.578Z" fill="#44833E"/>
<path d="M143.189 73.6977C141.999 70.7542 139.733 67.1719 139.425 65.7422C139.222 64.8007 140.112 59.9479 140.209 58.1612C139.537 57.9722 139.043 57.3544 139.043 56.6212C139.043 55.9877 139.412 55.4399 139.946 55.1809C139.628 53.3749 138.933 51.3152 137.388 50.9232C134.08 50.0832 134.932 58.4062 134.299 60.7354C132.818 66.1744 134.771 70.2397 135.858 71.9932C137.178 74.1212 138.338 75.5439 138.219 77.2624C138.023 80.1009 137.855 82.7557 138.102 83.5292C138.483 84.7244 139.694 85.4262 140.896 85.2022C140.996 85.1829 141.094 85.1444 141.196 85.1269C144.529 84.5249 144.998 78.1742 143.187 73.6994L143.189 73.6977Z" fill="#44833E"/>
<path d="M139.599 90.9475L139.41 90.8915C139.505 90.566 139.729 88.963 139.927 87.549C140.082 86.4272 140.219 85.4595 140.275 85.218C141.824 78.673 140.366 75.1677 138.345 70.315C138.212 69.9965 138.077 69.6728 137.94 69.3403C137.258 67.6865 136.491 64.7903 136.715 60.382C136.848 57.7483 137.281 55.7953 137.284 55.776L137.477 55.8198C137.473 55.839 137.044 57.7797 136.911 60.396C136.691 64.7657 137.447 67.6305 138.122 69.265C138.259 69.5957 138.394 69.9195 138.527 70.238C140.56 75.124 142.03 78.6555 140.466 85.2617C140.411 85.4927 140.27 86.5043 140.121 87.5735C139.923 88.9945 139.697 90.6063 139.598 90.944L139.599 90.9475Z" fill="#38622F"/>
<path d="M140.665 76.3963L140.502 76.2843L142.849 72.8998L142.942 73.1115L140.665 76.3963Z" fill="#38622F"/>
<path d="M140.868 77.469L140.721 77.3395L143.407 74.277L143.481 74.4922L140.868 77.469Z" fill="#38622F"/>
<path d="M136.808 64.057L133.912 62.5993L133.941 62.3945L136.897 63.882L136.808 64.057Z" fill="#38622F"/>
<path d="M136.927 65.2767L133.83 63.2835L133.852 63.063L137.034 65.1122L136.927 65.2767Z" fill="#38622F"/>
<path d="M148.304 79.478C148.404 79.3345 148.852 79.037 149.21 78.7972C150.238 78.1112 151.645 77.1715 152.887 75.2745C153.377 74.5255 153.603 73.661 153.841 72.7457C154.163 71.5137 153.722 70.2677 154.761 69.125C155.677 68.1187 156.406 66.409 155.4 65.4937C154.394 64.5785 152.836 64.652 151.921 65.6582C150.066 67.6987 149.63 72.5392 146.473 74.7005C142.165 77.651 142.014 82.2657 141.958 82.6192C141.958 82.6192 141.454 86.1945 144.442 86.3975C147.495 86.6057 147.406 80.7537 148.302 79.478H148.304Z" fill="#499844"/>
<path d="M143.236 91.4533L143.038 91.4497V91.4182C143.063 90.3123 143.133 86.947 143.238 86.0982C143.584 83.293 144.359 81.0197 145.607 79.1472C146.664 77.5617 147.842 76.5922 148.789 75.8135C149.398 75.3112 149.881 74.9157 150.152 74.501C150.686 73.6855 151.002 72.604 151.338 71.4595C151.778 69.9597 152.233 68.4075 153.225 67.3907L153.367 67.529C152.408 68.5107 151.961 70.0385 151.529 71.5155C151.19 72.6757 150.869 73.7712 150.318 74.6112C150.029 75.0505 149.538 75.4565 148.915 75.9675C147.04 77.5092 144.209 79.8385 143.434 86.1245C143.365 86.681 143.299 88.4642 143.236 91.4252V91.4567V91.4533Z" fill="#7FC142"/>
<path d="M145.819 78.9338L144.531 76.4208L144.671 76.2633L145.996 78.8446L145.819 78.9338Z" fill="#7FC142"/>
<path d="M137.951 88.7582C137.809 87.9287 136.965 85.75 136.619 85.134C135.863 83.7882 134.727 82.684 133.247 81.8527C132.058 81.186 130.646 80.6925 129.048 80.3845C126.322 79.8612 123.97 80.066 123.947 80.0677L123.93 79.8717C123.954 79.87 126.327 79.6617 129.082 80.1902C130.702 80.5017 132.135 81.0022 133.343 81.6795C134.857 82.5282 136.017 83.6587 136.792 85.036C137.154 85.68 137.998 87.8605 138.147 88.725L137.952 88.7582H137.951Z" fill="#38622F"/>
<path d="M129.787 80.4982L128.907 78.0587L129.104 78.0272L129.972 80.4317L129.787 80.4982Z" fill="#38622F"/>
<path d="M130.695 80.7538L129.381 78.0028H129.6L130.872 80.6698L130.695 80.7538Z" fill="#38622F"/>
<path d="M132.813 83.9545L135.168 83.069L135.238 83.2527L132.963 84.1085L132.813 83.9545Z" fill="#38622F"/>
<path d="M133.865 91.5478C133.865 93.1018 134.605 94.507 135.802 95.5273H145.203C146.4 94.507 147.14 93.1018 147.14 91.5478C147.14 90.335 146.689 89.2098 145.92 88.291H135.084C134.316 89.2115 133.865 90.335 133.865 91.5478Z" fill="#EB5E25"/>
<path d="M93.5973 59.0449L101.759 55.4504L101.749 66.2444C95.44 71.1707 89.9888 69.2544 89.9888 69.2544C91.023 67.9524 92.5595 67.0074 93.5973 66.0624V59.0449Z" fill="#E1B597"/>
<path d="M92.843 157.776L91.3853 152.628L95.8565 151.417L97.0325 156.821L92.843 157.776Z" fill="white"/>
<path d="M104.297 157.693L104.246 152.343L108.878 152.35L109.018 157.873L104.297 157.693Z" fill="white"/>
<path d="M93.3557 162.818C93.3557 162.818 91.7247 160.886 91.688 157.929C91.709 158.092 91.8892 156.375 92.3372 156.06C92.36 155.95 92.4895 154.367 94.0417 153.951C94.5265 153.881 95.608 153.223 96.5582 154.812C96.672 155.139 98.436 155.556 98.4027 156.522C98.4622 156.641 99.4527 160.645 99.0467 161.481C99.2987 161.541 93.3575 162.818 93.3575 162.818H93.3557Z" fill="#283756"/>
<path d="M103.969 161.814C103.969 161.814 102.73 159.611 103.248 156.697C103.238 156.861 103.738 155.208 104.237 154.984C104.279 154.88 104.704 153.351 106.307 153.232C106.795 153.255 107.984 152.81 108.617 154.55C108.668 154.893 110.322 155.633 110.108 156.576C110.145 156.704 110.365 160.823 109.811 161.569C110.047 161.676 103.971 161.814 103.971 161.814H103.969Z" fill="#283756"/>
<path d="M104.246 152.339L104.073 148.206H109.018L108.878 152.35L104.246 152.339Z" fill="#E1B597"/>
<path d="M91.2083 152.443L89.8188 146.823L94.6541 145.78L95.7391 151.482L91.2083 152.443Z" fill="#E1B597"/>
<path d="M95.8737 62.8775C94.9007 63.3272 93.5917 63.7 92.0797 63.014C92.0797 63.014 83.804 54.7802 92.0955 45.5367C100.123 36.5855 106.326 49.8523 105.632 52.0415C104.825 54.6035 102.496 58.0598 100.151 60.249" fill="#E1B597"/>
<path d="M87.8292 109.54C88.44 106.461 84.4692 91.6651 84.4692 91.6651C84.4692 91.6651 89.8032 73.2393 89.8382 70.3711L89.8732 67.5028" fill="#E3676A"/>
<path d="M92.6731 65.6845C92.6731 65.6845 85.5576 65.2032 81.5343 72.7597C78.4298 78.5942 85.1096 97.5905 85.1096 97.5905" fill="#E3676A"/>
<path d="M115.714 115.969C115.714 115.969 109.275 115.612 108.602 112.278C107.928 108.945 112.313 92.9163 112.313 92.9163C112.313 92.9163 106.419 72.9558 106.381 69.8495L106.342 66.7433" fill="#E3676A"/>
<path d="M108.747 64.4805C108.747 64.4805 112.258 66.2235 115.779 72.4377C118.876 77.903 116.682 97.804 113.514 97.0497" fill="#E3676A"/>
<path d="M88.2926 67.7373C89.7854 66.815 97.4451 62.3035 106.951 65.8945C115.584 69.1565 117.763 79.7615 117.045 82.0278C116.328 84.294 111.75 103.654 111.75 103.654L85.3509 100.069C85.0201 99.351 82.9236 89.0418 82.6611 81.4835" fill="#E3676A"/>
<path d="M89.8732 67.5027C89.8732 67.5027 86.6637 70.6685 88.7077 71.8637C89.9065 72.5637 93.55 73.6207 96.357 74.3732C98.5585 74.9647 100.909 74.4432 102.659 72.9802L109.711 68.754L108.915 64.526C108.915 64.526 102.431 62.6167 102.12 63.2187C100.433 66.472 93.5973 64.526 93.5973 64.526C93.5973 64.526 94.1992 63.3465 92.3355 65.4342C90.4735 67.522 89.8715 67.5027 89.8715 67.5027H89.8732Z" fill="#E3676A"/>
<path opacity="0.89" d="M105.882 63.777C105.882 63.777 108.638 66.605 100.433 69.433L105.882 63.777Z" fill="#B95459"/>
<path opacity="0.89" d="M91.3412 66.472C91.3412 66.472 90.2177 70.588 95.942 70.2293L91.3412 66.472Z" fill="#B95459"/>
<path d="M106.799 45.1867C103.341 42.0682 101.759 40.7925 97.2529 42.2555C95.2299 41.3822 97.2529 38.521 97.2529 38.521C96.8364 38.0047 90.2109 40.2552 88.4066 43.8392C86.7651 47.103 90.1566 48.1442 90.1566 48.1442C90.1566 48.1442 92.7991 49.6685 93.5971 50.4122C94.3969 51.156 93.0389 53.6742 93.0389 53.6742C93.0389 53.6742 94.5631 57.148 96.3726 58.7772C98.1821 60.4082 100.324 62.8845 104.794 57.9407C109.263 52.997 106.799 45.185 106.799 45.185V45.1867Z" fill="#0A263E"/>
<path d="M93.0826 50.561C96.8171 49.3063 93.2016 54.3463 93.2016 54.3463C93.2016 54.3463 92.3056 54.4058 92.5436 53.7688" fill="#E1B597"/>
<path d="M93.6392 54.3481C93.6392 54.3481 97.6834 61.9746 101.21 60.3926C101.21 60.3033 108.29 58.0616 107.006 47.8748C106.946 47.8748 106.638 45.4248 106.638 45.4248L98.7684 50.3633C98.7684 50.3633 99.0064 57.6276 93.6392 54.3498V54.3481Z" fill="#0E1928"/>
<path d="M93.6392 50.0832L90.155 47.8432C90.155 47.8432 85.7747 46.081 89.6597 42.5845L90.8865 41.4487C90.8865 41.4487 87.9535 45.2427 93.641 50.0832H93.6392Z" fill="#0E1928"/>
<path d="M92.7275 49.245C92.7275 49.245 95.0253 48.6797 95.5625 49.0682C96.0998 49.4567 97.3633 54.3095 93.6393 54.348C93.6393 54.348 95.9423 50.771 94.467 50.1462C94.1485 50.0115 93.8335 50.1882 93.6393 50.2337C93.4433 50.2792 92.7275 49.245 92.7275 49.245Z" fill="#0E1928"/>
<path opacity="0.5" d="M92.1272 40.642C92.1272 40.642 95.174 38.85 96.6982 38.759C96.6387 38.8483 95.3052 41.6868 97.0465 42.6738C96.966 42.7333 94.586 43.7798 94.586 43.7798C94.586 43.7798 96.6632 42.2853 95.874 41.6885C95.0847 41.0918 95.86 40.1048 95.0235 40.1345C94.187 40.1643 92.1255 40.642 92.1255 40.642H92.1272Z" fill="#638FBD"/>
<path d="M93.5675 64.7132L93.5308 63.4112C93.5308 63.4112 95.1268 63.5985 96.196 62.9947C96.189 62.972 96.7875 62.7042 96.0403 62.4942C96.0403 62.4942 94.2623 63.5407 92.4703 62.6727C92.4545 62.5835 96.504 60.963 94.159 57.3142C92.4703 54.74 93.4573 54.516 93.4573 54.516C93.4573 54.516 97.4473 62.1057 102.032 60.3365C102.048 60.3732 102.104 63.7717 102.104 63.7717C102.104 63.7717 99.8518 66.0695 93.5675 64.7115V64.7132Z" fill="#C1987F"/>
<path d="M81.2123 120.071C81.4031 120.26 83.3806 131.518 83.3806 131.518L89.4618 149.595L96.0173 148.029L91.2713 120.787C91.2713 120.787 87.8623 114.574 86.1596 113.736C84.4551 112.899 81.9298 115.503 81.9298 115.503C81.9298 115.503 78.8638 117.74 81.2106 120.069L81.2123 120.071Z" fill="#283756"/>
<path d="M103.186 148.029L100.947 123.935V117.983C100.947 117.983 100.793 113.962 102.065 113.44C103.338 112.919 102.562 110.841 105.161 111.916C107.76 112.99 109.622 116.307 109.622 116.307C109.622 116.307 109.816 121.501 109.807 122.491C109.799 123.482 110.763 137.571 110.247 143.017C110.539 142.032 109.688 148.909 109.688 148.909L103.208 148.92L103.184 148.031L103.186 148.029Z" fill="#283756"/>
<path opacity="0.5" d="M101.514 48.9318C101.514 48.9318 102.883 44.5271 97.3245 45.4231C91.7665 46.3191 92.1253 43.0028 92.1253 43.0028C92.1253 43.0028 93.52 45.7818 98.469 44.4361C103.418 43.0921 103.282 47.0611 101.512 48.9301L101.514 48.9318Z" fill="#638FBD"/>
<path opacity="0.5" d="M104.526 46.7478C104.526 46.7478 104.456 41.916 99.9443 42.5548C104.167 42.9135 104.437 46.1405 104.526 46.7478Z" fill="#638FBD"/>
<path d="M98.6317 125.608C98.6317 125.608 88.0792 125.039 86.6074 125.914C85.1339 126.789 85.2704 130.51 85.2704 130.51L98.6334 127.459V125.608H98.6317Z" fill="#638FBD"/>
<path d="M98.0247 125.111C98.0247 125.111 108.922 124.484 110.443 125.449C111.963 126.413 111.823 130.51 111.823 130.51L98.0229 127.15V125.111H98.0247Z" fill="#638FBD"/>
<path d="M112.81 129.36C111.31 127.325 101.299 126.733 101.299 126.733H95.7967C95.7967 126.733 85.7849 127.325 84.2852 129.36C83.1459 130.907 76.9404 164.82 76.9404 164.82H78.5819C78.5819 164.82 85.8077 132.843 87.5157 131.199C89.0207 129.945 98.5739 129.294 98.5739 129.294C99.2967 129.28 108.075 129.945 109.58 131.199C111.288 132.841 118.513 164.82 118.513 164.82H120.155C120.155 164.82 113.949 130.907 112.81 129.36Z" fill="#666877"/>
<path d="M82.9501 125.468L76.7866 84.6982H120.139L113.412 126.371L82.9501 125.468Z" fill="#638FBD"/>
<path opacity="0.89" d="M88.4067 71.8935C88.4067 71.8935 87.943 73.0589 89.0787 73.5962C90.2145 74.1334 97.2092 76.6429 98.4622 76.5239C99.7152 76.4049 106.211 71.9232 106.638 71.0272C107.065 70.1312 107.161 69.6219 107.161 69.6219C107.161 69.6219 102.333 74.6129 97.7377 74.6129C97.6835 74.6724 96.5197 75.3899 88.4067 71.8935Z" fill="#B95459"/>
<path opacity="0.89" d="M116.163 75.054C116.163 75.054 116.805 79.6547 116.324 81.6865C116.067 82.7732 115.241 83.5817 114.527 84.098C107.985 84.0175 90.9614 83.811 85.0831 83.7445C83.6639 82.257 84.1784 79.0947 84.1311 77.8032C84.0716 76.1302 81.7249 78.4 81.8807 80.3722C82.0364 82.3445 81.4834 84.7735 81.4834 84.7735C81.4834 84.7735 82.3741 84.7735 83.4836 84.7665L83.4872 84.7735H116.963L117.129 84.1295C117.129 84.1295 117.015 84.1295 116.802 84.126C117.106 83.0165 117.7 80.8832 117.705 80.9987C117.824 79.527 116.161 75.0557 116.161 75.0557L116.163 75.054Z" fill="#B95459"/>
<g style="mix-blend-mode:multiply" opacity="0.3">
<path d="M96.7417 147.766C97.1074 147.784 97.7042 147.812 98.5004 147.85C97.9597 147.822 97.384 147.796 96.7662 147.768C96.7575 147.768 96.7487 147.768 96.7417 147.768V147.766Z" fill="#858484"/>
</g>
<g style="mix-blend-mode:multiply" opacity="0.3">
<path d="M96.8557 152.028C96.3132 152.003 103.068 151.998 103.644 152.024L96.8557 152.028Z" fill="#858484"/>
</g>
<path fill-rule="evenodd" clip-rule="evenodd" d="M88.979 51.8857C88.979 51.8857 89.0088 51.6145 89.196 51.506C89.3833 51.3975 89.805 51.3135 90.2652 51.4937C90.7255 51.674 91.4168 52.101 91.4063 52.2025C91.3958 52.304 90.6135 52.0082 90.1288 51.905C89.427 51.7545 88.979 51.8875 88.979 51.8875V51.8857Z" fill="#473B30"/>
<path d="M89.3587 53.5885C89.6013 53.5885 89.7979 53.3918 89.7979 53.1492C89.7979 52.9066 89.6013 52.71 89.3587 52.71C89.1161 52.71 88.9194 52.9066 88.9194 53.1492C88.9194 53.3918 89.1161 53.5885 89.3587 53.5885Z" fill="#473B30"/>
<path fill-rule="evenodd" clip-rule="evenodd" d="M88.8755 52.7923C88.9193 52.738 89.0978 52.6943 89.3848 52.661C89.7733 52.6155 90.2966 52.6225 90.6308 52.8115C90.7831 52.8973 90.9056 53.1038 90.9476 53.1563C91.0806 53.3225 90.8181 53.242 90.8181 53.242C90.8181 53.242 90.6343 53.0548 90.4768 52.9918C90.1811 52.8745 89.8398 52.9025 89.5073 52.9235C89.1153 52.9463 88.9211 53.0828 88.8633 53.039C88.8056 52.9953 88.8773 52.794 88.8773 52.794L88.8755 52.7923Z" fill="#473B30"/>
<path d="M88.8124 52.3757C88.5167 53.1755 88.3032 53.256 87.9094 53.6497C87.6049 53.9542 87.0239 54.5545 87.0414 54.8415C87.0572 55.09 87.3634 55.1792 87.8849 55.2492C88.6094 55.3455 89.4371 55.3157 89.7696 55.167" fill="#E1B597"/>
<path d="M64.3422 38.5613C64.3422 38.5613 62.0952 37.2453 62.209 35.9188C61.9447 35.9188 61.6227 35.609 61.334 35.2835C61.2587 35.1978 60.9752 34.4173 60.9665 34.3105C60.9367 33.8993 61.0942 32.9455 61.3322 32.669L64.5137 30.3258C64.5137 30.3258 66.4632 29.7535 67.1352 30.7668C67.34 31.0748 67.907 31.7118 68.0575 32.0128C68.1117 32.1178 69.1582 32.2228 69.2597 32.529C69.8355 34.2773 69.1547 35.7315 69.223 36.9915C69.2597 37.6898 69.2912 38.388 69.3245 39.0863L66.8605 39.4713L64.3422 38.5595V38.5613Z" fill="#E1B597"/>
<path d="M70.6985 39.2122L69.3772 37.0089C69.3772 37.0089 66.943 36.6677 65.1475 39.0879L66.243 41.4749L70.6985 39.2139V39.2122Z" fill="#C9C9C9"/>
<path d="M78.9411 54.6367C75.8296 48.8162 73.4216 43.8497 70.6461 38.5402C69.3546 38.4509 66.8678 39.0354 65.6113 40.8939L72.3733 57.2669L83.8533 83.3209C83.8533 83.3209 90.2828 74.3452 89.7351 67.2472C89.7351 67.2472 82.5933 61.4687 78.9428 54.6367H78.9411Z" fill="#E3676A"/>
<path d="M131.135 39.7425C131.135 39.7425 133.403 38.4563 133.308 37.1298C133.572 37.1333 133.9 36.827 134.194 36.505C134.269 36.421 134.566 35.644 134.575 35.5373C134.612 35.126 134.468 34.1723 134.236 33.8905L131.091 31.507C131.091 31.507 129.15 30.9103 128.462 31.9148C128.254 32.2193 127.677 32.8493 127.519 33.1485C127.465 33.2535 126.415 33.3428 126.31 33.6473C125.706 35.3868 126.364 36.8515 126.278 38.1098C126.231 38.808 126.189 39.5063 126.144 40.2045L128.601 40.6228L131.133 39.7443L131.135 39.7425Z" fill="#E1B597"/>
<path d="M124.77 40.3094L126.124 38.1237C126.124 38.1237 128.564 37.8157 130.321 40.2587L129.189 42.6299L124.768 40.3094H124.77Z" fill="#C9C9C9"/>
<path d="M116.29 55.622C119.49 49.8435 121.975 44.9085 124.833 39.6375C126.126 39.564 128.604 40.1817 129.831 42.0577L122.815 58.3397L111.883 81.3505C111.883 81.3505 104.456 72.8595 105.114 65.7685C105.114 65.7685 112.532 62.405 116.288 55.622H116.29Z" fill="#E3676A"/>
<path d="M123.197 70.343C123.197 70.343 124.385 68.3655 125.915 67.5763L126.765 68.502C126.765 68.502 124.758 69.6623 124.264 71.2058L123.199 70.3413L123.197 70.343Z" fill="#FF8128"/>
<path d="M79.877 45.01C79.877 45.01 81.0652 43.0325 82.5947 42.2433L83.4452 43.169C83.4452 43.169 81.438 44.3293 80.9445 45.8728L79.8787 45.0083L79.877 45.01Z" fill="#FF8128"/>
<path d="M60.4627 51.4343C60.4627 51.4343 58.6812 49.9678 58.1265 48.3403L59.1677 47.635C59.1677 47.635 60.02 49.791 61.4742 50.5068L60.4627 51.4343Z" fill="#FF8128"/>
</g>
<defs>
<linearGradient id="paint0_linear_22_2723" x1="37.2487" y1="58.9048" x2="37.2508" y2="58.9075" gradientUnits="userSpaceOnUse">
<stop stop-color="#DF520A"/>
<stop offset="0.14" stop-color="#F87D16"/>
<stop offset="0.19" stop-color="#F88218"/>
<stop offset="0.26" stop-color="#F89221"/>
<stop offset="0.33" stop-color="#F8AB2E"/>
<stop offset="0.35" stop-color="#F8B634"/>
<stop offset="0.43" stop-color="#F7AA2E"/>
<stop offset="0.55" stop-color="#F78C1E"/>
<stop offset="0.62" stop-color="#F77A15"/>
<stop offset="0.68" stop-color="#F06D11"/>
<stop offset="0.8" stop-color="#DF4C07"/>
<stop offset="0.83" stop-color="#DB4304"/>
<stop offset="0.87" stop-color="#D74004"/>
<stop offset="0.92" stop-color="#CC3904"/>
<stop offset="0.96" stop-color="#B92D04"/>
<stop offset="0.99" stop-color="#9F1D04"/>
<stop offset="1" stop-color="#9C1B04"/>
</linearGradient>
<linearGradient id="paint1_linear_22_2723" x1="39.6253" y1="65.9925" x2="39.6296" y2="65.998" gradientUnits="userSpaceOnUse">
<stop stop-color="#DF520A"/>
<stop offset="0.14" stop-color="#F87D16"/>
<stop offset="0.19" stop-color="#F88218"/>
<stop offset="0.26" stop-color="#F89221"/>
<stop offset="0.33" stop-color="#F8AB2E"/>
<stop offset="0.35" stop-color="#F8B634"/>
<stop offset="0.43" stop-color="#F7AA2E"/>
<stop offset="0.55" stop-color="#F78C1E"/>
<stop offset="0.62" stop-color="#F77A15"/>
<stop offset="0.68" stop-color="#F06D11"/>
<stop offset="0.8" stop-color="#DF4C07"/>
<stop offset="0.83" stop-color="#DB4304"/>
<stop offset="0.87" stop-color="#D74004"/>
<stop offset="0.92" stop-color="#CC3904"/>
<stop offset="0.96" stop-color="#B92D04"/>
<stop offset="0.99" stop-color="#9F1D04"/>
<stop offset="1" stop-color="#9C1B04"/>
</linearGradient>
<linearGradient id="paint2_linear_22_2723" x1="41.0326" y1="64.8175" x2="41.0337" y2="64.8188" gradientUnits="userSpaceOnUse">
<stop stop-color="#DF520A"/>
<stop offset="0.14" stop-color="#F87D16"/>
<stop offset="0.19" stop-color="#F88218"/>
<stop offset="0.26" stop-color="#F89221"/>
<stop offset="0.33" stop-color="#F8AB2E"/>
<stop offset="0.35" stop-color="#F8B634"/>
<stop offset="0.43" stop-color="#F7AA2E"/>
<stop offset="0.55" stop-color="#F78C1E"/>
<stop offset="0.62" stop-color="#F77A15"/>
<stop offset="0.68" stop-color="#F06D11"/>
<stop offset="0.8" stop-color="#DF4C07"/>
<stop offset="0.83" stop-color="#DB4304"/>
<stop offset="0.87" stop-color="#D74004"/>
<stop offset="0.92" stop-color="#CC3904"/>
<stop offset="0.96" stop-color="#B92D04"/>
<stop offset="0.99" stop-color="#9F1D04"/>
<stop offset="1" stop-color="#9C1B04"/>
</linearGradient>
<linearGradient id="paint3_linear_22_2723" x1="37.1018" y1="59.001" x2="37.1061" y2="59.0065" gradientUnits="userSpaceOnUse">
<stop stop-color="#DF520A"/>
<stop offset="0.14" stop-color="#F87D16"/>
<stop offset="0.19" stop-color="#F88218"/>
<stop offset="0.26" stop-color="#F89221"/>
<stop offset="0.33" stop-color="#F8AB2E"/>
<stop offset="0.35" stop-color="#F8B634"/>
<stop offset="0.43" stop-color="#F7AA2E"/>
<stop offset="0.55" stop-color="#F78C1E"/>
<stop offset="0.62" stop-color="#F77A15"/>
<stop offset="0.68" stop-color="#F06D11"/>
<stop offset="0.8" stop-color="#DF4C07"/>
<stop offset="0.83" stop-color="#DB4304"/>
<stop offset="0.87" stop-color="#D74004"/>
<stop offset="0.92" stop-color="#CC3904"/>
<stop offset="0.96" stop-color="#B92D04"/>
<stop offset="0.99" stop-color="#9F1D04"/>
<stop offset="1" stop-color="#9C1B04"/>
</linearGradient>
<linearGradient id="paint4_linear_22_2723" x1="64.1551" y1="30.9324" x2="64.1534" y2="30.9326" gradientUnits="userSpaceOnUse">
<stop stop-color="#DF520A"/>
<stop offset="0.14" stop-color="#F87D16"/>
<stop offset="0.19" stop-color="#F88218"/>
<stop offset="0.26" stop-color="#F89221"/>
<stop offset="0.33" stop-color="#F8AB2E"/>
<stop offset="0.35" stop-color="#F8B634"/>
<stop offset="0.43" stop-color="#F7AA2E"/>
<stop offset="0.55" stop-color="#F78C1E"/>
<stop offset="0.62" stop-color="#F77A15"/>
<stop offset="0.68" stop-color="#F06D11"/>
<stop offset="0.8" stop-color="#DF4C07"/>
<stop offset="0.83" stop-color="#DB4304"/>
<stop offset="0.87" stop-color="#D74004"/>
<stop offset="0.92" stop-color="#CC3904"/>
<stop offset="0.96" stop-color="#B92D04"/>
<stop offset="0.99" stop-color="#9F1D04"/>
<stop offset="1" stop-color="#9C1B04"/>
</linearGradient>
<linearGradient id="paint5_linear_22_2723" x1="56.8219" y1="23.7091" x2="56.8167" y2="23.7097" gradientUnits="userSpaceOnUse">
<stop stop-color="#DF520A"/>
<stop offset="0.14" stop-color="#F87D16"/>
<stop offset="0.19" stop-color="#F88218"/>
<stop offset="0.26" stop-color="#F89221"/>
<stop offset="0.33" stop-color="#F8AB2E"/>
<stop offset="0.35" stop-color="#F8B634"/>
<stop offset="0.43" stop-color="#F7AA2E"/>
<stop offset="0.55" stop-color="#F78C1E"/>
<stop offset="0.62" stop-color="#F77A15"/>
<stop offset="0.68" stop-color="#F06D11"/>
<stop offset="0.8" stop-color="#DF4C07"/>
<stop offset="0.83" stop-color="#DB4304"/>
<stop offset="0.87" stop-color="#D74004"/>
<stop offset="0.92" stop-color="#CC3904"/>
<stop offset="0.96" stop-color="#B92D04"/>
<stop offset="0.99" stop-color="#9F1D04"/>
<stop offset="1" stop-color="#9C1B04"/>
</linearGradient>
<linearGradient id="paint6_linear_22_2723" x1="57.1256" y1="25.5172" x2="57.1221" y2="25.5176" gradientUnits="userSpaceOnUse">
<stop stop-color="#DF520A"/>
<stop offset="0.14" stop-color="#F87D16"/>
<stop offset="0.19" stop-color="#F88218"/>
<stop offset="0.26" stop-color="#F89221"/>
<stop offset="0.33" stop-color="#F8AB2E"/>
<stop offset="0.35" stop-color="#F8B634"/>
<stop offset="0.43" stop-color="#F7AA2E"/>
<stop offset="0.55" stop-color="#F78C1E"/>
<stop offset="0.62" stop-color="#F77A15"/>
<stop offset="0.68" stop-color="#F06D11"/>
<stop offset="0.8" stop-color="#DF4C07"/>
<stop offset="0.83" stop-color="#DB4304"/>
<stop offset="0.87" stop-color="#D74004"/>
<stop offset="0.92" stop-color="#CC3904"/>
<stop offset="0.96" stop-color="#B92D04"/>
<stop offset="0.99" stop-color="#9F1D04"/>
<stop offset="1" stop-color="#9C1B04"/>
</linearGradient>
<linearGradient id="paint7_linear_22_2723" x1="64.1482" y1="30.7568" x2="64.1413" y2="30.7577" gradientUnits="userSpaceOnUse">
<stop stop-color="#DF520A"/>
<stop offset="0.14" stop-color="#F87D16"/>
<stop offset="0.19" stop-color="#F88218"/>
<stop offset="0.26" stop-color="#F89221"/>
<stop offset="0.33" stop-color="#F8AB2E"/>
<stop offset="0.35" stop-color="#F8B634"/>
<stop offset="0.43" stop-color="#F7AA2E"/>
<stop offset="0.55" stop-color="#F78C1E"/>
<stop offset="0.62" stop-color="#F77A15"/>
<stop offset="0.68" stop-color="#F06D11"/>
<stop offset="0.8" stop-color="#DF4C07"/>
<stop offset="0.83" stop-color="#DB4304"/>
<stop offset="0.87" stop-color="#D74004"/>
<stop offset="0.92" stop-color="#CC3904"/>
<stop offset="0.96" stop-color="#B92D04"/>
<stop offset="0.99" stop-color="#9F1D04"/>
<stop offset="1" stop-color="#9C1B04"/>
</linearGradient>
<linearGradient id="paint8_linear_22_2723" x1="67.62" y1="82.397" x2="67.62" y2="71.5645" gradientUnits="userSpaceOnUse">
<stop stop-color="#DD5626"/>
<stop offset="1" stop-color="#F27A21"/>
</linearGradient>
<clipPath id="clip0_22_2723">
<rect width="175" height="175" fill="white"/>
</clipPath>
</defs>
</svg>
